<svg width="40" height="40" viewBox="0 0 40 40" fill="none" xmlns="http://www.w3.org/2000/svg">
<path d="M31.6126 24.7786C30.7937 23.9259 29.806 23.4701 28.7591 23.4701C27.7207 23.4701 26.7245 23.9175 25.8719 24.7702L23.2041 27.4295C22.9846 27.3113 22.7651 27.2015 22.554 27.0918C22.2501 26.9398 21.9631 26.7963 21.7183 26.6444C19.2193 25.0572 16.9484 22.9889 14.7703 20.3126C13.715 18.9788 13.0058 17.8559 12.4908 16.7162C13.1831 16.0831 13.8247 15.4246 14.4495 14.7914C14.6858 14.555 14.9222 14.3102 15.1586 14.0738C16.9315 12.3009 16.9315 10.0046 15.1586 8.23175L12.8539 5.92701C12.5922 5.6653 12.322 5.39515 12.0687 5.125C11.5622 4.60158 11.0303 4.06127 10.4816 3.55473C9.66269 2.74428 8.68338 2.31372 7.65343 2.31372C6.62347 2.31372 5.62728 2.74428 4.78305 3.55473C4.77461 3.56318 4.77461 3.56318 4.76617 3.57162L1.8958 6.46732C0.815184 7.54793 0.198898 8.86493 0.063822 10.393C-0.138793 12.8581 0.587243 15.1544 1.14443 16.6571C2.51208 20.3464 4.55511 23.7655 7.60277 27.4295C11.3005 31.8448 15.7496 35.3315 20.8318 37.7882C22.7735 38.7084 25.3653 39.7974 28.261 39.9831C28.4383 39.9916 28.624 40 28.7929 40C30.743 40 32.3808 39.2993 33.6641 37.9064C33.6725 37.8895 33.6894 37.881 33.6978 37.8641C34.1368 37.3323 34.6434 36.8511 35.1752 36.3361C35.5383 35.99 35.9097 35.6269 36.2727 35.247C37.1085 34.3775 37.5475 33.3644 37.5475 32.326C37.5475 31.2792 37.1001 30.2745 36.2474 29.4303L31.6126 24.7786ZM34.6349 33.6683C34.6265 33.6683 34.6265 33.6768 34.6349 33.6683C34.3057 34.0229 33.968 34.3437 33.605 34.6983C33.0562 35.2217 32.499 35.7705 31.9756 36.3867C31.1229 37.2985 30.1183 37.7291 28.8013 37.7291C28.6747 37.7291 28.5396 37.7291 28.413 37.7206C25.9056 37.5602 23.5756 36.5809 21.828 35.7451C17.0497 33.4319 12.8539 30.1479 9.36721 25.9859C6.48839 22.5161 4.56355 19.308 3.28877 15.8636C2.50364 13.7614 2.2166 12.1236 2.34324 10.5787C2.42766 9.59096 2.80756 8.77206 3.50827 8.07135L6.38708 5.19254C6.80076 4.80419 7.23976 4.59313 7.67031 4.59313C8.20217 4.59313 8.63273 4.91394 8.90288 5.18409C8.91133 5.19254 8.91977 5.20098 8.92821 5.20942C9.44319 5.69063 9.93284 6.18873 10.4478 6.72059C10.7095 6.99074 10.9797 7.26089 11.2498 7.53949L13.5546 9.84423C14.4495 10.7391 14.4495 11.5665 13.5546 12.4613C13.3097 12.7062 13.0734 12.951 12.8285 13.1874C12.1194 13.9134 11.444 14.5888 10.7095 15.2473C10.6926 15.2642 10.6758 15.2726 10.6673 15.2895C9.94128 16.0155 10.0764 16.7247 10.2283 17.2059C10.2368 17.2312 10.2452 17.2565 10.2536 17.2819C10.853 18.7339 11.6973 20.1016 12.9805 21.731L12.9889 21.7394C15.319 24.6098 17.7757 26.847 20.4857 28.5608C20.8318 28.7803 21.1864 28.9575 21.5241 29.1264C21.828 29.2783 22.115 29.4219 22.3599 29.5738C22.3936 29.5907 22.4274 29.616 22.4612 29.6329C22.7482 29.7764 23.0184 29.844 23.297 29.844C23.9977 29.844 24.4367 29.405 24.5802 29.2615L27.4674 26.3742C27.7545 26.0872 28.2104 25.741 28.7422 25.741C29.2656 25.741 29.6962 26.0703 29.9579 26.3573C29.9664 26.3658 29.9664 26.3658 29.9748 26.3742L34.6265 31.0259C35.496 31.887 35.496 32.7734 34.6349 33.6683Z" fill="black"/>
<path d="M21.617 9.51493C23.8288 9.88639 25.8381 10.9332 27.4421 12.5373C29.0462 14.1413 30.0846 16.1506 30.4645 18.3624C30.5573 18.9196 31.0385 19.308 31.5873 19.308C31.6548 19.308 31.7139 19.2995 31.7815 19.2911C32.4062 19.1898 32.8199 18.5988 32.7185 17.9741C32.2627 15.2979 30.9963 12.8581 29.063 10.9248C27.1298 8.99151 24.6899 7.72517 22.0137 7.26929C21.389 7.16798 20.8065 7.58165 20.6967 8.19794C20.587 8.81422 20.9922 9.41362 21.617 9.51493Z" fill="black"/>
<path d="M39.9536 17.6448C39.2022 13.238 37.1254 9.2279 33.9342 6.03672C30.743 2.84554 26.733 0.768738 22.3261 0.0173754C21.7098 -0.0923741 21.1273 0.32974 21.0175 0.946026C20.9162 1.57075 21.3299 2.15327 21.9546 2.26302C25.8887 2.92996 29.4767 4.7957 32.3302 7.64075C35.1837 10.4942 37.041 14.0822 37.7079 18.0163C37.8008 18.5735 38.282 18.9618 38.8307 18.9618C38.8983 18.9618 38.9574 18.9534 39.0249 18.945C39.6412 18.8521 40.0633 18.2611 39.9536 17.6448Z" fill="black"/>
</svg>
