<svg width="52" height="52" viewBox="0 0 52 52" fill="none" xmlns="http://www.w3.org/2000/svg">
<g clip-path="url(#clip0)">
<path d="M31.0567 40.0359L37.7507 30.9055C40.744 26.8248 43.4303 22.7246 43.4303 17.4493C43.4303 7.85165 35.6405 0.0384826 26.052 0H25.9786C16.3587 0 8.53125 7.82745 8.53125 17.4493C8.53125 22.7234 11.2175 26.8248 14.2108 30.9055L20.9044 40.0359H13.121L8.60941 52H43.3521L38.8405 40.0359H31.0567ZM16.6674 29.1036C13.8835 25.3065 11.5781 21.8086 11.5781 17.4493C11.5781 9.52942 18.002 3.08337 25.9115 3.04688H25.9806C33.9219 3.04688 40.3834 9.50839 40.3834 17.4493C40.3834 21.8086 38.078 25.3073 35.2942 29.1036C35.2942 29.1036 26.3567 41.3248 25.9929 41.8223L16.6674 29.1036ZM13.0151 48.9531L15.2284 43.0827H23.138L25.9524 46.9207C25.9524 46.9207 28.3046 43.8254 28.8449 43.0827H36.7331L38.946 48.9531H13.0151Z" fill="black"/>
<path d="M36.7271 17.4493C36.7271 11.5234 31.9057 6.70312 25.9806 6.70312C20.0554 6.70312 15.2344 11.5234 15.2344 17.4493C15.2344 23.3745 20.0554 28.1947 25.9806 28.1947C31.9057 28.1947 36.7271 23.3745 36.7271 17.4493ZM25.9806 25.1478C21.7356 25.1478 18.2812 21.6947 18.2812 17.4493C18.2812 13.2043 21.7356 9.75 25.9806 9.75C30.226 9.75 33.6803 13.2043 33.6803 17.4493C33.6803 21.6947 30.226 25.1478 25.9806 25.1478Z" fill="black"/>
</g>
<defs>
<clipPath id="clip0">
<rect width="52" height="52" fill="white"/>
</clipPath>
</defs>
</svg>
