<svg width="39" height="39" viewBox="0 0 39 39" fill="none" xmlns="http://www.w3.org/2000/svg">
<g clip-path="url(#clip0)">
<path d="M23.9676 1.77865C21.6055 -0.583442 17.3945 -0.583442 15.0323 1.77865L14.4565 2.35443H24.5433L23.9676 1.77865Z" fill="black"/>
<path d="M21.9235 23.5322C20.6292 22.2378 18.3708 22.2378 17.0765 23.5322L1.95923 38.6494C2.40613 38.8632 2.9001 38.993 3.42775 38.993H35.5723C36.0999 38.993 36.5939 38.8632 37.0408 38.6494L21.9235 23.5322Z" fill="black"/>
<path d="M0.0422754 17.7233C0.0242988 17.8662 0 18.0078 0 18.1541V35.5653C0 36.093 0.129721 36.587 0.343535 37.0338L9.88627 27.4911L0.0422754 17.7233Z" fill="black"/>
<path d="M38.9579 17.723L29.1137 27.491L38.6565 37.0338C38.8703 36.5869 39 36.0929 39 35.5653V18.154C39 18.0077 38.9759 17.866 38.9579 17.723Z" fill="black"/>
<path d="M34.3535 12.1644V19.0199L37.8574 15.5922L34.3535 12.1644Z" fill="black"/>
<path d="M28.6406 4.63953C24.4106 4.63953 13.9954 4.63953 10.3594 4.63953C8.46925 4.63953 6.93164 6.17713 6.93164 8.06726C6.93164 12.911 6.93164 16.2145 6.93164 21.3051L11.502 25.8754L15.4608 21.9166C17.6879 19.6895 21.3121 19.6895 23.5392 21.9166L27.498 25.8754L32.0684 21.3051C32.0684 16.2812 32.0684 12.8708 32.0684 8.06726C32.0684 6.17713 30.5308 4.63953 28.6406 4.63953ZM12.6445 11.495H17.2148C17.8464 11.495 18.3574 12.006 18.3574 12.6376C18.3574 13.2691 17.8464 13.7802 17.2148 13.7802H12.6445C12.013 13.7802 11.502 13.2691 11.502 12.6376C11.502 12.006 12.013 11.495 12.6445 11.495ZM26.3555 18.3505H12.6445C12.013 18.3505 11.502 17.8394 11.502 17.2079C11.502 16.5763 12.013 16.0653 12.6445 16.0653H26.3555C26.987 16.0653 27.498 16.5763 27.498 17.2079C27.498 17.8394 26.987 18.3505 26.3555 18.3505Z" fill="black"/>
<path d="M1.14258 15.5922L4.64648 19.0199V12.1644L1.14258 15.5922Z" fill="black"/>
</g>
<defs>
<clipPath id="clip0">
<rect width="39" height="39" fill="white"/>
</clipPath>
</defs>
</svg>
