<svg width="60" height="60" viewBox="0 0 60 60" fill="none" xmlns="http://www.w3.org/2000/svg">
<g clip-path="url(#clip0)">
<path d="M45.0949 53.057C45.751 53.7168 46.1176 54.6105 46.1139 55.541C46.1276 56.4922 45.7607 57.4093 45.0949 58.0887C44.4081 58.7428 43.4958 59.1077 42.5473 59.1077C41.6167 59.1114 40.7231 58.7448 40.0632 58.0887C38.6909 56.6755 38.7241 54.4174 40.1372 53.0452C40.7843 52.4169 41.6454 52.057 42.5471 52.0381C43.4958 52.038 44.408 52.4028 45.0949 53.057Z" fill="black"/>
<path d="M14.7778 19.874V25.861C13.1495 25.8264 11.8476 24.4962 11.848 22.8675C11.8333 22.072 12.1576 21.3079 12.7396 20.7657C13.2713 20.2062 14.0061 19.8848 14.7778 19.874Z" fill="white"/>
<path d="M46.6234 20.7657C47.2055 21.3079 47.5297 22.072 47.515 22.8675C47.5154 24.4962 46.2135 25.8264 44.5852 25.861V19.874C45.357 19.8848 46.0919 20.2062 46.6234 20.7657Z" fill="white"/>
<path d="M35.0317 43.6944V43.8218L30.0001 48.9172L24.9048 43.8218V40.0004C26.4423 40.524 28.0576 40.7824 29.6817 40.7646C31.4674 40.7803 33.2399 40.4562 34.9044 39.8092L35.0318 40.1914V43.6944H35.0317Z" fill="white"/>
<path d="M14.7778 25.8609V16.9441C14.7778 16.9441 21.9112 18.0905 27.3249 10.9572H44.5853V25.8609C44.5811 32.0738 40.7231 37.6322 34.9043 39.8093C33.2397 40.4561 31.4673 40.7804 29.6816 40.7647C28.0788 40.7753 26.4857 40.5169 24.9684 40.0004C18.845 38.0229 14.7171 32.2955 14.7778 25.8609Z" fill="white"/>
<path d="M27.3249 10.8934C21.9112 18.0268 14.7778 16.8804 14.7778 16.8804V10.957C14.7778 10.957 15.7969 3.56885 22.994 3.63249C22.6616 4.32883 22.4876 5.09016 22.4844 5.86172C22.5148 8.55457 24.6354 10.7589 27.3249 10.8934Z" fill="#4B5D63"/>
<path d="M22.994 3.63259C23.2533 3.11204 23.5977 2.63843 24.013 2.23137C24.9603 1.28877 26.2435 0.761757 27.5797 0.766511H38.0252C43.6532 0.766511 48.2158 5.32896 48.2158 10.9571H27.3249C24.6353 10.8227 22.5147 8.61843 22.4844 5.92558C22.478 5.13232 22.6523 4.3482 22.994 3.63259Z" fill="#4B5D63"/>
<path d="M35.4137 54.331H34.1399C33.6123 54.331 33.1845 53.9032 33.1845 53.3756C33.1845 52.8479 33.6123 52.4202 34.1399 52.4202H35.4137C35.9414 52.4202 36.3691 52.8479 36.3691 53.3756C36.3691 53.9032 35.9414 54.331 35.4137 54.331Z" fill="black"/>
<path d="M35.4137 58.1524H34.1399C33.6123 58.1524 33.1845 57.7246 33.1845 57.197C33.1845 56.6694 33.6123 56.2416 34.1399 56.2416H35.4137C35.9414 56.2416 36.3691 56.6694 36.3691 57.197C36.3691 57.7246 35.9414 58.1524 35.4137 58.1524Z" fill="black"/>
<path d="M23.3124 24.7783C22.3847 24.7685 21.4959 24.4039 20.8284 23.7593C20.1945 23.085 19.8316 22.2005 19.8094 21.2752V20.6384C19.8094 20.1108 20.2372 19.683 20.7648 19.683C21.2924 19.683 21.7202 20.1108 21.7202 20.6384V21.2752C21.732 21.6784 21.8905 22.0634 22.166 22.358C22.4624 22.6776 22.8766 22.8618 23.3124 22.8676C24.1919 22.8676 24.9047 22.1547 24.9047 21.2754V20.6385C24.9047 20.1109 25.3325 19.6831 25.8601 19.6831C26.3877 19.6831 26.8155 20.1109 26.8155 20.6385V21.2754C26.8155 23.2099 25.2471 24.7783 23.3124 24.7783Z" fill="black"/>
<path d="M36.0507 24.7783C35.123 24.7685 34.2341 24.4039 33.5667 23.7593C32.9328 23.085 32.5698 22.2005 32.5477 21.2752V20.6384C32.5477 20.1108 32.9754 19.683 33.5031 19.683C34.0307 19.683 34.4585 20.1108 34.4585 20.6384V21.2752C34.4703 21.6784 34.6288 22.0634 34.9043 22.358C35.2006 22.6776 35.6149 22.8618 36.0507 22.8676C36.9302 22.8676 37.643 22.1547 37.643 21.2754V20.6385C37.643 20.1109 38.0707 19.6831 38.5984 19.6831C39.126 19.6831 39.5538 20.1109 39.5538 20.6385V21.2754C39.5538 23.2099 37.9854 24.7783 36.0507 24.7783Z" fill="black"/>
<path d="M42.4198 42.6754H35.7323V40.3825C41.3463 38.0872 45.1217 32.747 45.4133 26.6888C47.1559 26.2314 48.38 24.6688 48.4068 22.8674C48.3788 21.7993 47.9192 20.7883 47.133 20.0649C46.6091 19.5803 45.9752 19.2306 45.2859 19.0459V12.1035H48.2158C48.7434 12.1035 49.1712 11.6757 49.1712 11.1481C49.1363 5.00695 44.1664 0.0370818 38.0251 0.00221582H27.5797C25.9928 -0.0399647 24.4554 0.556658 23.3124 1.65823C23.0016 1.99116 22.7242 2.35372 22.4844 2.74103C16.4975 2.99582 14.3956 8.09113 14.0134 10.8298V19.1096C13.3094 19.2709 12.6542 19.5985 12.1028 20.065C11.3625 20.8145 10.9306 21.8147 10.8926 22.8675C10.8818 24.6403 12.0538 26.2029 13.7587 26.689C13.908 30.5823 15.4966 34.2816 18.217 37.0706C19.7601 38.6155 21.6023 39.8291 23.6307 40.6373V42.6754H17.58C11.3935 42.7796 6.43314 47.8251 6.43399 54.0125V57.197C6.43399 57.7246 6.86177 58.1524 7.38939 58.1524C7.91701 58.1524 8.34479 57.7246 8.34479 57.197V54.0125C8.34187 49.0338 12.2859 44.9489 17.2616 44.7772V46.7517C16.1892 47.0022 15.201 47.5292 14.3955 48.2803C13.3774 49.3433 12.8073 50.7572 12.8033 52.2292V58.5983C12.8033 59.1079 13.1854 59.8721 13.6949 59.8721H15.5419C16.0696 59.8721 16.4973 59.4444 16.4973 58.9167C16.4973 58.3891 16.0696 57.9613 15.5419 57.9613H14.7139V52.2292C14.6855 51.2754 15.0545 50.3526 15.733 49.6815C16.3687 48.9829 17.2724 48.589 18.217 48.5987C20.1517 48.5975 21.721 50.1648 21.7224 52.0995C21.7224 52.1427 21.7216 52.1859 21.72 52.2292V57.9613H20.5736C20.046 57.9613 19.6182 58.3891 19.6182 58.9167C19.6182 59.4444 20.046 59.8721 20.5736 59.8721H22.8665C23.3761 59.8721 23.6307 59.1079 23.6307 58.5983V52.2292C23.7041 49.5519 21.8088 47.2233 19.1724 46.7517V44.5862H24.5225L28.7262 49.2993V57.1971C28.7262 57.7247 29.1539 58.1525 29.6816 58.1525C30.2092 58.1525 30.637 57.7247 30.637 57.1971V49.2993L35.4775 44.5862H41.4644V51.1464H41.5281C39.1254 51.6846 37.6138 54.0688 38.1521 56.4715C38.3381 57.3022 38.7582 58.0623 39.3626 58.6619C40.1971 59.5237 41.3477 60.007 42.5471 59.9994C43.7498 60.0223 44.9061 59.5366 45.7316 58.6619C47.4729 56.9711 47.5136 54.1887 45.8227 52.4476C45.7928 52.4168 45.7625 52.3864 45.7316 52.3566C45.0955 51.7468 44.3011 51.3275 43.4388 51.1464H43.3751V44.841C47.8335 45.4142 51.6549 49.2993 51.6549 54.0126V57.1971C51.6549 57.7247 52.0827 58.1525 52.6103 58.1525C53.138 58.1525 53.5658 57.7247 53.5658 57.1971V54.0126C53.5667 47.8251 48.6064 42.7796 42.4198 42.6754ZM14.0772 24.587C13.4016 24.2755 12.9584 23.6108 12.9308 22.8674C12.9655 22.3067 13.2166 21.7814 13.6314 21.4025C13.695 21.3389 13.4403 21.2115 14.0772 21.1477V24.587ZM29.6816 47.5796L25.5417 43.4396V41.2742C26.7923 41.5792 28.0758 41.7289 29.3631 41.72C30.8736 41.7451 32.3784 41.5301 33.8215 41.083V43.4396L29.6816 47.5796ZM45.7955 21.4025C46.1749 21.7944 46.3814 22.3221 46.3687 22.8674C46.3679 23.6009 45.947 24.2692 45.2859 24.587V21.1477C45.9228 21.2115 45.7318 21.3389 45.7955 21.4025ZM23.8856 4.07849C24.0661 3.68887 24.3265 3.34167 24.6499 3.05945C25.4255 2.28801 26.4865 1.87279 27.5797 1.91302H38.0251C42.809 1.76417 46.8571 5.41876 47.1967 10.1928H27.3249C25.1439 9.96377 23.4915 8.11868 23.5035 5.92554C23.5015 5.29002 23.6317 4.66097 23.8856 4.07849ZM15.9879 11.0208C15.9879 10.384 16.8795 5.41596 21.8474 4.71547C21.7226 5.08485 21.6581 5.47203 21.6564 5.8619C21.678 8.42382 23.3108 10.6945 25.7327 11.5304C23.2787 14.3595 19.7327 16.005 15.9879 16.0525V11.0208ZM15.9879 25.8608V17.9631C15.9879 17.9631 15.9879 18.0905 16.0515 18.0905C18.4718 18.0905 23.5035 17.1988 27.7708 12.1035H43.3751V25.8608C43.413 31.6457 39.8604 36.8479 34.4583 38.9176C34.3947 38.9176 34.4583 38.9812 34.3947 38.9812C29.3586 40.8758 23.6784 39.5996 19.9368 35.7329C17.3257 33.1209 15.8986 29.5532 15.9879 25.8608ZM45.1585 55.5411C45.1337 56.2285 44.8624 56.8841 44.3943 57.3881C43.9085 57.8839 43.2413 58.1599 42.5472 58.1524C41.8722 58.1575 41.2257 57.8804 40.7638 57.3881C39.7614 56.3857 39.7614 54.7602 40.7638 53.7577C41.7663 52.7552 43.3917 52.7552 44.3943 53.7577C44.8533 54.2421 45.1243 54.8745 45.1585 55.5411Z" fill="black"/>
</g>
<defs>
<clipPath id="clip0">
<rect width="60" height="60" fill="white"/>
</clipPath>
</defs>
</svg>
