<svg width="60" height="60" viewBox="0 0 60 60" fill="none" xmlns="http://www.w3.org/2000/svg">
<path d="M57.1875 42.3844C48.5713 45.9678 39.3317 47.8125 30 47.8125C20.6683 47.8125 11.4287 45.9678 2.8125 42.3844V2.8125C11.4287 6.3959 20.6683 8.24064 30 8.24064C39.3317 8.24064 48.5713 6.3959 57.1875 2.8125V42.3844Z" fill="#57B7EB"/>
<path d="M28.7813 40.2562C23.8457 40.1628 19.1443 38.1345 15.6898 34.6081C12.2353 31.0817 10.3042 26.3396 10.3125 21.4031V5.46562C7.76447 4.72339 5.26047 3.8376 2.8125 2.8125V42.3844C11.4287 45.9678 20.6683 47.8125 30 47.8125C39.3317 47.8125 48.5713 45.9678 57.1875 42.3844V34.8844C48.1895 38.6115 38.5188 40.4403 28.7813 40.2562V40.2562Z" fill="#4891D3"/>
<path d="M12.1875 32.9626H9.375V30.1313H5.625V32.9626H2.8125V36.7313H5.625V39.5532H9.375V36.7313H12.1875V32.9626Z" fill="#FCBC04"/>
<path d="M50.625 32.9624H54.375V36.7312H50.625V32.9624Z" fill="#FCBC04"/>
<path d="M9.37501 10.3125L9.84376 9.84372C10.0271 9.65663 10.2459 9.508 10.4873 9.40654C10.7288 9.30507 10.9881 9.25281 11.25 9.25281C11.5119 9.25281 11.7712 9.30507 12.0127 9.40654C12.2542 9.508 12.473 9.65663 12.6563 9.84372C13.0272 10.2177 13.2354 10.7232 13.2354 11.25C13.2354 11.7768 13.0272 12.2822 12.6563 12.6562L9.37501 16.0031L6.09376 12.7031C5.72278 12.3291 5.51462 11.8236 5.51462 11.2968C5.51462 10.7701 5.72278 10.2646 6.09376 9.89059C6.27707 9.70351 6.49586 9.55488 6.73733 9.45341C6.9788 9.35195 7.23809 9.29968 7.50001 9.29968C7.76193 9.29968 8.02122 9.35195 8.26269 9.45341C8.50416 9.55488 8.72295 9.70351 8.90626 9.89059L9.37501 10.3125Z" fill="#FCBC04"/>
<path d="M54.375 32.9624H50.625V36.7124H52.0406C52.8187 36.4593 53.5969 36.1968 54.375 35.9155V32.9624Z" fill="#F9E109"/>
<path d="M12.6562 12.703C13.0272 12.329 13.2354 11.8236 13.2354 11.2968C13.2354 10.77 13.0272 10.2645 12.6562 9.89054C12.3551 9.58765 11.9636 9.39092 11.5408 9.33004C11.118 9.26916 10.6869 9.34743 10.3125 9.55304V15.0655L12.6562 12.703Z" fill="#F9E109"/>
<path d="M18.75 39.375H41.25C43.2391 39.375 45.1468 40.1652 46.5533 41.5717C47.9598 42.9782 48.75 44.8859 48.75 46.875V57.1875H11.25V46.875C11.25 44.8859 12.0402 42.9782 13.4467 41.5717C14.8532 40.1652 16.7609 39.375 18.75 39.375V39.375Z" fill="#A1D51C"/>
<path d="M34.6875 48.75L30 44.0625L36.5625 39.375L34.6875 48.75Z" fill="#7AB92D"/>
<path d="M22.5 48.75L30 44.0625L23.4375 39.375L22.5 48.75Z" fill="#7AB92D"/>
<path d="M28.125 52.5C25.6386 52.5 23.254 51.5123 21.4959 49.7541C19.7377 47.996 18.75 45.6114 18.75 43.125V39.375C16.7609 39.375 14.8532 40.1652 13.4467 41.5717C12.0402 42.9782 11.25 44.8859 11.25 46.875V57.1875H48.75V52.5H28.125Z" fill="#7AB92D"/>
<path d="M35.625 46.875L30 44.0625L36.5625 39.375L35.625 46.875Z" fill="#C4F236"/>
<path d="M24.375 46.875L30 44.0625L23.4375 39.375L24.375 46.875Z" fill="#C4F236"/>
<path d="M18.75 54.375C20.8211 54.375 22.5 52.6961 22.5 50.625C22.5 48.5539 20.8211 46.875 18.75 46.875C16.6789 46.875 15 48.5539 15 50.625C15 52.6961 16.6789 54.375 18.75 54.375Z" fill="#D0D8DA"/>
<path d="M36.5625 39.375L30 44.0625L23.4375 39.375V35.625H36.5625V39.375Z" fill="#E59730"/>
<path d="M20.625 20.625H39.375V30C39.375 32.4864 38.3873 34.871 36.6291 36.6291C34.871 38.3873 32.4864 39.375 30 39.375C27.5136 39.375 25.129 38.3873 23.3709 36.6291C21.6127 34.871 20.625 32.4864 20.625 30V20.625Z" fill="#F9E109"/>
<path d="M20.625 20.625V30C20.625 32.4864 21.6127 34.871 23.3709 36.6291C25.129 38.3873 27.5136 39.375 30 39.375C30.6296 39.3744 31.2577 39.3116 31.875 39.1875C30.2366 38.8512 28.7181 38.0827 27.4768 36.9618C26.2355 35.8408 25.3167 34.4082 24.8156 32.8125H26.25C26.5411 32.8125 26.8282 32.7447 27.0885 32.6145C27.3489 32.4844 27.5753 32.2954 27.75 32.0625L30 29.0625L32.25 32.0625C32.4246 32.2954 32.6511 32.4844 32.9115 32.6145C33.1718 32.7447 33.4589 32.8125 33.75 32.8125H38.9437C39.2311 31.9027 39.3765 30.9541 39.375 30V20.625H20.625Z" fill="#FCBC04"/>
<path d="M16.875 22.5V28.125C16.875 28.6223 17.0726 29.0992 17.4242 29.4508C17.7758 29.8025 18.2527 30 18.75 30H26.25C26.5411 30 26.8282 29.9322 27.0885 29.8021C27.3489 29.6719 27.5754 29.4829 27.75 29.25L30 26.25L32.25 29.25C32.4247 29.4829 32.6511 29.6719 32.9115 29.8021C33.1718 29.9322 33.4589 30 33.75 30H41.25C41.7473 30 42.2242 29.8025 42.5758 29.4508C42.9275 29.0992 43.125 28.6223 43.125 28.125V22.5C43.125 22.0027 42.9275 21.5258 42.5758 21.1742C42.2242 20.8225 41.7473 20.625 41.25 20.625H18.75C18.2527 20.625 17.7758 20.8225 17.4242 21.1742C17.0726 21.5258 16.875 22.0027 16.875 22.5Z" fill="#4891D3"/>
<path d="M18.75 20.625L27.5719 29.4469C27.6281 29.3812 27.6938 29.325 27.75 29.25L30 26.25L32.25 29.25C32.4247 29.4829 32.6511 29.6719 32.9115 29.8021C33.1718 29.9322 33.4589 30 33.75 30H41.25C41.7465 29.9979 42.2219 29.799 42.5719 29.4469L33.75 20.625H18.75Z" fill="#57B7EB"/>
<path d="M16.875 13.125H33.75C35.2419 13.125 36.6726 13.7176 37.7275 14.7725C38.7824 15.8274 39.375 17.2582 39.375 18.75V20.625H21.5625C20.3193 20.625 19.127 20.1311 18.248 19.2521C17.3689 18.373 16.875 17.1807 16.875 15.9375V13.125Z" fill="#C4F236"/>
<path d="M25.3125 16.875C24.318 16.875 23.3641 16.4799 22.6609 15.7766C21.9576 15.0734 21.5625 14.1196 21.5625 13.125H16.875V15.9375C16.875 17.1807 17.3689 18.373 18.248 19.2521C19.127 20.1311 20.3193 20.625 21.5625 20.625H39.375V18.75C39.373 18.1109 39.262 17.4768 39.0469 16.875H25.3125Z" fill="#A1D51C"/>
<path d="M21.5625 52.5C20.5679 52.5 19.6141 52.1049 18.9109 51.4016C18.2076 50.6984 17.8125 49.7446 17.8125 48.75C17.8077 48.0918 17.9793 47.4444 18.3094 46.875C17.6771 46.9537 17.0752 47.1921 16.5606 47.5679C16.046 47.9437 15.6357 48.4445 15.3683 49.0228C15.101 49.6012 14.9854 50.2382 15.0325 50.8737C15.0797 51.5091 15.2879 52.1221 15.6377 52.6547C15.9874 53.1873 16.4671 53.622 17.0315 53.9178C17.5959 54.2136 18.2264 54.3607 18.8634 54.3452C19.5004 54.3297 20.1229 54.1522 20.6723 53.8293C21.2216 53.5065 21.6797 53.049 22.0031 52.5C21.8564 52.5092 21.7092 52.5092 21.5625 52.5V52.5Z" fill="#93999A"/>
<path d="M18.75 51.5625C19.2678 51.5625 19.6875 51.1428 19.6875 50.625C19.6875 50.1072 19.2678 49.6875 18.75 49.6875C18.2322 49.6875 17.8125 50.1072 17.8125 50.625C17.8125 51.1428 18.2322 51.5625 18.75 51.5625Z" fill="#1F2D51"/>
<path d="M41.25 38.4375H40.7437C40.1104 37.4918 39.2944 36.6821 38.3438 36.0562C38.783 35.4555 39.154 34.8078 39.45 34.125C39.5071 34.0112 39.5403 33.887 39.5478 33.76C39.5553 33.6329 39.5369 33.5057 39.4936 33.386C39.4503 33.2663 39.3832 33.1567 39.2961 33.0638C39.2091 32.9709 39.1041 32.8967 38.9875 32.8457C38.8709 32.7948 38.7451 32.7681 38.6178 32.7673C38.4906 32.7665 38.3645 32.7916 38.2472 32.8411C38.13 32.8906 38.024 32.9635 37.9359 33.0553C37.8477 33.1471 37.7791 33.2559 37.7344 33.375C36.9905 35.0765 35.706 36.4851 34.0801 37.3823C32.4542 38.2796 30.5778 38.6154 28.7416 38.3376C26.9055 38.0599 25.2122 37.1842 23.9244 35.8463C22.6366 34.5083 21.8262 32.7829 21.6187 30.9375H26.25C26.9846 30.9319 27.6878 30.6392 28.2094 30.1219C28.2094 30.1219 28.2094 30.1219 28.2094 30.1219C28.2985 30.039 28.383 29.9514 28.4625 29.8594L30 27.8156L31.5 29.8125C31.762 30.1618 32.1017 30.4453 32.4922 30.6406C32.8827 30.8358 33.3134 30.9375 33.75 30.9375H41.25C41.9959 30.9375 42.7113 30.6412 43.2387 30.1137C43.7662 29.5863 44.0625 28.8709 44.0625 28.125V22.5C44.0625 21.7541 43.7662 21.0387 43.2387 20.5113C42.7113 19.9838 41.9959 19.6875 41.25 19.6875H40.3125V18.75C40.3125 17.0095 39.6211 15.3403 38.3904 14.1096C37.1597 12.8789 35.4905 12.1875 33.75 12.1875H16.875C16.6264 12.1875 16.3879 12.2863 16.2121 12.4621C16.0363 12.6379 15.9375 12.8764 15.9375 13.125V15.9375C15.9381 16.6804 16.0859 17.4158 16.3724 18.1013C16.6588 18.7868 17.0781 19.4087 17.6063 19.9313C17.1096 20.1523 16.6876 20.5126 16.3915 20.9685C16.0953 21.4244 15.9376 21.9564 15.9375 22.5V28.125C15.9375 28.8709 16.2338 29.5863 16.7613 30.1137C17.2887 30.6412 18.0041 30.9375 18.75 30.9375H19.7344C19.9055 32.7865 20.5728 34.555 21.6656 36.0562C20.712 36.6818 19.8929 37.4913 19.2563 38.4375H18.75C16.5122 38.4375 14.3661 39.3264 12.7838 40.9088C11.2014 42.4911 10.3125 44.6372 10.3125 46.875V57.1875C10.3125 57.4361 10.4113 57.6746 10.5871 57.8504C10.7629 58.0262 11.0014 58.125 11.25 58.125C11.4986 58.125 11.7371 58.0262 11.9129 57.8504C12.0887 57.6746 12.1875 57.4361 12.1875 57.1875V46.875C12.1837 45.2082 12.8143 43.6025 13.9513 42.3837C15.0883 41.1649 16.6464 40.4244 18.3094 40.3125C17.9864 41.2153 17.8184 42.1662 17.8125 43.125V46.0312C16.6743 46.2636 15.663 46.9102 14.9745 47.8459C14.286 48.7815 13.9695 49.9394 14.0862 51.0952C14.203 52.2509 14.7447 53.3222 15.6064 54.1012C16.4681 54.8802 17.5884 55.3115 18.75 55.3115C19.9116 55.3115 21.0319 54.8802 21.8936 54.1012C22.7553 53.3222 23.297 52.2509 23.4138 51.0952C23.5305 49.9394 23.214 48.7815 22.5255 47.8459C21.837 46.9102 20.8257 46.2636 19.6875 46.0312V43.125C19.6918 42.1511 19.9127 41.1904 20.3344 40.3125H22.6125L23.4375 46.9875C23.4557 47.1366 23.5095 47.2792 23.5944 47.4032C23.6792 47.5272 23.7926 47.629 23.925 47.7C24.0632 47.7746 24.2179 47.8133 24.375 47.8125C24.5218 47.8116 24.6663 47.7763 24.7969 47.7094L29.0625 45.5812V56.25C29.0625 56.4986 29.1613 56.7371 29.3371 56.9129C29.5129 57.0887 29.7514 57.1875 30 57.1875C30.2486 57.1875 30.4871 57.0887 30.6629 56.9129C30.8387 56.7371 30.9375 56.4986 30.9375 56.25V45.5812L35.2031 47.7094C35.3337 47.7763 35.4782 47.8116 35.625 47.8125C35.7789 47.8117 35.9302 47.7731 36.0656 47.7C36.198 47.629 36.3114 47.5272 36.3963 47.4032C36.4811 47.2792 36.5349 47.1366 36.5531 46.9875L37.3875 40.3125H39.6656C40.0873 41.1904 40.3082 42.1511 40.3125 43.125V46.0312C39.2537 46.2474 38.3021 46.8227 37.6188 47.6598C36.9354 48.4969 36.5623 49.5444 36.5625 50.625V53.4375C36.5625 53.6861 36.6613 53.9246 36.8371 54.1004C37.0129 54.2762 37.2514 54.375 37.5 54.375H39.375C39.6236 54.375 39.8621 54.2762 40.0379 54.1004C40.2137 53.9246 40.3125 53.6861 40.3125 53.4375C40.3125 53.1889 40.2137 52.9504 40.0379 52.7746C39.8621 52.5988 39.6236 52.5 39.375 52.5H38.4375V50.625C38.4375 49.8791 38.7338 49.1637 39.2613 48.6363C39.7887 48.1088 40.5041 47.8125 41.25 47.8125C41.9959 47.8125 42.7113 48.1088 43.2387 48.6363C43.7662 49.1637 44.0625 49.8791 44.0625 50.625V52.5H43.125C42.8764 52.5 42.6379 52.5988 42.4621 52.7746C42.2863 52.9504 42.1875 53.1889 42.1875 53.4375C42.1875 53.6861 42.2863 53.9246 42.4621 54.1004C42.6379 54.2762 42.8764 54.375 43.125 54.375H45C45.2486 54.375 45.4871 54.2762 45.6629 54.1004C45.8387 53.9246 45.9375 53.6861 45.9375 53.4375V50.625C45.9377 49.5444 45.5646 48.4969 44.8812 47.6598C44.1979 46.8227 43.2463 46.2474 42.1875 46.0312V43.125C42.1816 42.1662 42.0136 41.2153 41.6906 40.3125C43.3536 40.4244 44.9118 41.1649 46.0487 42.3837C47.1857 43.6025 47.8163 45.2082 47.8125 46.875V57.1875C47.8125 57.4361 47.9113 57.6746 48.0871 57.8504C48.2629 58.0262 48.5014 58.125 48.75 58.125C48.9986 58.125 49.2371 58.0262 49.4129 57.8504C49.5887 57.6746 49.6875 57.4361 49.6875 57.1875V46.875C49.6875 44.6372 48.7986 42.4911 47.2162 40.9088C45.6339 39.3264 43.4878 38.4375 41.25 38.4375V38.4375ZM17.8125 14.0625H33.75C34.3656 14.0625 34.9751 14.1837 35.5438 14.4193C36.1125 14.6549 36.6293 15.0002 37.0646 15.4354C37.4998 15.8707 37.8451 16.3875 38.0807 16.9562C38.3163 17.5249 38.4375 18.1344 38.4375 18.75V19.6875H21.5625C20.5679 19.6875 19.6141 19.2924 18.9109 18.5891C18.2076 17.8859 17.8125 16.9321 17.8125 15.9375V14.0625ZM17.8125 28.125V22.5C17.8125 22.2514 17.9113 22.0129 18.0871 21.8371C18.2629 21.6613 18.5014 21.5625 18.75 21.5625H33.3656L38.7094 26.9156C38.7965 27.0035 38.9002 27.0732 39.0145 27.1208C39.1287 27.1684 39.2512 27.1929 39.375 27.1929C39.4988 27.1929 39.6213 27.1684 39.7355 27.1208C39.8498 27.0732 39.9535 27.0035 40.0406 26.9156C40.1285 26.8285 40.1982 26.7248 40.2458 26.6105C40.2934 26.4963 40.3179 26.3738 40.3179 26.25C40.3179 26.1262 40.2934 26.0037 40.2458 25.8895C40.1982 25.7752 40.1285 25.6715 40.0406 25.5844L36.0094 21.5625H41.25C41.4986 21.5625 41.7371 21.6613 41.9129 21.8371C42.0887 22.0129 42.1875 22.2514 42.1875 22.5V28.125C42.1875 28.3736 42.0887 28.6121 41.9129 28.7879C41.7371 28.9637 41.4986 29.0625 41.25 29.0625H33.75C33.6045 29.0625 33.4609 29.0286 33.3307 28.9635C33.2006 28.8984 33.0873 28.8039 33 28.6875L30.75 25.6875C30.6627 25.5711 30.5494 25.4766 30.4193 25.4115C30.2891 25.3464 30.1455 25.3125 30 25.3125C29.8545 25.3125 29.7109 25.3464 29.5807 25.4115C29.4506 25.4766 29.3373 25.5711 29.25 25.6875L27.4875 28.0406L23.1656 23.7094C22.9891 23.5328 22.7497 23.4337 22.5 23.4337C22.2503 23.4337 22.0109 23.5328 21.8344 23.7094C21.6578 23.8859 21.5587 24.1253 21.5587 24.375C21.5587 24.6247 21.6578 24.8641 21.8344 25.0406L25.8656 29.0625H18.75C18.5014 29.0625 18.2629 28.9637 18.0871 28.7879C17.9113 28.6121 17.8125 28.3736 17.8125 28.125V28.125ZM21.5625 50.625C21.5625 51.1813 21.3976 51.725 21.0885 52.1875C20.7795 52.6501 20.3402 53.0105 19.8263 53.2234C19.3124 53.4363 18.7469 53.492 18.2013 53.3835C17.6557 53.2749 17.1546 53.0071 16.7613 52.6137C16.3679 52.2204 16.1001 51.7193 15.9915 51.1737C15.883 50.6281 15.9387 50.0626 16.1516 49.5487C16.3645 49.0348 16.7249 48.5955 17.1875 48.2865C17.65 47.9775 18.1937 47.8125 18.75 47.8125C19.4959 47.8125 20.2113 48.1088 20.7387 48.6363C21.2662 49.1637 21.5625 49.8791 21.5625 50.625ZM22.5 37.7625V38.4375H21.6937C21.9431 38.1903 22.2128 37.9645 22.5 37.7625V37.7625ZM25.1437 45.4406L24.6375 41.3812L28.1906 43.9219L25.1437 45.4406ZM34.8563 45.4406L31.8094 43.9219L35.3625 41.3812L34.8563 45.4406ZM30 42.9094L24.375 38.8969V38.6344C26.0488 39.7237 28.0029 40.3036 30 40.3036C31.9971 40.3036 33.9512 39.7237 35.625 38.6344V38.8875L30 42.9094ZM37.5 38.4375V37.7625C37.7872 37.9645 38.0569 38.1903 38.3063 38.4375H37.5Z" fill="#1F2D51"/>
<path d="M7.80001 43.0219C6.25314 42.5156 4.98752 42.0844 3.75002 41.5594V40.3125C3.75002 40.0639 3.65124 39.8254 3.47543 39.6496C3.29961 39.4738 3.06116 39.375 2.81252 39.375C2.56387 39.375 2.32542 39.4738 2.1496 39.6496C1.97379 39.8254 1.87502 40.0639 1.87502 40.3125V42.1875C1.87594 42.3726 1.93163 42.5533 2.03507 42.7067C2.1385 42.8602 2.28506 42.9797 2.45627 43.05C3.86252 43.6406 5.37189 44.1937 7.20002 44.8031C7.2965 44.8362 7.39804 44.852 7.50002 44.85C7.70445 44.8607 7.90676 44.8041 8.07605 44.689C8.24533 44.5739 8.37228 44.4065 8.43752 44.2125C8.4763 44.0925 8.49048 43.966 8.47921 43.8404C8.46794 43.7148 8.43146 43.5928 8.37194 43.4816C8.31243 43.3705 8.2311 43.2725 8.13283 43.1935C8.03456 43.1145 7.92136 43.0561 7.80001 43.0219V43.0219Z" fill="#1F2D51"/>
<path d="M57.7125 2.03435C57.5839 1.94878 57.4362 1.89631 57.2825 1.88159C57.1287 1.86687 56.9737 1.89036 56.8312 1.94997C48.3292 5.49148 39.2102 7.31481 30 7.31481C20.7898 7.31481 11.6708 5.49148 3.16875 1.94997C3.02628 1.89036 2.87128 1.86687 2.71754 1.88159C2.5638 1.89631 2.41608 1.94878 2.2875 2.03435C2.16027 2.12034 2.05612 2.23628 1.98419 2.37195C1.91227 2.50763 1.87477 2.65891 1.875 2.81247V28.125C1.875 28.3736 1.97377 28.6121 2.14959 28.7879C2.3254 28.9637 2.56386 29.0625 2.8125 29.0625C3.06114 29.0625 3.2996 28.9637 3.47541 28.7879C3.65123 28.6121 3.75 28.3736 3.75 28.125V4.19997C20.6171 10.856 39.3829 10.856 56.25 4.19997V7.49997C56.25 7.74861 56.3488 7.98707 56.5246 8.16288C56.7004 8.3387 56.9389 8.43747 57.1875 8.43747C57.4361 8.43747 57.6746 8.3387 57.8504 8.16288C58.0262 7.98707 58.125 7.74861 58.125 7.49997V2.81247C58.1252 2.65891 58.0877 2.50763 58.0158 2.37195C57.9439 2.23628 57.8397 2.12034 57.7125 2.03435Z" fill="#1F2D51"/>
<path d="M57.1875 20.625C56.9388 20.625 56.7004 20.7238 56.5246 20.8996C56.3488 21.0754 56.25 21.3139 56.25 21.5625V40.6219C55.05 41.1 53.7469 41.5594 52.2 42.0844C52.0828 42.1235 51.9746 42.1854 51.8815 42.2665C51.7883 42.3476 51.7121 42.4463 51.6572 42.5569C51.6023 42.6676 51.5699 42.788 51.5616 42.9112C51.5534 43.0344 51.5696 43.1581 51.6094 43.275C51.6746 43.469 51.8015 43.6364 51.9708 43.7515C52.1401 43.8666 52.3424 43.9232 52.5469 43.9125C52.6488 43.9145 52.7504 43.8987 52.8469 43.8656C54.7219 43.2562 56.1844 42.6937 57.5906 42.1125C57.753 42.0352 57.8898 41.9127 57.9846 41.7598C58.0793 41.6068 58.1281 41.4299 58.125 41.25V21.5625C58.125 21.3139 58.0262 21.0754 57.8504 20.8996C57.6746 20.7238 57.4361 20.625 57.1875 20.625V20.625Z" fill="#1F2D51"/>
<path d="M10.3125 37.5H12.1875C12.4362 37.5 12.6746 37.4012 12.8504 37.2254C13.0262 37.0496 13.125 36.8111 13.125 36.5625V32.8125C13.125 32.5639 13.0262 32.3254 12.8504 32.1496C12.6746 31.9738 12.4362 31.875 12.1875 31.875H10.3125V30C10.3125 29.7514 10.2137 29.5129 10.0379 29.3371C9.86211 29.1613 9.62366 29.0625 9.37502 29.0625H5.62502C5.37637 29.0625 5.13792 29.1613 4.9621 29.3371C4.78629 29.5129 4.68752 29.7514 4.68752 30V31.875H2.81252C2.56387 31.875 2.32542 31.9738 2.1496 32.1496C1.97379 32.3254 1.87502 32.5639 1.87502 32.8125V36.5625C1.87502 36.8111 1.97379 37.0496 2.1496 37.2254C2.32542 37.4012 2.56387 37.5 2.81252 37.5H4.68752V39.375C4.68752 39.6236 4.78629 39.8621 4.9621 40.0379C5.13792 40.2137 5.37637 40.3125 5.62502 40.3125H9.37502C9.62366 40.3125 9.86211 40.2137 10.0379 40.0379C10.2137 39.8621 10.3125 39.6236 10.3125 39.375V37.5ZM9.37502 35.625C9.12637 35.625 8.88792 35.7238 8.7121 35.8996C8.53629 36.0754 8.43752 36.3139 8.43752 36.5625V38.4375H6.56252V36.5625C6.56252 36.3139 6.46374 36.0754 6.28793 35.8996C6.11211 35.7238 5.87366 35.625 5.62502 35.625H3.75002V33.75H5.62502C5.87366 33.75 6.11211 33.6512 6.28793 33.4754C6.46374 33.2996 6.56252 33.0611 6.56252 32.8125V30.9375H8.43752V32.8125C8.43752 33.0611 8.53629 33.2996 8.7121 33.4754C8.88792 33.6512 9.12637 33.75 9.37502 33.75H11.25V35.625H9.37502Z" fill="#1F2D51"/>
<path d="M53.4375 24.375C53.6861 24.375 53.9246 24.2762 54.1004 24.1004C54.2762 23.9246 54.375 23.6861 54.375 23.4375C54.375 23.1889 54.2762 22.9504 54.1004 22.7746C53.9246 22.5988 53.6861 22.5 53.4375 22.5H48.75C48.5014 22.5 48.2629 22.5988 48.0871 22.7746C47.9113 22.9504 47.8125 23.1889 47.8125 23.4375C47.8125 23.6861 47.9113 23.9246 48.0871 24.1004C48.2629 24.2762 48.5014 24.375 48.75 24.375H53.4375Z" fill="#1F2D51"/>
<path d="M45.9375 28.125C45.9375 28.3736 46.0363 28.6121 46.2121 28.7879C46.3879 28.9637 46.6264 29.0625 46.875 29.0625H53.4375C53.6861 29.0625 53.9246 28.9637 54.1004 28.7879C54.2762 28.6121 54.375 28.3736 54.375 28.125C54.375 27.8764 54.2762 27.6379 54.1004 27.4621C53.9246 27.2863 53.6861 27.1875 53.4375 27.1875H46.875C46.6264 27.1875 46.3879 27.2863 46.2121 27.4621C46.0363 27.6379 45.9375 27.8764 45.9375 28.125Z" fill="#1F2D51"/>
<path d="M55.3125 36.5625V32.8125C55.3125 32.5639 55.2137 32.3254 55.0379 32.1496C54.8621 31.9738 54.6236 31.875 54.375 31.875H50.625C50.3764 31.875 50.1379 31.9738 49.9621 32.1496C49.7863 32.3254 49.6875 32.5639 49.6875 32.8125V36.5625C49.6875 36.8111 49.7863 37.0496 49.9621 37.2254C50.1379 37.4012 50.3764 37.5 50.625 37.5H54.375C54.6236 37.5 54.8621 37.4012 55.0379 37.2254C55.2137 37.0496 55.3125 36.8111 55.3125 36.5625ZM53.4375 35.625H51.5625V33.75H53.4375V35.625Z" fill="#1F2D51"/>
<path d="M51.5625 7.5C50.2646 7.5 48.9958 7.88488 47.9166 8.60598C46.8374 9.32708 45.9962 10.352 45.4995 11.5511C45.0028 12.7503 44.8729 14.0698 45.1261 15.3428C45.3793 16.6158 46.0043 17.7851 46.9221 18.7029C47.8399 19.6207 49.0092 20.2457 50.2822 20.4989C51.5552 20.7521 52.8747 20.6222 54.0739 20.1255C55.273 19.6288 56.2979 18.7876 57.019 17.7084C57.7401 16.6292 58.125 15.3604 58.125 14.0625C58.125 12.322 57.4336 10.6528 56.2029 9.42211C54.9722 8.1914 53.303 7.5 51.5625 7.5V7.5ZM56.1563 13.125H54.375C54.3329 12.0647 54.1629 11.0133 53.8688 9.99375C54.4514 10.3223 54.9569 10.7717 55.3515 11.3117C55.746 11.8518 56.0204 12.4701 56.1563 13.125V13.125ZM50.625 15H52.5C52.4986 16.281 52.1763 17.5412 51.5625 18.6656C50.9488 17.5412 50.6264 16.281 50.625 15V15ZM50.625 13.125C50.6264 11.844 50.9488 10.5838 51.5625 9.45938C52.1763 10.5838 52.4986 11.844 52.5 13.125H50.625ZM49.2563 9.99375C48.9621 11.0133 48.7921 12.0647 48.75 13.125H46.9688C47.1077 12.4676 47.3865 11.8478 47.786 11.3075C48.1855 10.7673 48.6965 10.3192 49.2844 9.99375H49.2563ZM46.9688 15H48.75C48.7921 16.0603 48.9621 17.1117 49.2563 18.1313C48.6736 17.8027 48.1681 17.3533 47.7735 16.8133C47.379 16.2732 47.1046 15.6549 46.9688 15V15ZM53.8406 18.1313C54.1443 17.1129 54.3238 16.0615 54.375 15H56.1563C56.0173 15.6574 55.7385 16.2772 55.339 16.8175C54.9395 17.3577 54.4285 17.8058 53.8406 18.1313Z" fill="#1F2D51"/>
<path d="M9.375 9.00001C8.80189 8.47662 8.04433 8.20234 7.26898 8.2375C6.49364 8.27267 5.76402 8.6144 5.24063 9.18751C4.71724 9.76063 4.44296 10.5182 4.47812 11.2935C4.51328 12.0689 4.85501 12.7985 5.42813 13.3219L8.70938 16.6031C8.79653 16.691 8.90022 16.7608 9.01446 16.8083C9.12871 16.8559 9.25124 16.8804 9.375 16.8804C9.49876 16.8804 9.6213 16.8559 9.73554 16.8083C9.84979 16.7608 9.95348 16.691 10.0406 16.6031L13.3219 13.3219C13.895 12.7985 14.2367 12.0689 14.2719 11.2935C14.307 10.5182 14.0328 9.76063 13.5094 9.18751C12.986 8.6144 12.2564 8.27267 11.481 8.2375C10.7057 8.20234 9.94812 8.47662 9.375 9.00001V9.00001ZM11.9906 11.9906L9.375 14.6156L6.75938 11.9906C6.65057 11.8962 6.56237 11.7803 6.50028 11.6502C6.43818 11.5202 6.40352 11.3788 6.39846 11.2347C6.39339 11.0907 6.41802 10.9472 6.47081 10.8131C6.52361 10.679 6.60344 10.5573 6.70534 10.4554C6.80724 10.3535 6.92903 10.2736 7.06311 10.2208C7.1972 10.168 7.34072 10.1434 7.48474 10.1485C7.62876 10.1535 7.77019 10.1882 7.90023 10.2503C8.03027 10.3124 8.14615 10.4006 8.24063 10.5094L8.70938 10.9781C8.79653 11.066 8.90022 11.1358 9.01446 11.1833C9.12871 11.2309 9.25124 11.2554 9.375 11.2554C9.49876 11.2554 9.6213 11.2309 9.73554 11.1833C9.84979 11.1358 9.95348 11.066 10.0406 10.9781L10.5094 10.5094C10.71 10.3352 10.9692 10.2435 11.2347 10.2529C11.5003 10.2622 11.7524 10.3719 11.9403 10.5597C12.1281 10.7476 12.2378 10.9997 12.2472 11.2653C12.2565 11.5308 12.1648 11.79 11.9906 11.9906V11.9906Z" fill="#1F2D51"/>
<path d="M13.2281 18.3281L12.1875 20.4L11.1469 18.3281C11.0682 18.1745 10.9487 18.0456 10.8015 17.9557C10.6542 17.8657 10.485 17.818 10.3125 17.818C10.14 17.818 9.97076 17.8657 9.82355 17.9557C9.67633 18.0456 9.5568 18.1745 9.47813 18.3281L8.325 20.625L7.34063 19.1718C7.25063 19.0346 7.1262 18.9235 6.97978 18.8495C6.83337 18.7754 6.67008 18.7411 6.50625 18.75C6.34281 18.7604 6.18498 18.8136 6.04845 18.904C5.91193 18.9945 5.80149 19.1192 5.72813 19.2656L4.79063 21.1406C4.72416 21.251 4.68119 21.374 4.6644 21.5018C4.64761 21.6297 4.65737 21.7596 4.69306 21.8835C4.72874 22.0073 4.7896 22.1225 4.87182 22.2218C4.95404 22.3211 5.05585 22.4024 5.1709 22.4606C5.28595 22.5187 5.41176 22.5526 5.54047 22.5599C5.66918 22.5673 5.79802 22.548 5.91894 22.5033C6.03986 22.4586 6.15027 22.3894 6.24326 22.3001C6.33625 22.2109 6.40982 22.1033 6.45938 21.9843L6.675 21.5625L7.6125 23.025C7.7028 23.159 7.82621 23.2674 7.97076 23.3397C8.11532 23.412 8.2761 23.4456 8.4375 23.4375H8.49375C8.65719 23.427 8.81503 23.3738 8.95155 23.2834C9.08807 23.1929 9.19852 23.0683 9.27188 22.9218L10.3125 20.85L11.3531 22.9218C11.4318 23.0754 11.5513 23.2043 11.6985 23.2943C11.8458 23.3842 12.015 23.4319 12.1875 23.4319C12.36 23.4319 12.5292 23.3842 12.6765 23.2943C12.8237 23.2043 12.9432 23.0754 13.0219 22.9218L14.8969 19.1718C14.9633 19.0614 15.0063 18.9384 15.0231 18.8106C15.0399 18.6827 15.0301 18.5528 14.9945 18.429C14.9588 18.3051 14.8979 18.1899 14.8157 18.0906C14.7335 17.9913 14.6317 17.91 14.5166 17.8518C14.4016 17.7937 14.2757 17.7599 14.147 17.7525C14.0183 17.7452 13.8895 17.7644 13.7686 17.8091C13.6476 17.8538 13.5372 17.923 13.4442 18.0123C13.3513 18.1016 13.2777 18.2091 13.2281 18.3281V18.3281Z" fill="#1F2D51"/>
</svg>
