<svg width="55" height="54" viewBox="0 0 55 54" fill="none" xmlns="http://www.w3.org/2000/svg">
<ellipse cx="27.3442" cy="26.8464" rx="26.793" ry="26.8464" fill="white"/>
<path d="M48.3629 27.7722C48.3629 16.1396 38.9538 6.71167 27.3442 6.71167C15.7347 6.71167 6.32556 16.1396 6.32556 27.7722C6.32556 39.4049 15.7347 48.8328 27.3442 48.8328C27.4674 48.8328 27.5905 48.8328 27.7137 48.8245V32.4368H23.198V27.1634H27.7137V23.2804C27.7137 18.7803 30.456 16.3288 34.4627 16.3288C36.3839 16.3288 38.0342 16.4686 38.5104 16.5344V21.2402H35.7517C33.5759 21.2402 33.149 22.2767 33.149 23.7987V27.1552H38.3626L37.6812 32.4286H33.149V48.0183C41.9342 45.4927 48.3629 37.3893 48.3629 27.7722Z" fill="black"/>
</svg>
