<svg width="54" height="54" viewBox="0 0 54 54" fill="none" xmlns="http://www.w3.org/2000/svg">
<ellipse cx="26.9986" cy="26.8464" rx="26.793" ry="26.8464" fill="white"/>
<path d="M30.1794 26.7307C30.1794 28.4269 28.8069 29.8021 27.114 29.8021C25.4211 29.8021 24.0486 28.4269 24.0486 26.7307C24.0486 25.0345 25.4211 23.6592 27.114 23.6592C28.8069 23.6592 30.1794 25.0345 30.1794 26.7307Z" fill="black"/>
<path d="M32.2912 17.448H21.937C19.6832 17.448 17.8499 19.285 17.8499 21.5433V31.9181C17.8499 34.1763 19.6832 36.0134 21.937 36.0134H32.2912C34.545 36.0134 36.3783 34.1763 36.3783 31.9181V21.5433C36.3783 19.285 34.545 17.448 32.2912 17.448ZM27.1141 31.8498C24.297 31.8498 22.0051 29.5534 22.0051 26.7307C22.0051 23.908 24.297 21.6116 27.1141 21.6116C29.9312 21.6116 32.223 23.908 32.223 26.7307C32.223 29.5534 29.9312 31.8498 27.1141 31.8498ZM32.9724 21.8846C32.408 21.8846 31.9506 21.4263 31.9506 20.8607C31.9506 20.2952 32.408 19.8369 32.9724 19.8369C33.5367 19.8369 33.9941 20.2952 33.9941 20.8607C33.9941 21.4263 33.5367 21.8846 32.9724 21.8846Z" fill="black"/>
<path d="M35.3565 9.25739H18.8716C13.801 9.25739 9.67548 13.3911 9.67548 18.4718V34.9895C9.67548 40.0703 13.801 44.204 18.8716 44.204H35.3565C40.4272 44.204 44.5526 40.0703 44.5526 34.9895V18.4718C44.5526 13.3911 40.4272 9.25739 35.3565 9.25739ZM38.4219 31.9181C38.4219 35.3052 35.6716 38.061 32.2911 38.061H21.937C18.5566 38.061 15.8062 35.3052 15.8062 31.9181V21.5433C15.8062 18.1561 18.5566 15.4003 21.937 15.4003H32.2911C35.6716 15.4003 38.4219 18.1561 38.4219 21.5433V31.9181Z" fill="black"/>
</svg>
