<svg width="55" height="54" viewBox="0 0 55 54" fill="none" xmlns="http://www.w3.org/2000/svg">
<ellipse cx="27.7475" cy="26.8464" rx="26.793" ry="26.8464" fill="white"/>
<path d="M27.7475 7.40594C16.5236 7.40594 7.42175 16.5259 7.42175 27.7722C7.42175 39.0184 16.5236 48.1384 27.7475 48.1384C38.9714 48.1384 48.0732 39.0184 48.0732 27.7722C48.0732 16.5259 38.9714 7.40594 27.7475 7.40594ZM21.8411 38.194H16.8908V23.2714H21.8411V38.194ZM19.3661 21.2337H19.3338C17.6727 21.2337 16.5984 20.0879 16.5984 18.6559C16.5984 17.1916 17.7056 16.0775 19.399 16.0775C21.0924 16.0775 22.1345 17.1916 22.1667 18.6559C22.1667 20.0879 21.0924 21.2337 19.3661 21.2337ZM39.6906 38.194H34.741V30.2108C34.741 28.2045 34.0242 26.8362 32.2331 26.8362C30.8657 26.8362 30.0513 27.7591 29.6934 28.6501C29.5625 28.9689 29.5305 29.4146 29.5305 29.8605V38.194H24.5806C24.5806 38.194 24.6454 24.6714 24.5806 23.2714H29.5305V25.3843C30.1883 24.3675 31.3654 22.9212 33.9917 22.9212C37.2485 22.9212 39.6906 25.0539 39.6906 29.6374V38.194Z" fill="black"/>
</svg>
