<svg width="54" height="54" viewBox="0 0 54 54" fill="none" xmlns="http://www.w3.org/2000/svg">
<ellipse cx="27.0931" cy="26.8464" rx="26.793" ry="26.8464" fill="white"/>
<path d="M27.0931 5.5545C15.3591 5.5545 5.84348 15.089 5.84348 26.8465C5.84348 38.6039 15.3591 48.1384 27.0931 48.1384C38.8272 48.1384 48.3427 38.6039 48.3427 26.8465C48.3427 15.089 38.8272 5.5545 27.0931 5.5545ZM36.7955 22.1557C36.8049 22.3653 36.8094 22.5758 36.8094 22.7873C36.8094 29.2451 31.9036 36.6919 22.9321 36.6922H22.9324H22.9321C20.1776 36.6922 17.6145 35.8833 15.456 34.497C15.8376 34.5421 16.2261 34.5645 16.6194 34.5645C18.9047 34.5645 21.0077 33.7835 22.6772 32.4726C20.5421 32.4329 18.7419 31.02 18.1206 29.0781C18.418 29.1353 18.7237 29.1665 19.0373 29.1665C19.4825 29.1665 19.9137 29.1064 20.3235 28.9943C18.0918 28.5466 16.4106 26.5703 16.4106 24.2038C16.4106 24.1817 16.4106 24.1619 16.4112 24.1414C17.0685 24.5076 17.8201 24.7279 18.6203 24.7526C17.3107 23.877 16.4498 22.3802 16.4498 20.6846C16.4498 19.7892 16.6914 18.9504 17.1103 18.2281C19.5155 21.1853 23.1101 23.1301 27.1638 23.3344C27.0801 22.9764 27.037 22.6034 27.037 22.22C27.037 19.5222 29.2214 17.3334 31.9149 17.3334C33.3179 17.3334 34.5851 17.9276 35.4751 18.8776C36.5863 18.6579 37.6297 18.2512 38.5723 17.6914C38.2075 18.8321 37.4345 19.7892 36.4274 20.3945C37.4141 20.2762 38.3544 20.014 39.2282 19.6248C38.5755 20.605 37.7478 21.466 36.7955 22.1557Z" fill="black"/>
</svg>
