<svg width="54" height="54" viewBox="0 0 54 54" fill="none" xmlns="http://www.w3.org/2000/svg">
<ellipse cx="26.793" cy="26.8464" rx="26.793" ry="26.8464" fill="white"/>
<path d="M24.4627 30.3584L30.5485 26.8464L24.4627 23.3344V30.3584Z" fill="black"/>
<path d="M26.793 8.10016C16.462 8.10016 8.08411 16.4947 8.08411 26.8464C8.08411 37.198 16.462 45.5926 26.793 45.5926C37.1241 45.5926 45.502 37.198 45.502 26.8464C45.502 16.4947 37.1241 8.10016 26.793 8.10016ZM38.4833 26.8655C38.4833 26.8655 38.4833 30.6674 38.0019 32.5006C37.7322 33.5041 36.9425 34.2953 35.9411 34.5653C34.1115 35.0478 26.793 35.0478 26.793 35.0478C26.793 35.0478 19.4937 35.0478 17.645 34.5461C16.6435 34.2761 15.8539 33.4846 15.5841 32.4812C15.1025 30.6674 15.1025 26.8464 15.1025 26.8464C15.1025 26.8464 15.1025 23.0448 15.5841 21.2116C15.8536 20.2081 16.6626 19.3975 17.645 19.1275C19.4746 18.6449 26.793 18.6449 26.793 18.6449C26.793 18.6449 34.1115 18.6449 35.9411 19.1466C36.9425 19.4167 37.7322 20.2081 38.0019 21.2116C38.5027 23.0448 38.4833 26.8655 38.4833 26.8655Z" fill="black"/>
</svg>
