<svg width="283" height="112" viewBox="0 0 283 112" fill="none" xmlns="http://www.w3.org/2000/svg">
<path d="M3.78 12.12C3.27333 12.12 2.80667 12 2.38 11.76C1.95333 11.5067 1.61333 11.1667 1.36 10.74C1.12 10.3133 1 9.84667 1 9.34C1 8.82 1.12 8.34667 1.36 7.92C1.61333 7.49333 1.95333 7.16 2.38 6.92C2.80667 6.66667 3.27333 6.54 3.78 6.54C4.3 6.54 4.77333 6.66667 5.2 6.92C5.64 7.16 5.98 7.49333 6.22 7.92C6.47333 8.34667 6.6 8.82 6.6 9.34C6.6 9.84667 6.47333 10.3133 6.22 10.74C5.98 11.1667 5.64 11.5067 5.2 11.76C4.77333 12 4.3 12.12 3.78 12.12ZM14.075 9C14.075 7.62667 14.3817 6.4 14.995 5.32C15.6217 4.22667 16.4683 3.38 17.535 2.78C18.615 2.16667 19.8217 1.86 21.155 1.86C22.715 1.86 24.0817 2.26 25.255 3.06C26.4283 3.86 27.2483 4.96667 27.715 6.38H24.495C24.175 5.71333 23.7217 5.21333 23.135 4.88C22.5617 4.54667 21.895 4.38 21.135 4.38C20.3217 4.38 19.595 4.57333 18.955 4.96C18.3283 5.33333 17.835 5.86667 17.475 6.56C17.1283 7.25333 16.955 8.06667 16.955 9C16.955 9.92 17.1283 10.7333 17.475 11.44C17.835 12.1333 18.3283 12.6733 18.955 13.06C19.595 13.4333 20.3217 13.62 21.135 13.62C21.895 13.62 22.5617 13.4533 23.135 13.12C23.7217 12.7733 24.175 12.2667 24.495 11.6H27.715C27.2483 13.0267 26.4283 14.14 25.255 14.94C24.095 15.7267 22.7283 16.12 21.155 16.12C19.8217 16.12 18.615 15.82 17.535 15.22C16.4683 14.6067 15.6217 13.76 14.995 12.68C14.3817 11.6 14.075 10.3733 14.075 9ZM32.9066 1.2V16H30.1066V1.2H32.9066ZM37.093 3.6C36.5996 3.6 36.1863 3.44667 35.853 3.14C35.533 2.82 35.373 2.42667 35.373 1.96C35.373 1.49333 35.533 1.10667 35.853 0.799999C36.1863 0.479999 36.5996 0.319999 37.093 0.319999C37.5863 0.319999 37.993 0.479999 38.313 0.799999C38.6463 1.10667 38.813 1.49333 38.813 1.96C38.813 2.42667 38.6463 2.82 38.313 3.14C37.993 3.44667 37.5863 3.6 37.093 3.6ZM38.473 4.92V16H35.673V4.92H38.473ZM47.3794 4.76C48.6994 4.76 49.766 5.18 50.5794 6.02C51.3927 6.84667 51.7994 8.00667 51.7994 9.5V16H48.9994V9.88C48.9994 9 48.7794 8.32667 48.3394 7.86C47.8994 7.38 47.2994 7.14 46.5394 7.14C45.766 7.14 45.1527 7.38 44.6994 7.86C44.2594 8.32667 44.0394 9 44.0394 9.88V16H41.2394V4.92H44.0394V6.3C44.4127 5.82 44.886 5.44667 45.4594 5.18C46.046 4.9 46.686 4.76 47.3794 4.76ZM55.882 3.6C55.3887 3.6 54.9754 3.44667 54.642 3.14C54.322 2.82 54.162 2.42667 54.162 1.96C54.162 1.49333 54.322 1.10667 54.642 0.799999C54.9754 0.479999 55.3887 0.319999 55.882 0.319999C56.3754 0.319999 56.782 0.479999 57.102 0.799999C57.4354 1.10667 57.602 1.49333 57.602 1.96C57.602 2.42667 57.4354 2.82 57.102 3.14C56.782 3.44667 56.3754 3.6 55.882 3.6ZM57.262 4.92V16H54.462V4.92H57.262ZM59.3084 10.46C59.3084 9.31333 59.5418 8.31333 60.0084 7.46C60.4751 6.59333 61.1218 5.92667 61.9484 5.46C62.7751 4.98 63.7218 4.74 64.7884 4.74C66.1618 4.74 67.2951 5.08667 68.1884 5.78C69.0951 6.46 69.7018 7.42 70.0084 8.66H66.9884C66.8284 8.18 66.5551 7.80667 66.1684 7.54C65.7951 7.26 65.3284 7.12 64.7684 7.12C63.9684 7.12 63.3351 7.41333 62.8684 8C62.4018 8.57333 62.1684 9.39333 62.1684 10.46C62.1684 11.5133 62.4018 12.3333 62.8684 12.92C63.3351 13.4933 63.9684 13.78 64.7684 13.78C65.9018 13.78 66.6418 13.2733 66.9884 12.26H70.0084C69.7018 13.46 69.0951 14.4133 68.1884 15.12C67.2818 15.8267 66.1484 16.18 64.7884 16.18C63.7218 16.18 62.7751 15.9467 61.9484 15.48C61.1218 15 60.4751 14.3333 60.0084 13.48C59.5418 12.6133 59.3084 11.6067 59.3084 10.46ZM73.4797 3.6C72.9864 3.6 72.573 3.44667 72.2397 3.14C71.9197 2.82 71.7597 2.42667 71.7597 1.96C71.7597 1.49333 71.9197 1.10667 72.2397 0.799999C72.573 0.479999 72.9864 0.319999 73.4797 0.319999C73.973 0.319999 74.3797 0.479999 74.6997 0.799999C75.033 1.10667 75.1997 1.49333 75.1997 1.96C75.1997 2.42667 75.033 2.82 74.6997 3.14C74.3797 3.44667 73.973 3.6 73.4797 3.6ZM74.8597 4.92V16H72.0597V4.92H74.8597ZM76.9061 10.42C76.9061 9.3 77.1261 8.30667 77.5661 7.44C78.0194 6.57333 78.6261 5.90667 79.3861 5.44C80.1594 4.97333 81.0194 4.74 81.9661 4.74C82.7928 4.74 83.5128 4.90667 84.1261 5.24C84.7528 5.57333 85.2528 5.99333 85.6261 6.5V4.92H88.4461V16H85.6261V14.38C85.2661 14.9 84.7661 15.3333 84.1261 15.68C83.4994 16.0133 82.7728 16.18 81.9461 16.18C81.0128 16.18 80.1594 15.94 79.3861 15.46C78.6261 14.98 78.0194 14.3067 77.5661 13.44C77.1261 12.56 76.9061 11.5533 76.9061 10.42ZM85.6261 10.46C85.6261 9.78 85.4928 9.2 85.2261 8.72C84.9594 8.22667 84.5994 7.85333 84.1461 7.6C83.6928 7.33333 83.2061 7.2 82.6861 7.2C82.1661 7.2 81.6861 7.32667 81.2461 7.58C80.8061 7.83333 80.4461 8.20667 80.1661 8.7C79.8994 9.18 79.7661 9.75333 79.7661 10.42C79.7661 11.0867 79.8994 11.6733 80.1661 12.18C80.4461 12.6733 80.8061 13.0533 81.2461 13.32C81.6994 13.5867 82.1794 13.72 82.6861 13.72C83.2061 13.72 83.6928 13.5933 84.1461 13.34C84.5994 13.0733 84.9594 12.7 85.2261 12.22C85.4928 11.7267 85.6261 11.14 85.6261 10.46ZM97.3208 4.76C98.6408 4.76 99.7074 5.18 100.521 6.02C101.334 6.84667 101.741 8.00667 101.741 9.5V16H98.9408V9.88C98.9408 9 98.7208 8.32667 98.2808 7.86C97.8408 7.38 97.2408 7.14 96.4808 7.14C95.7074 7.14 95.0941 7.38 94.6408 7.86C94.2008 8.32667 93.9808 9 93.9808 9.88V16H91.1808V4.92H93.9808V6.3C94.3541 5.82 94.8274 5.44667 95.4008 5.18C95.9874 4.9 96.6274 4.76 97.3208 4.76ZM108.643 16.18C107.737 16.18 106.923 16.02 106.203 15.7C105.483 15.3667 104.91 14.92 104.483 14.36C104.07 13.8 103.843 13.18 103.803 12.5H106.623C106.677 12.9267 106.883 13.28 107.243 13.56C107.617 13.84 108.077 13.98 108.623 13.98C109.157 13.98 109.57 13.8733 109.863 13.66C110.17 13.4467 110.323 13.1733 110.323 12.84C110.323 12.48 110.137 12.2133 109.763 12.04C109.403 11.8533 108.823 11.6533 108.023 11.44C107.197 11.24 106.517 11.0333 105.983 10.82C105.463 10.6067 105.01 10.28 104.623 9.84C104.25 9.4 104.063 8.80667 104.063 8.06C104.063 7.44667 104.237 6.88667 104.583 6.38C104.943 5.87333 105.45 5.47333 106.103 5.18C106.77 4.88667 107.55 4.74 108.443 4.74C109.763 4.74 110.817 5.07333 111.603 5.74C112.39 6.39333 112.823 7.28 112.903 8.4H110.223C110.183 7.96 109.997 7.61333 109.663 7.36C109.343 7.09333 108.91 6.96 108.363 6.96C107.857 6.96 107.463 7.05333 107.183 7.24C106.917 7.42667 106.783 7.68667 106.783 8.02C106.783 8.39333 106.97 8.68 107.343 8.88C107.717 9.06667 108.297 9.26 109.083 9.46C109.883 9.66 110.543 9.86667 111.063 10.08C111.583 10.2933 112.03 10.6267 112.403 11.08C112.79 11.52 112.99 12.1067 113.003 12.84C113.003 13.48 112.823 14.0533 112.463 14.56C112.117 15.0667 111.61 15.4667 110.943 15.76C110.29 16.04 109.523 16.18 108.643 16.18ZM118.362 13.06L116.022 18.68H114.222L115.522 13.06H118.362ZM127.946 6.52C128.306 6.01333 128.799 5.59333 129.426 5.26C130.066 4.91333 130.792 4.74 131.606 4.74C132.552 4.74 133.406 4.97333 134.166 5.44C134.939 5.90667 135.546 6.57333 135.986 7.44C136.439 8.29333 136.666 9.28667 136.666 10.42C136.666 11.5533 136.439 12.56 135.986 13.44C135.546 14.3067 134.939 14.98 134.166 15.46C133.406 15.94 132.552 16.18 131.606 16.18C130.792 16.18 130.072 16.0133 129.446 15.68C128.832 15.3467 128.332 14.9267 127.946 14.42V21.28H125.146V4.92H127.946V6.52ZM133.806 10.42C133.806 9.75333 133.666 9.18 133.386 8.7C133.119 8.20667 132.759 7.83333 132.306 7.58C131.866 7.32667 131.386 7.2 130.866 7.2C130.359 7.2 129.879 7.33333 129.426 7.6C128.986 7.85333 128.626 8.22667 128.346 8.72C128.079 9.21333 127.946 9.79333 127.946 10.46C127.946 11.1267 128.079 11.7067 128.346 12.2C128.626 12.6933 128.986 13.0733 129.426 13.34C129.879 13.5933 130.359 13.72 130.866 13.72C131.386 13.72 131.866 13.5867 132.306 13.32C132.759 13.0533 133.119 12.6733 133.386 12.18C133.666 11.6867 133.806 11.1 133.806 10.42ZM141.5 6.64C141.86 6.05333 142.327 5.59333 142.9 5.26C143.487 4.92667 144.154 4.76 144.9 4.76V7.7H144.16C143.28 7.7 142.614 7.90667 142.16 8.32C141.72 8.73333 141.5 9.45333 141.5 10.48V16H138.7V4.92H141.5V6.64ZM151.706 16.18C150.64 16.18 149.68 15.9467 148.826 15.48C147.973 15 147.3 14.3267 146.806 13.46C146.326 12.5933 146.086 11.5933 146.086 10.46C146.086 9.32667 146.333 8.32667 146.826 7.46C147.333 6.59333 148.02 5.92667 148.886 5.46C149.753 4.98 150.72 4.74 151.786 4.74C152.853 4.74 153.82 4.98 154.686 5.46C155.553 5.92667 156.233 6.59333 156.726 7.46C157.233 8.32667 157.486 9.32667 157.486 10.46C157.486 11.5933 157.226 12.5933 156.706 13.46C156.2 14.3267 155.506 15 154.626 15.48C153.76 15.9467 152.786 16.18 151.706 16.18ZM151.706 13.74C152.213 13.74 152.686 13.62 153.126 13.38C153.58 13.1267 153.94 12.7533 154.206 12.26C154.473 11.7667 154.606 11.1667 154.606 10.46C154.606 9.40667 154.326 8.6 153.766 8.04C153.22 7.46667 152.546 7.18 151.746 7.18C150.946 7.18 150.273 7.46667 149.726 8.04C149.193 8.6 148.926 9.40667 148.926 10.46C148.926 11.5133 149.186 12.3267 149.706 12.9C150.24 13.46 150.906 13.74 151.706 13.74ZM164.16 13.42L166.96 4.92H169.94L165.84 16H162.44L158.36 4.92H161.36L164.16 13.42ZM172.933 3.6C172.439 3.6 172.026 3.44667 171.693 3.14C171.373 2.82 171.213 2.42667 171.213 1.96C171.213 1.49333 171.373 1.10667 171.693 0.799999C172.026 0.479999 172.439 0.319999 172.933 0.319999C173.426 0.319999 173.833 0.479999 174.153 0.799999C174.486 1.10667 174.653 1.49333 174.653 1.96C174.653 2.42667 174.486 2.82 174.153 3.14C173.833 3.44667 173.426 3.6 172.933 3.6ZM174.313 4.92V16H171.513V4.92H174.313ZM176.359 10.42C176.359 9.3 176.579 8.30667 177.019 7.44C177.473 6.57333 178.086 5.90667 178.859 5.44C179.633 4.97333 180.493 4.74 181.439 4.74C182.159 4.74 182.846 4.9 183.499 5.22C184.153 5.52667 184.673 5.94 185.059 6.46V1.2H187.899V16H185.059V14.36C184.713 14.9067 184.226 15.3467 183.599 15.68C182.973 16.0133 182.246 16.18 181.419 16.18C180.486 16.18 179.633 15.94 178.859 15.46C178.086 14.98 177.473 14.3067 177.019 13.44C176.579 12.56 176.359 11.5533 176.359 10.42ZM185.079 10.46C185.079 9.78 184.946 9.2 184.679 8.72C184.413 8.22667 184.053 7.85333 183.599 7.6C183.146 7.33333 182.659 7.2 182.139 7.2C181.619 7.2 181.139 7.32667 180.699 7.58C180.259 7.83333 179.899 8.20667 179.619 8.7C179.353 9.18 179.219 9.75333 179.219 10.42C179.219 11.0867 179.353 11.6733 179.619 12.18C179.899 12.6733 180.259 13.0533 180.699 13.32C181.153 13.5867 181.633 13.72 182.139 13.72C182.659 13.72 183.146 13.5933 183.599 13.34C184.053 13.0733 184.413 12.7 184.679 12.22C184.946 11.7267 185.079 11.14 185.079 10.46ZM200.934 10.22C200.934 10.62 200.907 10.98 200.854 11.3H192.754C192.821 12.1 193.101 12.7267 193.594 13.18C194.087 13.6333 194.694 13.86 195.414 13.86C196.454 13.86 197.194 13.4133 197.634 12.52H200.654C200.334 13.5867 199.721 14.4667 198.814 15.16C197.907 15.84 196.794 16.18 195.474 16.18C194.407 16.18 193.447 15.9467 192.594 15.48C191.754 15 191.094 14.3267 190.614 13.46C190.147 12.5933 189.914 11.5933 189.914 10.46C189.914 9.31333 190.147 8.30667 190.614 7.44C191.081 6.57333 191.734 5.90667 192.574 5.44C193.414 4.97333 194.381 4.74 195.474 4.74C196.527 4.74 197.467 4.96667 198.294 5.42C199.134 5.87333 199.781 6.52 200.234 7.36C200.701 8.18667 200.934 9.14 200.934 10.22ZM198.034 9.42C198.021 8.7 197.761 8.12667 197.254 7.7C196.747 7.26 196.127 7.04 195.394 7.04C194.701 7.04 194.114 7.25333 193.634 7.68C193.167 8.09333 192.881 8.67333 192.774 9.42H198.034ZM205.778 6.64C206.138 6.05333 206.604 5.59333 207.178 5.26C207.764 4.92667 208.431 4.76 209.178 4.76V7.7H208.438C207.558 7.7 206.891 7.90667 206.438 8.32C205.998 8.73333 205.778 9.45333 205.778 10.48V16H202.978V4.92H205.778V6.64ZM215.304 16.18C214.397 16.18 213.584 16.02 212.864 15.7C212.144 15.3667 211.57 14.92 211.144 14.36C210.73 13.8 210.504 13.18 210.464 12.5H213.284C213.337 12.9267 213.544 13.28 213.904 13.56C214.277 13.84 214.737 13.98 215.284 13.98C215.817 13.98 216.23 13.8733 216.524 13.66C216.83 13.4467 216.984 13.1733 216.984 12.84C216.984 12.48 216.797 12.2133 216.424 12.04C216.064 11.8533 215.484 11.6533 214.684 11.44C213.857 11.24 213.177 11.0333 212.644 10.82C212.124 10.6067 211.67 10.28 211.284 9.84C210.91 9.4 210.724 8.80667 210.724 8.06C210.724 7.44667 210.897 6.88667 211.244 6.38C211.604 5.87333 212.11 5.47333 212.764 5.18C213.43 4.88667 214.21 4.74 215.104 4.74C216.424 4.74 217.477 5.07333 218.264 5.74C219.05 6.39333 219.484 7.28 219.564 8.4H216.884C216.844 7.96 216.657 7.61333 216.324 7.36C216.004 7.09333 215.57 6.96 215.024 6.96C214.517 6.96 214.124 7.05333 213.844 7.24C213.577 7.42667 213.444 7.68667 213.444 8.02C213.444 8.39333 213.63 8.68 214.004 8.88C214.377 9.06667 214.957 9.26 215.744 9.46C216.544 9.66 217.204 9.86667 217.724 10.08C218.244 10.2933 218.69 10.6267 219.064 11.08C219.45 11.52 219.65 12.1067 219.664 12.84C219.664 13.48 219.484 14.0533 219.124 14.56C218.777 15.0667 218.27 15.4667 217.604 15.76C216.95 16.04 216.184 16.18 215.304 16.18ZM226.008 10.42C226.008 9.3 226.228 8.30667 226.668 7.44C227.121 6.57333 227.728 5.90667 228.488 5.44C229.261 4.97333 230.121 4.74 231.068 4.74C231.894 4.74 232.614 4.90667 233.228 5.24C233.854 5.57333 234.354 5.99333 234.728 6.5V4.92H237.548V16H234.728V14.38C234.368 14.9 233.868 15.3333 233.228 15.68C232.601 16.0133 231.874 16.18 231.048 16.18C230.114 16.18 229.261 15.94 228.488 15.46C227.728 14.98 227.121 14.3067 226.668 13.44C226.228 12.56 226.008 11.5533 226.008 10.42ZM234.728 10.46C234.728 9.78 234.594 9.2 234.328 8.72C234.061 8.22667 233.701 7.85333 233.248 7.6C232.794 7.33333 232.308 7.2 231.788 7.2C231.268 7.2 230.788 7.32667 230.348 7.58C229.908 7.83333 229.548 8.20667 229.268 8.7C229.001 9.18 228.868 9.75333 228.868 10.42C228.868 11.0867 229.001 11.6733 229.268 12.18C229.548 12.6733 229.908 13.0533 230.348 13.32C230.801 13.5867 231.281 13.72 231.788 13.72C232.308 13.72 232.794 13.5933 233.248 13.34C233.701 13.0733 234.061 12.7 234.328 12.22C234.594 11.7267 234.728 11.14 234.728 10.46ZM246.422 4.76C247.742 4.76 248.809 5.18 249.622 6.02C250.436 6.84667 250.842 8.00667 250.842 9.5V16H248.042V9.88C248.042 9 247.822 8.32667 247.382 7.86C246.942 7.38 246.342 7.14 245.582 7.14C244.809 7.14 244.196 7.38 243.742 7.86C243.302 8.32667 243.082 9 243.082 9.88V16H240.282V4.92H243.082V6.3C243.456 5.82 243.929 5.44667 244.502 5.18C245.089 4.9 245.729 4.76 246.422 4.76ZM252.785 10.42C252.785 9.3 253.005 8.30667 253.445 7.44C253.898 6.57333 254.512 5.90667 255.285 5.44C256.058 4.97333 256.918 4.74 257.865 4.74C258.585 4.74 259.272 4.9 259.925 5.22C260.578 5.52667 261.098 5.94 261.485 6.46V1.2H264.325V16H261.485V14.36C261.138 14.9067 260.652 15.3467 260.025 15.68C259.398 16.0133 258.672 16.18 257.845 16.18C256.912 16.18 256.058 15.94 255.285 15.46C254.512 14.98 253.898 14.3067 253.445 13.44C253.005 12.56 252.785 11.5533 252.785 10.42ZM261.505 10.46C261.505 9.78 261.372 9.2 261.105 8.72C260.838 8.22667 260.478 7.85333 260.025 7.6C259.572 7.33333 259.085 7.2 258.565 7.2C258.045 7.2 257.565 7.32667 257.125 7.58C256.685 7.83333 256.325 8.20667 256.045 8.7C255.778 9.18 255.645 9.75333 255.645 10.42C255.645 11.0867 255.778 11.6733 256.045 12.18C256.325 12.6733 256.685 13.0533 257.125 13.32C257.578 13.5867 258.058 13.72 258.565 13.72C259.085 13.72 259.572 13.5933 260.025 13.34C260.478 13.0733 260.838 12.7 261.105 12.22C261.372 11.7267 261.505 11.14 261.505 10.46ZM3.18 36.64C3.54 36.0533 4.00667 35.5933 4.58 35.26C5.16667 34.9267 5.83333 34.76 6.58 34.76V37.7H5.84C4.96 37.7 4.29333 37.9067 3.84 38.32C3.4 38.7333 3.18 39.4533 3.18 40.48V46H0.38V34.92H3.18V36.64ZM18.7659 40.22C18.7659 40.62 18.7393 40.98 18.6859 41.3H10.5859C10.6526 42.1 10.9326 42.7267 11.4259 43.18C11.9193 43.6333 12.5259 43.86 13.2459 43.86C14.2859 43.86 15.0259 43.4133 15.4659 42.52H18.4859C18.1659 43.5867 17.5526 44.4667 16.6459 45.16C15.7393 45.84 14.6259 46.18 13.3059 46.18C12.2393 46.18 11.2793 45.9467 10.4259 45.48C9.58594 45 8.92594 44.3267 8.44594 43.46C7.97927 42.5933 7.74594 41.5933 7.74594 40.46C7.74594 39.3133 7.97927 38.3067 8.44594 37.44C8.9126 36.5733 9.56594 35.9067 10.4059 35.44C11.2459 34.9733 12.2126 34.74 13.3059 34.74C14.3593 34.74 15.2993 34.9667 16.1259 35.42C16.9659 35.8733 17.6126 36.52 18.0659 37.36C18.5326 38.1867 18.7659 39.14 18.7659 40.22ZM15.8659 39.42C15.8526 38.7 15.5926 38.1267 15.0859 37.7C14.5793 37.26 13.9593 37.04 13.2259 37.04C12.5326 37.04 11.9459 37.2533 11.4659 37.68C10.9993 38.0933 10.7126 38.6733 10.6059 39.42H15.8659ZM25.0497 46.18C24.143 46.18 23.3297 46.02 22.6097 45.7C21.8897 45.3667 21.3164 44.92 20.8897 44.36C20.4764 43.8 20.2497 43.18 20.2097 42.5H23.0297C23.083 42.9267 23.2897 43.28 23.6497 43.56C24.023 43.84 24.483 43.98 25.0297 43.98C25.563 43.98 25.9764 43.8733 26.2697 43.66C26.5764 43.4467 26.7297 43.1733 26.7297 42.84C26.7297 42.48 26.543 42.2133 26.1697 42.04C25.8097 41.8533 25.2297 41.6533 24.4297 41.44C23.603 41.24 22.923 41.0333 22.3897 40.82C21.8697 40.6067 21.4164 40.28 21.0297 39.84C20.6564 39.4 20.4697 38.8067 20.4697 38.06C20.4697 37.4467 20.643 36.8867 20.9897 36.38C21.3497 35.8733 21.8564 35.4733 22.5097 35.18C23.1764 34.8867 23.9564 34.74 24.8497 34.74C26.1697 34.74 27.223 35.0733 28.0097 35.74C28.7964 36.3933 29.2297 37.28 29.3097 38.4H26.6297C26.5897 37.96 26.403 37.6133 26.0697 37.36C25.7497 37.0933 25.3164 36.96 24.7697 36.96C24.263 36.96 23.8697 37.0533 23.5897 37.24C23.323 37.4267 23.1897 37.6867 23.1897 38.02C23.1897 38.3933 23.3764 38.68 23.7497 38.88C24.123 39.0667 24.703 39.26 25.4897 39.46C26.2897 39.66 26.9497 39.8667 27.4697 40.08C27.9897 40.2933 28.4364 40.6267 28.8097 41.08C29.1964 41.52 29.3964 42.1067 29.4097 42.84C29.4097 43.48 29.2297 44.0533 28.8697 44.56C28.523 45.0667 28.0164 45.4667 27.3497 45.76C26.6964 46.04 25.9297 46.18 25.0497 46.18ZM42.0081 40.22C42.0081 40.62 41.9815 40.98 41.9281 41.3H33.8281C33.8948 42.1 34.1748 42.7267 34.6681 43.18C35.1615 43.6333 35.7681 43.86 36.4881 43.86C37.5281 43.86 38.2681 43.4133 38.7081 42.52H41.7281C41.4081 43.5867 40.7948 44.4667 39.8881 45.16C38.9815 45.84 37.8681 46.18 36.5481 46.18C35.4815 46.18 34.5215 45.9467 33.6681 45.48C32.8281 45 32.1681 44.3267 31.6881 43.46C31.2215 42.5933 30.9881 41.5933 30.9881 40.46C30.9881 39.3133 31.2215 38.3067 31.6881 37.44C32.1548 36.5733 32.8081 35.9067 33.6481 35.44C34.4881 34.9733 35.4548 34.74 36.5481 34.74C37.6015 34.74 38.5415 34.9667 39.3681 35.42C40.2081 35.8733 40.8548 36.52 41.3081 37.36C41.7748 38.1867 42.0081 39.14 42.0081 40.22ZM39.1081 39.42C39.0948 38.7 38.8348 38.1267 38.3281 37.7C37.8215 37.26 37.2015 37.04 36.4681 37.04C35.7748 37.04 35.1881 37.2533 34.7081 37.68C34.2415 38.0933 33.9548 38.6733 33.8481 39.42H39.1081ZM43.3319 40.42C43.3319 39.3 43.5519 38.3067 43.9919 37.44C44.4452 36.5733 45.0519 35.9067 45.8119 35.44C46.5852 34.9733 47.4452 34.74 48.3919 34.74C49.2185 34.74 49.9385 34.9067 50.5519 35.24C51.1785 35.5733 51.6785 35.9933 52.0519 36.5V34.92H54.8719V46H52.0519V44.38C51.6919 44.9 51.1919 45.3333 50.5519 45.68C49.9252 46.0133 49.1985 46.18 48.3719 46.18C47.4385 46.18 46.5852 45.94 45.8119 45.46C45.0519 44.98 44.4452 44.3067 43.9919 43.44C43.5519 42.56 43.3319 41.5533 43.3319 40.42ZM52.0519 40.46C52.0519 39.78 51.9185 39.2 51.6519 38.72C51.3852 38.2267 51.0252 37.8533 50.5719 37.6C50.1185 37.3333 49.6319 37.2 49.1119 37.2C48.5919 37.2 48.1119 37.3267 47.6719 37.58C47.2319 37.8333 46.8719 38.2067 46.5919 38.7C46.3252 39.18 46.1919 39.7533 46.1919 40.42C46.1919 41.0867 46.3252 41.6733 46.5919 42.18C46.8719 42.6733 47.2319 43.0533 47.6719 43.32C48.1252 43.5867 48.6052 43.72 49.1119 43.72C49.6319 43.72 50.1185 43.5933 50.5719 43.34C51.0252 43.0733 51.3852 42.7 51.6519 42.22C51.9185 41.7267 52.0519 41.14 52.0519 40.46ZM60.4066 36.64C60.7666 36.0533 61.2332 35.5933 61.8066 35.26C62.3932 34.9267 63.0599 34.76 63.8066 34.76V37.7H63.0666C62.1866 37.7 61.5199 37.9067 61.0666 38.32C60.6266 38.7333 60.4066 39.4533 60.4066 40.48V46H57.6066V34.92H60.4066V36.64ZM64.9725 40.46C64.9725 39.3133 65.2058 38.3133 65.6725 37.46C66.1392 36.5933 66.7858 35.9267 67.6125 35.46C68.4392 34.98 69.3858 34.74 70.4525 34.74C71.8258 34.74 72.9592 35.0867 73.8525 35.78C74.7592 36.46 75.3658 37.42 75.6725 38.66H72.6525C72.4925 38.18 72.2192 37.8067 71.8325 37.54C71.4592 37.26 70.9925 37.12 70.4325 37.12C69.6325 37.12 68.9992 37.4133 68.5325 38C68.0658 38.5733 67.8325 39.3933 67.8325 40.46C67.8325 41.5133 68.0658 42.3333 68.5325 42.92C68.9992 43.4933 69.6325 43.78 70.4325 43.78C71.5658 43.78 72.3058 43.2733 72.6525 42.26H75.6725C75.3658 43.46 74.7592 44.4133 73.8525 45.12C72.9458 45.8267 71.8125 46.18 70.4525 46.18C69.3858 46.18 68.4392 45.9467 67.6125 45.48C66.7858 45 66.1392 44.3333 65.6725 43.48C65.2058 42.6133 64.9725 41.6067 64.9725 40.46ZM83.9638 34.76C84.8038 34.76 85.5504 34.9467 86.2038 35.32C86.8571 35.68 87.3638 36.22 87.7238 36.94C88.0971 37.6467 88.2838 38.5 88.2838 39.5V46H85.4838V39.88C85.4838 39 85.2638 38.3267 84.8238 37.86C84.3838 37.38 83.7838 37.14 83.0238 37.14C82.2504 37.14 81.6371 37.38 81.1838 37.86C80.7438 38.3267 80.5238 39 80.5238 39.88V46H77.7238V31.2H80.5238V36.3C80.8838 35.82 81.3638 35.4467 81.9638 35.18C82.5638 34.9 83.2304 34.76 83.9638 34.76ZM101.246 40.22C101.246 40.62 101.22 40.98 101.166 41.3H93.0664C93.1331 42.1 93.4131 42.7267 93.9064 43.18C94.3997 43.6333 95.0064 43.86 95.7264 43.86C96.7664 43.86 97.5064 43.4133 97.9464 42.52H100.966C100.646 43.5867 100.033 44.4667 99.1264 45.16C98.2197 45.84 97.1064 46.18 95.7864 46.18C94.7197 46.18 93.7597 45.9467 92.9064 45.48C92.0664 45 91.4064 44.3267 90.9264 43.46C90.4597 42.5933 90.2264 41.5933 90.2264 40.46C90.2264 39.3133 90.4597 38.3067 90.9264 37.44C91.3931 36.5733 92.0464 35.9067 92.8864 35.44C93.7264 34.9733 94.6931 34.74 95.7864 34.74C96.8397 34.74 97.7797 34.9667 98.6064 35.42C99.4464 35.8733 100.093 36.52 100.546 37.36C101.013 38.1867 101.246 39.14 101.246 40.22ZM98.3464 39.42C98.3331 38.7 98.0731 38.1267 97.5664 37.7C97.0597 37.26 96.4397 37.04 95.7064 37.04C95.0131 37.04 94.4264 37.2533 93.9464 37.68C93.4797 38.0933 93.1931 38.6733 93.0864 39.42H98.3464ZM106.09 36.64C106.45 36.0533 106.917 35.5933 107.49 35.26C108.077 34.9267 108.743 34.76 109.49 34.76V37.7H108.75C107.87 37.7 107.203 37.9067 106.75 38.32C106.31 38.7333 106.09 39.4533 106.09 40.48V46H103.29V34.92H106.09V36.64ZM115.616 46.18C114.709 46.18 113.896 46.02 113.176 45.7C112.456 45.3667 111.883 44.92 111.456 44.36C111.043 43.8 110.816 43.18 110.776 42.5H113.596C113.649 42.9267 113.856 43.28 114.216 43.56C114.589 43.84 115.049 43.98 115.596 43.98C116.129 43.98 116.543 43.8733 116.836 43.66C117.143 43.4467 117.296 43.1733 117.296 42.84C117.296 42.48 117.109 42.2133 116.736 42.04C116.376 41.8533 115.796 41.6533 114.996 41.44C114.169 41.24 113.489 41.0333 112.956 40.82C112.436 40.6067 111.983 40.28 111.596 39.84C111.223 39.4 111.036 38.8067 111.036 38.06C111.036 37.4467 111.209 36.8867 111.556 36.38C111.916 35.8733 112.423 35.4733 113.076 35.18C113.743 34.8867 114.523 34.74 115.416 34.74C116.736 34.74 117.789 35.0733 118.576 35.74C119.363 36.3933 119.796 37.28 119.876 38.4H117.196C117.156 37.96 116.969 37.6133 116.636 37.36C116.316 37.0933 115.883 36.96 115.336 36.96C114.829 36.96 114.436 37.0533 114.156 37.24C113.889 37.4267 113.756 37.6867 113.756 38.02C113.756 38.3933 113.943 38.68 114.316 38.88C114.689 39.0667 115.269 39.26 116.056 39.46C116.856 39.66 117.516 39.8667 118.036 40.08C118.556 40.2933 119.003 40.6267 119.376 41.08C119.763 41.52 119.963 42.1067 119.976 42.84C119.976 43.48 119.796 44.0533 119.436 44.56C119.089 45.0667 118.583 45.4667 117.916 45.76C117.263 46.04 116.496 46.18 115.616 46.18ZM142.4 34.92L139.16 46H136.14L134.12 38.26L132.1 46H129.06L125.8 34.92H128.64L130.6 43.36L132.72 34.92H135.68L137.76 43.34L139.72 34.92H142.4ZM145.335 33.6C144.842 33.6 144.428 33.4467 144.095 33.14C143.775 32.82 143.615 32.4267 143.615 31.96C143.615 31.4933 143.775 31.1067 144.095 30.8C144.428 30.48 144.842 30.32 145.335 30.32C145.828 30.32 146.235 30.48 146.555 30.8C146.888 31.1067 147.055 31.4933 147.055 31.96C147.055 32.4267 146.888 32.82 146.555 33.14C146.235 33.4467 145.828 33.6 145.335 33.6ZM146.715 34.92V46H143.915V34.92H146.715ZM152.742 37.22V42.58C152.742 42.9533 152.828 43.2267 153.002 43.4C153.188 43.56 153.495 43.64 153.922 43.64H155.222V46H153.462C151.102 46 149.922 44.8533 149.922 42.56V37.22H148.602V34.92H149.922V32.18H152.742V34.92H155.222V37.22H152.742ZM163.475 34.76C164.315 34.76 165.062 34.9467 165.715 35.32C166.369 35.68 166.875 36.22 167.235 36.94C167.609 37.6467 167.795 38.5 167.795 39.5V46H164.995V39.88C164.995 39 164.775 38.3267 164.335 37.86C163.895 37.38 163.295 37.14 162.535 37.14C161.762 37.14 161.149 37.38 160.695 37.86C160.255 38.3267 160.035 39 160.035 39.88V46H157.235V31.2H160.035V36.3C160.395 35.82 160.875 35.4467 161.475 35.18C162.075 34.9 162.742 34.76 163.475 34.76ZM174.504 40.42C174.504 39.3 174.724 38.3067 175.164 37.44C175.617 36.5733 176.224 35.9067 176.984 35.44C177.757 34.9733 178.617 34.74 179.564 34.74C180.39 34.74 181.11 34.9067 181.724 35.24C182.35 35.5733 182.85 35.9933 183.224 36.5V34.92H186.044V46H183.224V44.38C182.864 44.9 182.364 45.3333 181.724 45.68C181.097 46.0133 180.37 46.18 179.544 46.18C178.61 46.18 177.757 45.94 176.984 45.46C176.224 44.98 175.617 44.3067 175.164 43.44C174.724 42.56 174.504 41.5533 174.504 40.42ZM183.224 40.46C183.224 39.78 183.09 39.2 182.824 38.72C182.557 38.2267 182.197 37.8533 181.744 37.6C181.29 37.3333 180.804 37.2 180.284 37.2C179.764 37.2 179.284 37.3267 178.844 37.58C178.404 37.8333 178.044 38.2067 177.764 38.7C177.497 39.18 177.364 39.7533 177.364 40.42C177.364 41.0867 177.497 41.6733 177.764 42.18C178.044 42.6733 178.404 43.0533 178.844 43.32C179.297 43.5867 179.777 43.72 180.284 43.72C180.804 43.72 181.29 43.5933 181.744 43.34C182.197 43.0733 182.557 42.7 182.824 42.22C183.09 41.7267 183.224 41.14 183.224 40.46ZM194.918 34.76C196.238 34.76 197.305 35.18 198.118 36.02C198.932 36.8467 199.338 38.0067 199.338 39.5V46H196.538V39.88C196.538 39 196.318 38.3267 195.878 37.86C195.438 37.38 194.838 37.14 194.078 37.14C193.305 37.14 192.692 37.38 192.238 37.86C191.798 38.3267 191.578 39 191.578 39.88V46H188.778V34.92H191.578V36.3C191.952 35.82 192.425 35.4467 192.998 35.18C193.585 34.9 194.225 34.76 194.918 34.76ZM208.187 33.6C207.693 33.6 207.28 33.4467 206.947 33.14C206.627 32.82 206.467 32.4267 206.467 31.96C206.467 31.4933 206.627 31.1067 206.947 30.8C207.28 30.48 207.693 30.32 208.187 30.32C208.68 30.32 209.087 30.48 209.407 30.8C209.74 31.1067 209.907 31.4933 209.907 31.96C209.907 32.4267 209.74 32.82 209.407 33.14C209.087 33.4467 208.68 33.6 208.187 33.6ZM209.567 34.92V46H206.767V34.92H209.567ZM218.473 34.76C219.793 34.76 220.86 35.18 221.673 36.02C222.486 36.8467 222.893 38.0067 222.893 39.5V46H220.093V39.88C220.093 39 219.873 38.3267 219.433 37.86C218.993 37.38 218.393 37.14 217.633 37.14C216.86 37.14 216.246 37.38 215.793 37.86C215.353 38.3267 215.133 39 215.133 39.88V46H212.333V34.92H215.133V36.3C215.506 35.82 215.98 35.4467 216.553 35.18C217.14 34.9 217.78 34.76 218.473 34.76ZM228.816 37.22V42.58C228.816 42.9533 228.902 43.2267 229.076 43.4C229.262 43.56 229.569 43.64 229.996 43.64H231.296V46H229.536C227.176 46 225.996 44.8533 225.996 42.56V37.22H224.676V34.92H225.996V32.18H228.816V34.92H231.296V37.22H228.816ZM243.61 40.22C243.61 40.62 243.583 40.98 243.53 41.3H235.43C235.496 42.1 235.776 42.7267 236.27 43.18C236.763 43.6333 237.37 43.86 238.09 43.86C239.13 43.86 239.87 43.4133 240.31 42.52H243.33C243.01 43.5867 242.396 44.4667 241.49 45.16C240.583 45.84 239.47 46.18 238.15 46.18C237.083 46.18 236.123 45.9467 235.27 45.48C234.43 45 233.77 44.3267 233.29 43.46C232.823 42.5933 232.59 41.5933 232.59 40.46C232.59 39.3133 232.823 38.3067 233.29 37.44C233.756 36.5733 234.41 35.9067 235.25 35.44C236.09 34.9733 237.056 34.74 238.15 34.74C239.203 34.74 240.143 34.9667 240.97 35.42C241.81 35.8733 242.456 36.52 242.91 37.36C243.376 38.1867 243.61 39.14 243.61 40.22ZM240.71 39.42C240.696 38.7 240.436 38.1267 239.93 37.7C239.423 37.26 238.803 37.04 238.07 37.04C237.376 37.04 236.79 37.2533 236.31 37.68C235.843 38.0933 235.556 38.6733 235.45 39.42H240.71ZM248.453 36.64C248.813 36.0533 249.28 35.5933 249.853 35.26C250.44 34.9267 251.107 34.76 251.853 34.76V37.7H251.113C250.233 37.7 249.567 37.9067 249.113 38.32C248.673 38.7333 248.453 39.4533 248.453 40.48V46H245.653V34.92H248.453V36.64ZM264.039 40.22C264.039 40.62 264.013 40.98 263.959 41.3H255.859C255.926 42.1 256.206 42.7267 256.699 43.18C257.193 43.6333 257.799 43.86 258.519 43.86C259.559 43.86 260.299 43.4133 260.739 42.52H263.759C263.439 43.5867 262.826 44.4667 261.919 45.16C261.013 45.84 259.899 46.18 258.579 46.18C257.513 46.18 256.553 45.9467 255.699 45.48C254.859 45 254.199 44.3267 253.719 43.46C253.253 42.5933 253.019 41.5933 253.019 40.46C253.019 39.3133 253.253 38.3067 253.719 37.44C254.186 36.5733 254.839 35.9067 255.679 35.44C256.519 34.9733 257.486 34.74 258.579 34.74C259.633 34.74 260.573 34.9667 261.399 35.42C262.239 35.8733 262.886 36.52 263.339 37.36C263.806 38.1867 264.039 39.14 264.039 40.22ZM261.139 39.42C261.126 38.7 260.866 38.1267 260.359 37.7C259.853 37.26 259.233 37.04 258.499 37.04C257.806 37.04 257.219 37.2533 256.739 37.68C256.273 38.0933 255.986 38.6733 255.879 39.42H261.139ZM270.323 46.18C269.416 46.18 268.603 46.02 267.883 45.7C267.163 45.3667 266.59 44.92 266.163 44.36C265.75 43.8 265.523 43.18 265.483 42.5H268.303C268.356 42.9267 268.563 43.28 268.923 43.56C269.296 43.84 269.756 43.98 270.303 43.98C270.836 43.98 271.25 43.8733 271.543 43.66C271.85 43.4467 272.003 43.1733 272.003 42.84C272.003 42.48 271.816 42.2133 271.443 42.04C271.083 41.8533 270.503 41.6533 269.703 41.44C268.876 41.24 268.196 41.0333 267.663 40.82C267.143 40.6067 266.69 40.28 266.303 39.84C265.93 39.4 265.743 38.8067 265.743 38.06C265.743 37.4467 265.916 36.8867 266.263 36.38C266.623 35.8733 267.13 35.4733 267.783 35.18C268.45 34.8867 269.23 34.74 270.123 34.74C271.443 34.74 272.496 35.0733 273.283 35.74C274.07 36.3933 274.503 37.28 274.583 38.4H271.903C271.863 37.96 271.676 37.6133 271.343 37.36C271.023 37.0933 270.59 36.96 270.043 36.96C269.536 36.96 269.143 37.0533 268.863 37.24C268.596 37.4267 268.463 37.6867 268.463 38.02C268.463 38.3933 268.65 38.68 269.023 38.88C269.396 39.0667 269.976 39.26 270.763 39.46C271.563 39.66 272.223 39.8667 272.743 40.08C273.263 40.2933 273.71 40.6267 274.083 41.08C274.47 41.52 274.67 42.1067 274.683 42.84C274.683 43.48 274.503 44.0533 274.143 44.56C273.796 45.0667 273.29 45.4667 272.623 45.76C271.97 46.04 271.203 46.18 270.323 46.18ZM280.242 37.22V42.58C280.242 42.9533 280.328 43.2267 280.502 43.4C280.688 43.56 280.995 43.64 281.422 43.64H282.722V46H280.962C278.602 46 277.422 44.8533 277.422 42.56V37.22H276.102V34.92H277.422V32.18H280.242V34.92H282.722V37.22H280.242ZM1.8 63.6C1.30667 63.6 0.893333 63.4467 0.56 63.14C0.24 62.82 0.08 62.4267 0.08 61.96C0.08 61.4933 0.24 61.1067 0.56 60.8C0.893333 60.48 1.30667 60.32 1.8 60.32C2.29333 60.32 2.7 60.48 3.02 60.8C3.35333 61.1067 3.52 61.4933 3.52 61.96C3.52 62.4267 3.35333 62.82 3.02 63.14C2.7 63.4467 2.29333 63.6 1.8 63.6ZM3.18 64.92V76H0.38V64.92H3.18ZM12.0864 64.76C13.4064 64.76 14.4731 65.18 15.2864 66.02C16.0997 66.8467 16.5064 68.0067 16.5064 69.5V76H13.7064V69.88C13.7064 69 13.4864 68.3267 13.0464 67.86C12.6064 67.38 12.0064 67.14 11.2464 67.14C10.4731 67.14 9.85974 67.38 9.40641 67.86C8.96641 68.3267 8.74641 69 8.74641 69.88V76H5.94641V64.92H8.74641V66.3C9.11974 65.82 9.59307 65.4467 10.1664 65.18C10.7531 64.9 11.3931 64.76 12.0864 64.76ZM23.2147 70.42C23.2147 69.3 23.4347 68.3067 23.8747 67.44C24.328 66.5733 24.9414 65.9067 25.7147 65.44C26.488 64.9733 27.348 64.74 28.2947 64.74C29.0147 64.74 29.7014 64.9 30.3547 65.22C31.008 65.5267 31.528 65.94 31.9147 66.46V61.2H34.7547V76H31.9147V74.36C31.568 74.9067 31.0814 75.3467 30.4547 75.68C29.828 76.0133 29.1014 76.18 28.2747 76.18C27.3414 76.18 26.488 75.94 25.7147 75.46C24.9414 74.98 24.328 74.3067 23.8747 73.44C23.4347 72.56 23.2147 71.5533 23.2147 70.42ZM31.9347 70.46C31.9347 69.78 31.8014 69.2 31.5347 68.72C31.268 68.2267 30.908 67.8533 30.4547 67.6C30.0014 67.3333 29.5147 67.2 28.9947 67.2C28.4747 67.2 27.9947 67.3267 27.5547 67.58C27.1147 67.8333 26.7547 68.2067 26.4747 68.7C26.208 69.18 26.0747 69.7533 26.0747 70.42C26.0747 71.0867 26.208 71.6733 26.4747 72.18C26.7547 72.6733 27.1147 73.0533 27.5547 73.32C28.008 73.5867 28.488 73.72 28.9947 73.72C29.5147 73.72 30.0014 73.5933 30.4547 73.34C30.908 73.0733 31.268 72.7 31.5347 72.22C31.8014 71.7267 31.9347 71.14 31.9347 70.46ZM38.9094 63.6C38.416 63.6 38.0027 63.4467 37.6694 63.14C37.3494 62.82 37.1894 62.4267 37.1894 61.96C37.1894 61.4933 37.3494 61.1067 37.6694 60.8C38.0027 60.48 38.416 60.32 38.9094 60.32C39.4027 60.32 39.8094 60.48 40.1294 60.8C40.4627 61.1067 40.6294 61.4933 40.6294 61.96C40.6294 62.4267 40.4627 62.82 40.1294 63.14C39.8094 63.4467 39.4027 63.6 38.9094 63.6ZM40.2894 64.92V76H37.4894V64.92H40.2894ZM47.3958 64.74C48.2224 64.74 48.9491 64.9067 49.5758 65.24C50.2024 65.56 50.6958 65.98 51.0558 66.5V64.92H53.8758V76.08C53.8758 77.1067 53.6691 78.02 53.2558 78.82C52.8424 79.6333 52.2224 80.2733 51.3958 80.74C50.5691 81.22 49.5691 81.46 48.3958 81.46C46.8224 81.46 45.5291 81.0933 44.5158 80.36C43.5158 79.6267 42.9491 78.6267 42.8158 77.36H45.5958C45.7424 77.8667 46.0558 78.2667 46.5358 78.56C47.0291 78.8667 47.6224 79.02 48.3158 79.02C49.1291 79.02 49.7891 78.7733 50.2958 78.28C50.8024 77.8 51.0558 77.0667 51.0558 76.08V74.36C50.6958 74.88 50.1958 75.3133 49.5558 75.66C48.9291 76.0067 48.2091 76.18 47.3958 76.18C46.4624 76.18 45.6091 75.94 44.8358 75.46C44.0624 74.98 43.4491 74.3067 42.9958 73.44C42.5558 72.56 42.3358 71.5533 42.3358 70.42C42.3358 69.3 42.5558 68.3067 42.9958 67.44C43.4491 66.5733 44.0558 65.9067 44.8158 65.44C45.5891 64.9733 46.4491 64.74 47.3958 64.74ZM51.0558 70.46C51.0558 69.78 50.9224 69.2 50.6558 68.72C50.3891 68.2267 50.0291 67.8533 49.5758 67.6C49.1224 67.3333 48.6358 67.2 48.1158 67.2C47.5958 67.2 47.1158 67.3267 46.6758 67.58C46.2358 67.8333 45.8758 68.2067 45.5958 68.7C45.3291 69.18 45.1958 69.7533 45.1958 70.42C45.1958 71.0867 45.3291 71.6733 45.5958 72.18C45.8758 72.6733 46.2358 73.0533 46.6758 73.32C47.1291 73.5867 47.6091 73.72 48.1158 73.72C48.6358 73.72 49.1224 73.5933 49.5758 73.34C50.0291 73.0733 50.3891 72.7 50.6558 72.22C50.9224 71.7267 51.0558 71.14 51.0558 70.46ZM58.0305 63.6C57.5371 63.6 57.1238 63.4467 56.7905 63.14C56.4705 62.82 56.3105 62.4267 56.3105 61.96C56.3105 61.4933 56.4705 61.1067 56.7905 60.8C57.1238 60.48 57.5371 60.32 58.0305 60.32C58.5238 60.32 58.9305 60.48 59.2505 60.8C59.5838 61.1067 59.7505 61.4933 59.7505 61.96C59.7505 62.4267 59.5838 62.82 59.2505 63.14C58.9305 63.4467 58.5238 63.6 58.0305 63.6ZM59.4105 64.92V76H56.6105V64.92H59.4105ZM65.4369 67.22V72.58C65.4369 72.9533 65.5235 73.2267 65.6969 73.4C65.8835 73.56 66.1902 73.64 66.6169 73.64H67.9169V76H66.1569C63.7969 76 62.6169 74.8533 62.6169 72.56V67.22H61.2969V64.92H62.6169V62.18H65.4369V64.92H67.9169V67.22H65.4369ZM69.2108 70.42C69.2108 69.3 69.4308 68.3067 69.8708 67.44C70.3241 66.5733 70.9308 65.9067 71.6908 65.44C72.4641 64.9733 73.3241 64.74 74.2708 64.74C75.0974 64.74 75.8174 64.9067 76.4308 65.24C77.0574 65.5733 77.5574 65.9933 77.9308 66.5V64.92H80.7508V76H77.9308V74.38C77.5708 74.9 77.0708 75.3333 76.4308 75.68C75.8041 76.0133 75.0774 76.18 74.2508 76.18C73.3174 76.18 72.4641 75.94 71.6908 75.46C70.9308 74.98 70.3241 74.3067 69.8708 73.44C69.4308 72.56 69.2108 71.5533 69.2108 70.42ZM77.9308 70.46C77.9308 69.78 77.7974 69.2 77.5308 68.72C77.2641 68.2267 76.9041 67.8533 76.4508 67.6C75.9974 67.3333 75.5108 67.2 74.9908 67.2C74.4708 67.2 73.9908 67.3267 73.5508 67.58C73.1108 67.8333 72.7508 68.2067 72.4708 68.7C72.2041 69.18 72.0708 69.7533 72.0708 70.42C72.0708 71.0867 72.2041 71.6733 72.4708 72.18C72.7508 72.6733 73.1108 73.0533 73.5508 73.32C74.0041 73.5867 74.4841 73.72 74.9908 73.72C75.5108 73.72 75.9974 73.5933 76.4508 73.34C76.9041 73.0733 77.2641 72.7 77.5308 72.22C77.7974 71.7267 77.9308 71.14 77.9308 70.46ZM86.2855 61.2V76H83.4855V61.2H86.2855ZM100.058 64.76C100.898 64.76 101.644 64.9467 102.298 65.32C102.951 65.68 103.458 66.22 103.818 66.94C104.191 67.6467 104.378 68.5 104.378 69.5V76H101.578V69.88C101.578 69 101.358 68.3267 100.918 67.86C100.478 67.38 99.8775 67.14 99.1175 67.14C98.3442 67.14 97.7308 67.38 97.2775 67.86C96.8375 68.3267 96.6175 69 96.6175 69.88V76H93.8175V61.2H96.6175V66.3C96.9775 65.82 97.4575 65.4467 98.0575 65.18C98.6575 64.9 99.3242 64.76 100.058 64.76ZM117.34 70.22C117.34 70.62 117.313 70.98 117.26 71.3H109.16C109.227 72.1 109.507 72.7267 110 73.18C110.493 73.6333 111.1 73.86 111.82 73.86C112.86 73.86 113.6 73.4133 114.04 72.52H117.06C116.74 73.5867 116.127 74.4667 115.22 75.16C114.313 75.84 113.2 76.18 111.88 76.18C110.813 76.18 109.853 75.9467 109 75.48C108.16 75 107.5 74.3267 107.02 73.46C106.553 72.5933 106.32 71.5933 106.32 70.46C106.32 69.3133 106.553 68.3067 107.02 67.44C107.487 66.5733 108.14 65.9067 108.98 65.44C109.82 64.9733 110.787 64.74 111.88 64.74C112.933 64.74 113.873 64.9667 114.7 65.42C115.54 65.8733 116.187 66.52 116.64 67.36C117.107 68.1867 117.34 69.14 117.34 70.22ZM114.44 69.42C114.427 68.7 114.167 68.1267 113.66 67.7C113.153 67.26 112.533 67.04 111.8 67.04C111.107 67.04 110.52 67.2533 110.04 67.68C109.573 68.0933 109.287 68.6733 109.18 69.42H114.44ZM118.664 70.42C118.664 69.3 118.884 68.3067 119.324 67.44C119.777 66.5733 120.384 65.9067 121.144 65.44C121.917 64.9733 122.777 64.74 123.724 64.74C124.551 64.74 125.271 64.9067 125.884 65.24C126.511 65.5733 127.011 65.9933 127.384 66.5V64.92H130.204V76H127.384V74.38C127.024 74.9 126.524 75.3333 125.884 75.68C125.257 76.0133 124.531 76.18 123.704 76.18C122.771 76.18 121.917 75.94 121.144 75.46C120.384 74.98 119.777 74.3067 119.324 73.44C118.884 72.56 118.664 71.5533 118.664 70.42ZM127.384 70.46C127.384 69.78 127.251 69.2 126.984 68.72C126.717 68.2267 126.357 67.8533 125.904 67.6C125.451 67.3333 124.964 67.2 124.444 67.2C123.924 67.2 123.444 67.3267 123.004 67.58C122.564 67.8333 122.204 68.2067 121.924 68.7C121.657 69.18 121.524 69.7533 121.524 70.42C121.524 71.0867 121.657 71.6733 121.924 72.18C122.204 72.6733 122.564 73.0533 123.004 73.32C123.457 73.5867 123.937 73.72 124.444 73.72C124.964 73.72 125.451 73.5933 125.904 73.34C126.357 73.0733 126.717 72.7 126.984 72.22C127.251 71.7267 127.384 71.14 127.384 70.46ZM135.739 61.2V76H132.939V61.2H135.739ZM141.765 67.22V72.58C141.765 72.9533 141.852 73.2267 142.025 73.4C142.212 73.56 142.518 73.64 142.945 73.64H144.245V76H142.485C140.125 76 138.945 74.8533 138.945 72.56V67.22H137.625V64.92H138.945V62.18H141.765V64.92H144.245V67.22H141.765ZM152.499 64.76C153.339 64.76 154.086 64.9467 154.739 65.32C155.392 65.68 155.899 66.22 156.259 66.94C156.632 67.6467 156.819 68.5 156.819 69.5V76H154.019V69.88C154.019 69 153.799 68.3267 153.359 67.86C152.919 67.38 152.319 67.14 151.559 67.14C150.786 67.14 150.172 67.38 149.719 67.86C149.279 68.3267 149.059 69 149.059 69.88V76H146.259V61.2H149.059V66.3C149.419 65.82 149.899 65.4467 150.499 65.18C151.099 64.9 151.766 64.76 152.499 64.76ZM163.527 70.42C163.527 69.3 163.747 68.3067 164.187 67.44C164.641 66.5733 165.247 65.9067 166.007 65.44C166.781 64.9733 167.641 64.74 168.587 64.74C169.414 64.74 170.134 64.9067 170.747 65.24C171.374 65.5733 171.874 65.9933 172.247 66.5V64.92H175.067V76H172.247V74.38C171.887 74.9 171.387 75.3333 170.747 75.68C170.121 76.0133 169.394 76.18 168.567 76.18C167.634 76.18 166.781 75.94 166.007 75.46C165.247 74.98 164.641 74.3067 164.187 73.44C163.747 72.56 163.527 71.5533 163.527 70.42ZM172.247 70.46C172.247 69.78 172.114 69.2 171.847 68.72C171.581 68.2267 171.221 67.8533 170.767 67.6C170.314 67.3333 169.827 67.2 169.307 67.2C168.787 67.2 168.307 67.3267 167.867 67.58C167.427 67.8333 167.067 68.2067 166.787 68.7C166.521 69.18 166.387 69.7533 166.387 70.42C166.387 71.0867 166.521 71.6733 166.787 72.18C167.067 72.6733 167.427 73.0533 167.867 73.32C168.321 73.5867 168.801 73.72 169.307 73.72C169.827 73.72 170.314 73.5933 170.767 73.34C171.221 73.0733 171.581 72.7 171.847 72.22C172.114 71.7267 172.247 71.14 172.247 70.46ZM183.942 64.76C185.262 64.76 186.329 65.18 187.142 66.02C187.955 66.8467 188.362 68.0067 188.362 69.5V76H185.562V69.88C185.562 69 185.342 68.3267 184.902 67.86C184.462 67.38 183.862 67.14 183.102 67.14C182.329 67.14 181.715 67.38 181.262 67.86C180.822 68.3267 180.602 69 180.602 69.88V76H177.802V64.92H180.602V66.3C180.975 65.82 181.449 65.4467 182.022 65.18C182.609 64.9 183.249 64.76 183.942 64.76ZM190.305 70.42C190.305 69.3 190.525 68.3067 190.965 67.44C191.418 66.5733 192.031 65.9067 192.805 65.44C193.578 64.9733 194.438 64.74 195.385 64.74C196.105 64.74 196.791 64.9 197.445 65.22C198.098 65.5267 198.618 65.94 199.005 66.46V61.2H201.845V76H199.005V74.36C198.658 74.9067 198.171 75.3467 197.545 75.68C196.918 76.0133 196.191 76.18 195.365 76.18C194.431 76.18 193.578 75.94 192.805 75.46C192.031 74.98 191.418 74.3067 190.965 73.44C190.525 72.56 190.305 71.5533 190.305 70.42ZM199.025 70.46C199.025 69.78 198.891 69.2 198.625 68.72C198.358 68.2267 197.998 67.8533 197.545 67.6C197.091 67.3333 196.605 67.2 196.085 67.2C195.565 67.2 195.085 67.3267 194.645 67.58C194.205 67.8333 193.845 68.2067 193.565 68.7C193.298 69.18 193.165 69.7533 193.165 70.42C193.165 71.0867 193.298 71.6733 193.565 72.18C193.845 72.6733 194.205 73.0533 194.645 73.32C195.098 73.5867 195.578 73.72 196.085 73.72C196.605 73.72 197.091 73.5933 197.545 73.34C197.998 73.0733 198.358 72.7 198.625 72.22C198.891 71.7267 199.025 71.14 199.025 70.46ZM8.3 98.84C9.08667 98.9867 9.73333 99.38 10.24 100.02C10.7467 100.66 11 101.393 11 102.22C11 102.967 10.8133 103.627 10.44 104.2C10.08 104.76 9.55333 105.2 8.86 105.52C8.16667 105.84 7.34667 106 6.4 106H0.38V92.04H6.14C7.08667 92.04 7.9 92.1933 8.58 92.5C9.27333 92.8067 9.79333 93.2333 10.14 93.78C10.5 94.3267 10.68 94.9467 10.68 95.64C10.68 96.4533 10.46 97.1333 10.02 97.68C9.59333 98.2267 9.02 98.6133 8.3 98.84ZM3.18 97.8H5.74C6.40667 97.8 6.92 97.6533 7.28 97.36C7.64 97.0533 7.82 96.62 7.82 96.06C7.82 95.5 7.64 95.0667 7.28 94.76C6.92 94.4533 6.40667 94.3 5.74 94.3H3.18V97.8ZM6 103.72C6.68 103.72 7.20667 103.56 7.58 103.24C7.96667 102.92 8.16 102.467 8.16 101.88C8.16 101.28 7.96 100.813 7.56 100.48C7.16 100.133 6.62 99.96 5.94 99.96H3.18V103.72H6ZM16.0316 91.2V106H13.2316V91.2H16.0316ZM23.718 106.18C22.6513 106.18 21.6913 105.947 20.838 105.48C19.9846 105 19.3113 104.327 18.818 103.46C18.338 102.593 18.098 101.593 18.098 100.46C18.098 99.3267 18.3446 98.3267 18.838 97.46C19.3446 96.5933 20.0313 95.9267 20.898 95.46C21.7646 94.98 22.7313 94.74 23.798 94.74C24.8646 94.74 25.8313 94.98 26.698 95.46C27.5646 95.9267 28.2446 96.5933 28.738 97.46C29.2446 98.3267 29.498 99.3267 29.498 100.46C29.498 101.593 29.238 102.593 28.718 103.46C28.2113 104.327 27.518 105 26.638 105.48C25.7713 105.947 24.798 106.18 23.718 106.18ZM23.718 103.74C24.2246 103.74 24.698 103.62 25.138 103.38C25.5913 103.127 25.9513 102.753 26.218 102.26C26.4846 101.767 26.618 101.167 26.618 100.46C26.618 99.4067 26.338 98.6 25.778 98.04C25.2313 97.4667 24.558 97.18 23.758 97.18C22.958 97.18 22.2846 97.4667 21.738 98.04C21.2046 98.6 20.938 99.4067 20.938 100.46C20.938 101.513 21.198 102.327 21.718 102.9C22.2513 103.46 22.918 103.74 23.718 103.74ZM30.8319 100.46C30.8319 99.3133 31.0652 98.3133 31.5319 97.46C31.9985 96.5933 32.6452 95.9267 33.4719 95.46C34.2985 94.98 35.2452 94.74 36.3119 94.74C37.6852 94.74 38.8185 95.0867 39.7119 95.78C40.6185 96.46 41.2252 97.42 41.5319 98.66H38.5119C38.3519 98.18 38.0785 97.8067 37.6919 97.54C37.3185 97.26 36.8519 97.12 36.2919 97.12C35.4919 97.12 34.8585 97.4133 34.3919 98C33.9252 98.5733 33.6919 99.3933 33.6919 100.46C33.6919 101.513 33.9252 102.333 34.3919 102.92C34.8585 103.493 35.4919 103.78 36.2919 103.78C37.4252 103.78 38.1652 103.273 38.5119 102.26H41.5319C41.2252 103.46 40.6185 104.413 39.7119 105.12C38.8052 105.827 37.6719 106.18 36.3119 106.18C35.2452 106.18 34.2985 105.947 33.4719 105.48C32.6452 105 31.9985 104.333 31.5319 103.48C31.0652 102.613 30.8319 101.607 30.8319 100.46ZM50.1431 106L46.3831 101.28V106H43.5831V91.2H46.3831V99.62L50.1031 94.92H53.7431L48.8631 100.48L53.7831 106H50.1431ZM54.5428 100.46C54.5428 99.3133 54.7761 98.3133 55.2428 97.46C55.7095 96.5933 56.3561 95.9267 57.1828 95.46C58.0095 94.98 58.9561 94.74 60.0228 94.74C61.3961 94.74 62.5295 95.0867 63.4228 95.78C64.3295 96.46 64.9361 97.42 65.2428 98.66H62.2228C62.0628 98.18 61.7895 97.8067 61.4028 97.54C61.0295 97.26 60.5628 97.12 60.0028 97.12C59.2028 97.12 58.5695 97.4133 58.1028 98C57.6361 98.5733 57.4028 99.3933 57.4028 100.46C57.4028 101.513 57.6361 102.333 58.1028 102.92C58.5695 103.493 59.2028 103.78 60.0028 103.78C61.1361 103.78 61.8761 103.273 62.2228 102.26H65.2428C64.9361 103.46 64.3295 104.413 63.4228 105.12C62.5161 105.827 61.3828 106.18 60.0228 106.18C58.9561 106.18 58.0095 105.947 57.1828 105.48C56.3561 105 55.7095 104.333 55.2428 103.48C54.7761 102.613 54.5428 101.607 54.5428 100.46ZM73.5341 94.76C74.3741 94.76 75.1207 94.9467 75.7741 95.32C76.4274 95.68 76.9341 96.22 77.2941 96.94C77.6674 97.6467 77.8541 98.5 77.8541 99.5V106H75.0541V99.88C75.0541 99 74.8341 98.3267 74.3941 97.86C73.9541 97.38 73.3541 97.14 72.5941 97.14C71.8207 97.14 71.2074 97.38 70.7541 97.86C70.3141 98.3267 70.0941 99 70.0941 99.88V106H67.2941V91.2H70.0941V96.3C70.4541 95.82 70.9341 95.4467 71.5341 95.18C72.1341 94.9 72.8007 94.76 73.5341 94.76ZM79.7967 100.42C79.7967 99.3 80.0167 98.3067 80.4567 97.44C80.9101 96.5733 81.5167 95.9067 82.2767 95.44C83.0501 94.9733 83.9101 94.74 84.8567 94.74C85.6834 94.74 86.4034 94.9067 87.0167 95.24C87.6434 95.5733 88.1434 95.9933 88.5167 96.5V94.92H91.3367V106H88.5167V104.38C88.1567 104.9 87.6567 105.333 87.0167 105.68C86.3901 106.013 85.6634 106.18 84.8367 106.18C83.9034 106.18 83.0501 105.94 82.2767 105.46C81.5167 104.98 80.9101 104.307 80.4567 103.44C80.0167 102.56 79.7967 101.553 79.7967 100.42ZM88.5167 100.46C88.5167 99.78 88.3834 99.2 88.1167 98.72C87.8501 98.2267 87.4901 97.8533 87.0367 97.6C86.5834 97.3333 86.0967 97.2 85.5767 97.2C85.0567 97.2 84.5767 97.3267 84.1367 97.58C83.6967 97.8333 83.3367 98.2067 83.0567 98.7C82.7901 99.18 82.6567 99.7533 82.6567 100.42C82.6567 101.087 82.7901 101.673 83.0567 102.18C83.3367 102.673 83.6967 103.053 84.1367 103.32C84.5901 103.587 85.0701 103.72 85.5767 103.72C86.0967 103.72 86.5834 103.593 87.0367 103.34C87.4901 103.073 87.8501 102.7 88.1167 102.22C88.3834 101.727 88.5167 101.14 88.5167 100.46ZM95.4914 93.6C94.9981 93.6 94.5847 93.4467 94.2514 93.14C93.9314 92.82 93.7714 92.4267 93.7714 91.96C93.7714 91.4933 93.9314 91.1067 94.2514 90.8C94.5847 90.48 94.9981 90.32 95.4914 90.32C95.9847 90.32 96.3914 90.48 96.7114 90.8C97.0447 91.1067 97.2114 91.4933 97.2114 91.96C97.2114 92.4267 97.0447 92.82 96.7114 93.14C96.3914 93.4467 95.9847 93.6 95.4914 93.6ZM96.8714 94.92V106H94.0714V94.92H96.8714ZM105.778 94.76C107.098 94.76 108.164 95.18 108.978 96.02C109.791 96.8467 110.198 98.0067 110.198 99.5V106H107.398V99.88C107.398 99 107.178 98.3267 106.738 97.86C106.298 97.38 105.698 97.14 104.938 97.14C104.164 97.14 103.551 97.38 103.098 97.86C102.658 98.3267 102.438 99 102.438 99.88V106H99.6378V94.92H102.438V96.3C102.811 95.82 103.284 95.4467 103.858 95.18C104.444 94.9 105.084 94.76 105.778 94.76ZM120.886 97.22V102.58C120.886 102.953 120.973 103.227 121.146 103.4C121.333 103.56 121.639 103.64 122.066 103.64H123.366V106H121.606C119.246 106 118.066 104.853 118.066 102.56V97.22H116.746V94.92H118.066V92.18H120.886V94.92H123.366V97.22H120.886ZM135.68 100.22C135.68 100.62 135.653 100.98 135.6 101.3H127.5C127.567 102.1 127.847 102.727 128.34 103.18C128.833 103.633 129.44 103.86 130.16 103.86C131.2 103.86 131.94 103.413 132.38 102.52H135.4C135.08 103.587 134.467 104.467 133.56 105.16C132.653 105.84 131.54 106.18 130.22 106.18C129.153 106.18 128.193 105.947 127.34 105.48C126.5 105 125.84 104.327 125.36 103.46C124.893 102.593 124.66 101.593 124.66 100.46C124.66 99.3133 124.893 98.3067 125.36 97.44C125.827 96.5733 126.48 95.9067 127.32 95.44C128.16 94.9733 129.127 94.74 130.22 94.74C131.273 94.74 132.213 94.9667 133.04 95.42C133.88 95.8733 134.527 96.52 134.98 97.36C135.447 98.1867 135.68 99.14 135.68 100.22ZM132.78 99.42C132.767 98.7 132.507 98.1267 132 97.7C131.493 97.26 130.873 97.04 130.14 97.04C129.447 97.04 128.86 97.2533 128.38 97.68C127.913 98.0933 127.627 98.6733 127.52 99.42H132.78ZM137.004 100.46C137.004 99.3133 137.237 98.3133 137.704 97.46C138.17 96.5933 138.817 95.9267 139.644 95.46C140.47 94.98 141.417 94.74 142.484 94.74C143.857 94.74 144.99 95.0867 145.884 95.78C146.79 96.46 147.397 97.42 147.704 98.66H144.684C144.524 98.18 144.25 97.8067 143.864 97.54C143.49 97.26 143.024 97.12 142.464 97.12C141.664 97.12 141.03 97.4133 140.564 98C140.097 98.5733 139.864 99.3933 139.864 100.46C139.864 101.513 140.097 102.333 140.564 102.92C141.03 103.493 141.664 103.78 142.464 103.78C143.597 103.78 144.337 103.273 144.684 102.26H147.704C147.397 103.46 146.79 104.413 145.884 105.12C144.977 105.827 143.844 106.18 142.484 106.18C141.417 106.18 140.47 105.947 139.644 105.48C138.817 105 138.17 104.333 137.704 103.48C137.237 102.613 137.004 101.607 137.004 100.46ZM155.995 94.76C156.835 94.76 157.582 94.9467 158.235 95.32C158.888 95.68 159.395 96.22 159.755 96.94C160.128 97.6467 160.315 98.5 160.315 99.5V106H157.515V99.88C157.515 99 157.295 98.3267 156.855 97.86C156.415 97.38 155.815 97.14 155.055 97.14C154.282 97.14 153.668 97.38 153.215 97.86C152.775 98.3267 152.555 99 152.555 99.88V106H149.755V91.2H152.555V96.3C152.915 95.82 153.395 95.4467 153.995 95.18C154.595 94.9 155.262 94.76 155.995 94.76ZM169.118 94.76C170.438 94.76 171.504 95.18 172.318 96.02C173.131 96.8467 173.538 98.0067 173.538 99.5V106H170.738V99.88C170.738 99 170.518 98.3267 170.078 97.86C169.638 97.38 169.038 97.14 168.278 97.14C167.504 97.14 166.891 97.38 166.438 97.86C165.998 98.3267 165.778 99 165.778 99.88V106H162.978V94.92H165.778V96.3C166.151 95.82 166.624 95.4467 167.198 95.18C167.784 94.9 168.424 94.76 169.118 94.76ZM181.12 106.18C180.054 106.18 179.094 105.947 178.24 105.48C177.387 105 176.714 104.327 176.22 103.46C175.74 102.593 175.5 101.593 175.5 100.46C175.5 99.3267 175.747 98.3267 176.24 97.46C176.747 96.5933 177.434 95.9267 178.3 95.46C179.167 94.98 180.134 94.74 181.2 94.74C182.267 94.74 183.234 94.98 184.1 95.46C184.967 95.9267 185.647 96.5933 186.14 97.46C186.647 98.3267 186.9 99.3267 186.9 100.46C186.9 101.593 186.64 102.593 186.12 103.46C185.614 104.327 184.92 105 184.04 105.48C183.174 105.947 182.2 106.18 181.12 106.18ZM181.12 103.74C181.627 103.74 182.1 103.62 182.54 103.38C182.994 103.127 183.354 102.753 183.62 102.26C183.887 101.767 184.02 101.167 184.02 100.46C184.02 99.4067 183.74 98.6 183.18 98.04C182.634 97.4667 181.96 97.18 181.16 97.18C180.36 97.18 179.687 97.4667 179.14 98.04C178.607 98.6 178.34 99.4067 178.34 100.46C178.34 101.513 178.6 102.327 179.12 102.9C179.654 103.46 180.32 103.74 181.12 103.74ZM191.754 91.2V106H188.954V91.2H191.754ZM199.441 106.18C198.374 106.18 197.414 105.947 196.561 105.48C195.707 105 195.034 104.327 194.541 103.46C194.061 102.593 193.821 101.593 193.821 100.46C193.821 99.3267 194.067 98.3267 194.561 97.46C195.067 96.5933 195.754 95.9267 196.621 95.46C197.487 94.98 198.454 94.74 199.521 94.74C200.587 94.74 201.554 94.98 202.421 95.46C203.287 95.9267 203.967 96.5933 204.461 97.46C204.967 98.3267 205.221 99.3267 205.221 100.46C205.221 101.593 204.961 102.593 204.441 103.46C203.934 104.327 203.241 105 202.361 105.48C201.494 105.947 200.521 106.18 199.441 106.18ZM199.441 103.74C199.947 103.74 200.421 103.62 200.861 103.38C201.314 103.127 201.674 102.753 201.941 102.26C202.207 101.767 202.341 101.167 202.341 100.46C202.341 99.4067 202.061 98.6 201.501 98.04C200.954 97.4667 200.281 97.18 199.481 97.18C198.681 97.18 198.007 97.4667 197.461 98.04C196.927 98.6 196.661 99.4067 196.661 100.46C196.661 101.513 196.921 102.327 197.441 102.9C197.974 103.46 198.641 103.74 199.441 103.74ZM211.615 94.74C212.441 94.74 213.168 94.9067 213.795 95.24C214.421 95.56 214.915 95.98 215.275 96.5V94.92H218.095V106.08C218.095 107.107 217.888 108.02 217.475 108.82C217.061 109.633 216.441 110.273 215.615 110.74C214.788 111.22 213.788 111.46 212.615 111.46C211.041 111.46 209.748 111.093 208.735 110.36C207.735 109.627 207.168 108.627 207.035 107.36H209.815C209.961 107.867 210.275 108.267 210.755 108.56C211.248 108.867 211.841 109.02 212.535 109.02C213.348 109.02 214.008 108.773 214.515 108.28C215.021 107.8 215.275 107.067 215.275 106.08V104.36C214.915 104.88 214.415 105.313 213.775 105.66C213.148 106.007 212.428 106.18 211.615 106.18C210.681 106.18 209.828 105.94 209.055 105.46C208.281 104.98 207.668 104.307 207.215 103.44C206.775 102.56 206.555 101.553 206.555 100.42C206.555 99.3 206.775 98.3067 207.215 97.44C207.668 96.5733 208.275 95.9067 209.035 95.44C209.808 94.9733 210.668 94.74 211.615 94.74ZM215.275 100.46C215.275 99.78 215.141 99.2 214.875 98.72C214.608 98.2267 214.248 97.8533 213.795 97.6C213.341 97.3333 212.855 97.2 212.335 97.2C211.815 97.2 211.335 97.3267 210.895 97.58C210.455 97.8333 210.095 98.2067 209.815 98.7C209.548 99.18 209.415 99.7533 209.415 100.42C209.415 101.087 209.548 101.673 209.815 102.18C210.095 102.673 210.455 103.053 210.895 103.32C211.348 103.587 211.828 103.72 212.335 103.72C212.855 103.72 213.341 103.593 213.795 103.34C214.248 103.073 214.608 102.7 214.875 102.22C215.141 101.727 215.275 101.14 215.275 100.46ZM231.429 94.92L224.569 111.24H221.589L223.989 105.72L219.549 94.92H222.689L225.549 102.66L228.449 94.92H231.429Z" fill="white"/>
</svg>
