<svg width="86" height="80" viewBox="0 0 86 80" fill="none" xmlns="http://www.w3.org/2000/svg">
<g filter="url(#filter0_d)">
<rect x="3" width="80" height="75.9236" rx="10.1911" fill="#95FFB9"/>
</g>
<path d="M40.6599 13.3669L42.7584 13.1967L44.0687 29.3512L41.9701 29.5214L40.6599 13.3669Z" fill="#DBDBDB"/>
<path d="M20.3594 21.9208L21.6527 20.2594L36.2424 31.6163L34.9491 33.2777L20.3594 21.9208Z" fill="#DBDBDB"/>
<path d="M20.1296 17.2058L38.9883 10.532L39.6903 12.5159L20.8316 19.1897L20.1296 17.2058Z" fill="#DBDBDB"/>
<path d="M43.0151 13.0938L43.912 11.1879L67.7735 22.4169L66.8766 24.3228L43.0151 13.0938Z" fill="#DBDBDB"/>
<path d="M21.5254 20.9044L21.7158 18.8077L65.3626 22.7722L65.1722 24.8689L21.5254 20.9044Z" fill="#DBDBDB"/>
<path d="M68.1196 26.4546L70.2153 26.2523L71.4432 38.972L69.3475 39.1742L68.1196 26.4546Z" fill="#DBDBDB"/>
<path d="M52.0862 39.6425L52.256 37.5428L69.0772 38.9031L68.9074 41.0027L52.0862 39.6425Z" fill="#DBDBDB"/>
<path d="M64.9095 58.8812L69.5563 42.2122L71.5843 42.7776L66.9375 59.4465L64.9095 58.8812Z" fill="#DBDBDB"/>
<path d="M45.162 64.652L63.8957 59.6419L64.4397 61.6758L45.706 66.686L45.162 64.652Z" fill="#DBDBDB"/>
<path d="M25.4709 61.4507L67.73 40.4134L68.6687 42.2992L26.4097 63.3365L25.4709 61.4507Z" fill="#DBDBDB"/>
<path d="M15.4755 48.6079L17.4137 47.7856L23.5544 62.2601L21.6163 63.0824L15.4755 48.6079Z" fill="#DBDBDB"/>
<path d="M14.5179 44.5511L17.5053 21.7432L19.5928 22.0166L16.6055 44.8244L14.5179 44.5511Z" fill="#DBDBDB"/>
<path d="M17.4487 43.5972L34.4392 37.8109L35.1177 39.8028L18.1272 45.5892L17.4487 43.5972Z" fill="#DBDBDB"/>
<path d="M24.6087 66.0026L24.7633 63.9029L41.4311 65.1305L41.2764 67.2302L24.6087 66.0026Z" fill="#DBDBDB"/>
<path d="M43.1003 64.1355L66.1307 27.1425L67.9171 28.2547L44.8868 65.2477L43.1003 64.1355Z" fill="#DBDBDB"/>
<path d="M16.8737 47.9872L18.1301 46.2977L42.4301 64.3696L41.1737 66.0591L16.8737 47.9872Z" fill="#DBDBDB"/>
<path d="M14.9955 44.223L39.2916 12.3759L40.9655 13.6529L16.6693 45.5001L14.9955 44.223Z" fill="#DBDBDB"/>
<path d="M48.6289 45.9322L50.0689 44.3962L64.5358 57.9583L63.0958 59.4943L48.6289 45.9322Z" fill="#DBDBDB"/>
<path d="M22.8751 61.6045L36.3885 43.1851L38.0869 44.4311L24.5735 62.8507L22.8751 61.6045Z" fill="#DBDBDB"/>
<path d="M50.2331 32.6611L64.8697 24.9553L65.8506 26.8183L51.214 34.5242L50.2331 32.6611Z" fill="#DBDBDB"/>
<path d="M41.7092 14.5102C43.4534 14.5102 44.8674 13.0963 44.8674 11.3521C44.8674 9.60792 43.4534 8.19397 41.7092 8.19397C39.965 8.19397 38.5511 9.60792 38.5511 11.3521C38.5511 13.0963 39.965 14.5102 41.7092 14.5102Z" fill="white"/>
<path d="M15.3915 49.2498C17.1357 49.2498 18.5496 47.8359 18.5496 46.0917C18.5496 44.3475 17.1357 42.9335 15.3915 42.9335C13.6473 42.9335 12.2333 44.3475 12.2333 46.0917C12.2333 47.8359 13.6473 49.2498 15.3915 49.2498Z" fill="white"/>
<path d="M42.762 69.2513C44.5062 69.2513 45.9202 67.8374 45.9202 66.0932C45.9202 64.349 44.5062 62.9351 42.762 62.9351C41.0178 62.9351 39.6039 64.349 39.6039 66.0932C39.6039 67.8374 41.0178 69.2513 42.762 69.2513Z" fill="white"/>
<path d="M68.0271 28.1955C69.7713 28.1955 71.1852 26.7816 71.1852 25.0374C71.1852 23.2932 69.7713 21.8792 68.0271 21.8792C66.2829 21.8792 64.869 23.2932 64.869 25.0374C64.869 26.7816 66.2829 28.1955 68.0271 28.1955Z" fill="white"/>
<path d="M19.6024 22.932C21.3465 22.932 22.7605 21.518 22.7605 19.7738C22.7605 18.0296 21.3465 16.6157 19.6024 16.6157C17.8582 16.6157 16.4442 18.0296 16.4442 19.7738C16.4442 21.518 17.8582 22.932 19.6024 22.932Z" fill="white"/>
<path d="M65.9217 63.9877C67.6659 63.9877 69.0798 62.5738 69.0798 60.8296C69.0798 59.0854 67.6659 57.6714 65.9217 57.6714C64.1775 57.6714 62.7635 59.0854 62.7635 60.8296C62.7635 62.5738 64.1775 63.9877 65.9217 63.9877Z" fill="white"/>
<path d="M70.1325 43.9862C71.8767 43.9862 73.2906 42.5723 73.2906 40.8281C73.2906 39.0839 71.8767 37.67 70.1325 37.67C68.3883 37.67 66.9744 39.0839 66.9744 40.8281C66.9744 42.5723 68.3883 43.9862 70.1325 43.9862Z" fill="white"/>
<path d="M23.8132 67.1459C25.5574 67.1459 26.9713 65.7319 26.9713 63.9877C26.9713 62.2435 25.5574 60.8296 23.8132 60.8296C22.069 60.8296 20.655 62.2435 20.655 63.9877C20.655 65.7319 22.069 67.1459 23.8132 67.1459Z" fill="white"/>
<path d="M71.1052 36.7415L70.3599 28.5387C72.2936 27.2468 72.8139 24.6318 71.522 22.6981C70.7419 21.5305 69.4313 20.8286 68.0271 20.8265C67.2988 20.831 66.5844 21.0267 65.9554 21.394L45.837 12.1743C46.3006 9.90136 44.8336 7.6829 42.5607 7.21931C40.2877 6.75572 38.0693 8.22267 37.6057 10.4956C37.5741 10.6505 37.5512 10.8072 37.5373 10.9647L22.109 16.4104C21.3876 15.8633 20.5078 15.5657 19.6025 15.563C17.2769 15.569 15.3966 17.4593 15.4027 19.7849C15.4064 21.1962 16.1168 22.5118 17.2949 23.2888L14.7516 41.9461C12.4557 42.2787 10.8643 44.4094 11.1968 46.7052C11.5293 49.0011 13.6602 50.5925 15.956 50.26C16.0272 50.2497 16.098 50.2376 16.1685 50.2237L20.8068 61.0487C19.1768 62.7009 19.1949 65.3618 20.8472 66.9917C22.4994 68.6217 25.1603 68.6035 26.7901 66.9513C27.0147 66.7236 27.2125 66.4711 27.3798 66.1986L38.6575 67.0039C39.1549 69.2679 41.3935 70.7001 43.6575 70.2027C45.4912 69.7999 46.8343 68.2283 46.9465 66.3544L62.0182 62.3888C62.8762 64.5504 65.324 65.6071 67.4855 64.7493C69.6471 63.8913 70.7038 61.4435 69.8459 59.282C69.4235 58.2177 68.5858 57.3713 67.526 56.9379L70.9505 44.9538C73.2273 44.5031 74.7075 42.292 74.2568 40.0153C73.9373 38.4016 72.7058 37.1227 71.1052 36.7426V36.7415ZM68.9998 36.793C67.9655 37.0858 67.0827 37.7639 66.5333 38.6879L61.6835 38.2995L67.3502 29.184C67.5738 29.2234 67.8001 29.2448 68.0271 29.2482C68.1229 29.2482 68.2124 29.2261 68.3071 29.2198L68.9998 36.793ZM63.7647 57.2325L55.0198 49.0392L66.667 43.2156C67.1881 43.964 67.938 44.5228 68.804 44.8084L65.4143 56.6746C64.8313 56.7421 64.2692 56.9322 63.7647 57.2325ZM61.7645 60.2854L46.5518 64.2846C46.4106 63.9943 46.2365 63.7213 46.0328 63.4709L53.8797 50.8489L62.293 58.7368C62.0169 59.2116 61.8381 59.7366 61.7666 60.2812L61.7645 60.2854ZM40.2997 62.695L35.2193 58.9347L51.3943 50.8457L44.3411 62.1981C43.0002 61.6446 41.4674 61.8322 40.2997 62.6929V62.695ZM26.625 60.8812C26.4809 60.7441 26.3272 60.6174 26.1649 60.5022L28.8873 56.8714L31.2032 58.5863L26.625 60.8812ZM30.1474 55.1913L36.2847 47.0096C40.1939 50.0871 45.7286 49.9902 49.5278 46.778L51.3722 48.5076L33.3181 57.5346L30.1474 55.1913ZM40.885 15.484L41.2735 20.537L36.1152 20.057L39.8892 15.1345C40.2066 15.2924 40.543 15.4085 40.8903 15.4798L40.885 15.484ZM33.636 19.8296L23.7153 18.9074C23.6612 18.6519 23.5833 18.402 23.4826 18.1611L37.8774 13.0775C37.9881 13.3233 38.1223 13.5578 38.2785 13.7776L33.636 19.8296ZM23.6026 21.0076L32.1233 21.8003L28.9504 25.9448L23.371 21.6087C23.4636 21.4145 23.5409 21.2135 23.6026 21.0076ZM34.5993 22.0308L41.4419 22.6625L41.8704 28.2366C39.5018 28.4371 37.2717 29.4372 35.5467 31.0726L30.6106 27.2323L34.5993 22.0308ZM65.9606 41.2102L57.1179 45.6316L60.4265 40.3091L65.928 40.7491C65.928 40.7765 65.9196 40.8018 65.9196 40.8291C65.9218 40.9586 65.9492 41.0828 65.9606 41.2102ZM53.5218 47.4296L53.3828 47.5002L50.9963 45.2632C52.2641 43.6763 53.0428 41.755 53.2376 39.7333L58.0664 40.1186L53.5218 47.4296ZM34.3403 38.7227C34.3403 34.0715 38.1109 30.301 42.762 30.301C47.4132 30.301 51.1837 34.0715 51.1837 38.7227C51.1837 43.3738 47.4132 47.1444 42.762 47.1444C38.1131 47.1391 34.3456 43.3716 34.3403 38.7227ZM53.2302 37.6194C53.0965 36.3652 52.7362 35.1457 52.167 34.0202L64.6058 27.4734C64.8332 27.7875 65.1032 28.0684 65.408 28.3082L59.318 38.1068L53.2302 37.6194ZM63.8626 25.4858L51.0363 32.2369C49.3083 30.0273 46.769 28.5999 43.9832 28.2724L43.5621 22.8646L63.8384 24.7511C63.831 24.8469 63.8089 24.9395 63.8089 25.0374C63.8184 25.1877 63.836 25.3374 63.8615 25.4858H63.8626ZM34.1656 32.6675C32.9203 34.4207 32.2461 36.5154 32.2349 38.6658L18.4801 43.2493C18.4528 43.2198 18.4317 43.1862 18.4043 43.1577L29.3315 28.9051L34.1656 32.6675ZM19.4834 45.1358L32.4454 40.8197C32.8014 42.5652 33.5963 44.1912 34.7551 45.5442L28.4567 53.9417L19.4181 47.2559C19.5347 46.8785 19.5968 46.4865 19.6023 46.0916C19.5994 45.7695 19.5596 45.4487 19.4834 45.1358ZM70.1325 25.0374C70.1325 26.2002 69.19 27.1428 68.0271 27.1428C66.8643 27.1428 65.9217 26.2002 65.9217 25.0374C65.9217 23.8745 66.8643 22.932 68.0271 22.932C69.19 22.932 70.1325 23.8745 70.1325 25.0374ZM63.5501 22.6077L43.4064 20.7339L42.9853 15.3419C43.7304 15.1031 44.3935 14.6599 44.8992 14.0629L63.5501 22.6077ZM41.7094 9.2467C42.8723 9.2467 43.8149 10.1893 43.8149 11.3521C43.8149 12.515 42.8723 13.4576 41.7094 13.4576C40.5466 13.4576 39.604 12.515 39.604 11.3521C39.604 10.1893 40.5466 9.2467 41.7094 9.2467ZM19.6025 17.6684C20.7653 17.6684 21.7079 18.611 21.7079 19.7738C21.7079 20.9367 20.7653 21.8793 19.6025 21.8793C18.4396 21.8793 17.497 20.9367 17.497 19.7738C17.497 18.611 18.4396 17.6684 19.6025 17.6684ZM19.6025 23.9847C20.4665 23.984 21.309 23.7156 22.0142 23.2162L27.6694 27.6144L16.917 41.6397L19.3288 23.9541C19.4214 23.9626 19.5086 23.9847 19.6025 23.9847ZM13.2862 46.0916C13.2862 44.9288 14.2288 43.9862 15.3916 43.9862C16.5545 43.9862 17.497 44.9288 17.497 46.0916C17.497 47.2545 16.5545 48.1971 15.3916 48.1971C14.2288 48.1971 13.2862 47.2544 13.2862 46.0916ZM18.3496 49.0824L27.1924 55.6197L24.0564 59.8011C23.9732 59.8011 23.8953 59.7769 23.8111 59.7769C23.4107 59.7826 23.0131 59.8464 22.631 59.9664L18.0685 49.315C18.1622 49.2371 18.2633 49.1687 18.3496 49.0824ZM23.8133 66.0932C22.6505 66.0932 21.7079 65.1506 21.7079 63.9878C21.7079 62.8249 22.6505 61.8823 23.8133 61.8823C24.9762 61.8823 25.9187 62.8249 25.9187 63.9878C25.9187 65.1506 24.976 66.0932 23.8133 66.0932ZM27.7863 62.6519L33.1077 59.9874L38.9587 64.312C38.8741 64.502 38.8037 64.6979 38.7481 64.8984L28.0105 64.132C28.0105 64.0814 28.0252 64.0351 28.0252 63.9846C28.0192 63.5302 27.9385 63.0799 27.7863 62.6519ZM42.762 68.1986C41.5992 68.1986 40.6566 67.256 40.6566 66.0932C40.6566 64.9303 41.5992 63.9878 42.762 63.9878C43.9249 63.9878 44.8674 64.9303 44.8674 66.0932C44.8674 67.256 43.9249 68.1986 42.762 68.1986ZM65.9217 62.935C64.7588 62.935 63.8163 61.9925 63.8163 60.8296C63.8163 59.6668 64.7588 58.7242 65.9217 58.7242C67.0845 58.7242 68.0271 59.6668 68.0271 60.8296C68.0271 61.9925 67.0845 62.935 65.9217 62.935ZM70.1325 42.9335C68.9697 42.9335 68.0271 41.9909 68.0271 40.8281C68.0271 39.6652 68.9697 38.7227 70.1325 38.7227C71.2954 38.7227 72.238 39.6652 72.238 40.8281C72.238 41.9908 71.2954 42.9335 70.1325 42.9335Z" fill="black"/>
<g filter="url(#filter1_d)">
<path d="M43.0632 56.591C52.7652 56.591 60.6303 48.7259 60.6303 39.0239C60.6303 29.3218 52.7652 21.4567 43.0632 21.4567C33.3611 21.4567 25.496 29.3218 25.496 39.0239C25.496 48.7259 33.3611 56.591 43.0632 56.591Z" fill="#002296"/>
</g>
<path d="M49.8419 42.3243C49.5322 42.3243 49.2497 42.1495 49.1108 41.8726L48.2073 40.0656L45.6692 45.1418C45.5304 45.4187 45.2479 45.5935 44.9382 45.5935C44.6285 45.5935 44.3459 45.4187 44.2071 45.1418L43.3036 43.3348L42.4001 45.1418C42.1223 45.6957 41.2157 45.6957 40.9379 45.1418L38.3998 40.0656L37.4963 41.8726C37.3574 42.1495 37.0749 42.3243 36.7652 42.3243H30.8828C32.5649 44.9709 35.5944 47.4849 39.3839 50.6832C40.4478 51.5811 41.5796 52.5365 42.768 53.5669C42.922 53.7002 43.1128 53.7664 43.3035 53.7664C43.4943 53.7664 43.685 53.7002 43.8391 53.5669C45.0275 52.5365 46.1592 51.5811 47.2231 50.6832C51.0127 47.4849 54.0421 44.9709 55.7243 42.3243H49.8419Z" fill="white"/>
<path fill-rule="evenodd" clip-rule="evenodd" d="M33.5525 42.3352C35.2416 44.5933 37.8792 46.8184 41.0925 49.5292L41.4644 49.843C42.5251 50.7382 43.6533 51.6906 44.8378 52.7175C44.5096 52.9984 44.1766 53.2851 43.8391 53.5777C43.685 53.711 43.4943 53.7773 43.3035 53.7773C43.1128 53.7773 42.922 53.711 42.768 53.5777C41.5796 52.5473 40.4478 51.5919 39.3839 50.6941L39.012 50.3803C35.3963 47.33 32.5095 44.8946 30.8828 42.3352H33.5525Z" fill="#01FE87"/>
<path d="M49.7619 28.719C46.4568 28.719 44.3354 31.0081 43.2236 33.0697C42.1118 31.008 39.9903 28.719 36.6853 28.719C32.4918 28.719 29.2751 32.1214 29.2751 36.6341C29.2751 37.8115 29.5109 38.8986 29.945 39.9431H36.1801L37.5887 37.1257C37.8665 36.5718 38.7732 36.5718 39.0509 37.1257L41.589 42.2019L42.4925 40.3949C42.7703 39.841 43.6769 39.841 43.9547 40.3949L44.8582 42.2019L47.3962 37.1258C47.674 36.5719 48.5807 36.5719 48.8584 37.1258L50.2671 39.9431H56.5022C56.9363 38.8986 57.172 37.8115 57.172 36.6341C57.172 32.1214 53.9553 28.719 49.7619 28.719Z" fill="white"/>
<path fill-rule="evenodd" clip-rule="evenodd" d="M36.5907 28.7177C37.506 28.7177 38.3305 28.8933 39.068 29.191C34.9117 29.2318 31.7338 32.6203 31.7338 37.1057C31.7338 38.1066 31.9042 39.0422 32.2219 39.9419H29.8504C29.4163 38.8973 29.1805 37.8102 29.1805 36.6328C29.1805 32.1202 32.3972 28.7177 36.5907 28.7177Z" fill="#01FE87"/>
<defs>
<filter id="filter0_d" x="0.961783" y="0" width="84.0764" height="80" filterUnits="userSpaceOnUse" color-interpolation-filters="sRGB">
<feFlood flood-opacity="0" result="BackgroundImageFix"/>
<feColorMatrix in="SourceAlpha" type="matrix" values="0 0 0 0 0 0 0 0 0 0 0 0 0 0 0 0 0 0 127 0"/>
<feOffset dy="2.03822"/>
<feGaussianBlur stdDeviation="1.01911"/>
<feColorMatrix type="matrix" values="0 0 0 0 0 0 0 0 0 0 0 0 0 0 0 0 0 0 0.25 0"/>
<feBlend mode="normal" in2="BackgroundImageFix" result="effect1_dropShadow"/>
<feBlend mode="normal" in="SourceGraphic" in2="effect1_dropShadow" result="shape"/>
</filter>
<filter id="filter1_d" x="24.8241" y="21.4567" width="36.4781" height="36.4781" filterUnits="userSpaceOnUse" color-interpolation-filters="sRGB">
<feFlood flood-opacity="0" result="BackgroundImageFix"/>
<feColorMatrix in="SourceAlpha" type="matrix" values="0 0 0 0 0 0 0 0 0 0 0 0 0 0 0 0 0 0 127 0"/>
<feOffset dy="0.67193"/>
<feGaussianBlur stdDeviation="0.335965"/>
<feColorMatrix type="matrix" values="0 0 0 0 0 0 0 0 0 0 0 0 0 0 0 0 0 0 0.25 0"/>
<feBlend mode="normal" in2="BackgroundImageFix" result="effect1_dropShadow"/>
<feBlend mode="normal" in="SourceGraphic" in2="effect1_dropShadow" result="shape"/>
</filter>
</defs>
</svg>
