<svg width="350" height="101" viewBox="0 0 350 101" fill="none" xmlns="http://www.w3.org/2000/svg">
<path d="M99.1456 49.7745V53.3155C99.1456 54.185 98.4413 54.8892 97.5718 54.8892H94.0309C93.1614 54.8892 92.4572 54.185 92.4572 53.3155C92.4572 52.0771 92.4572 51.0129 92.4572 49.7745C92.4572 48.9051 93.1614 48.2008 94.0309 48.2008H97.5718C98.4413 48.2008 99.1456 48.9051 99.1456 49.7745Z" fill="#8BC4FF"/>
<path d="M87.9327 84.0033V87.5442C87.9327 88.4137 87.2284 89.118 86.3589 89.118H82.818C81.9485 89.118 81.2443 88.4137 81.2443 87.5442C81.2443 86.3059 81.2443 85.2416 81.2443 84.0033C81.2443 83.1338 81.9485 82.4296 82.818 82.4296H86.3589C87.2284 82.4296 87.9327 83.1338 87.9327 84.0033Z" fill="#8BC4FF"/>
<path d="M87.9327 15.546V19.0869C87.9327 19.9564 87.2284 20.6607 86.3589 20.6607C85.1206 20.6607 84.0563 20.6607 82.818 20.6607C81.9485 20.6607 81.2443 19.9564 81.2443 19.0869C81.2443 17.8486 81.2443 16.7844 81.2443 15.546C81.2443 14.6765 81.9485 13.9723 82.818 13.9723H86.3589C87.2284 13.9723 87.9327 14.6765 87.9327 15.546Z" fill="#8BC4FF"/>
<path d="M53.7038 98.7571C53.7038 99.6266 52.9995 100.331 52.13 100.331H48.5891C47.7196 100.331 47.0154 99.6266 47.0154 98.7571C47.0154 97.5188 47.0154 96.4545 47.0154 95.2162C47.0154 94.3467 47.7196 93.6425 48.5891 93.6425H52.13C52.9995 93.6425 53.7038 94.3467 53.7038 95.2162V98.7571Z" fill="#8BC4FF"/>
<path d="M53.7038 7.87357C53.7038 8.74306 52.9996 9.44731 52.1301 9.44731C50.8918 9.44731 49.8275 9.44731 48.5892 9.44731C47.7197 9.44731 47.0154 8.74306 47.0154 7.87357C47.0154 6.63523 47.0154 5.57099 47.0154 4.33265C47.0154 3.46316 47.7197 2.75891 48.5892 2.75891H52.1301C52.9996 2.75891 53.7038 3.46316 53.7038 4.33265V7.87357Z" fill="#8BC4FF"/>
<path d="M19.4749 87.5442C19.4749 88.4137 18.7706 89.118 17.9012 89.118H14.3602C13.4907 89.118 12.7865 88.4137 12.7865 87.5442V84.0033C12.7865 83.1338 13.4907 82.4296 14.3602 82.4296H17.9012C18.7706 82.4296 19.4749 83.1338 19.4749 84.0033V87.5442Z" fill="#8BC4FF"/>
<path d="M19.4749 19.0869C19.4749 19.9564 18.7706 20.6607 17.9012 20.6607C16.6628 20.6607 15.5986 20.6607 14.3602 20.6607C13.4907 20.6607 12.7865 19.9564 12.7865 19.0869V15.546C12.7865 14.6765 13.4907 13.9723 14.3602 13.9723H17.9012C18.7706 13.9723 19.4749 14.6765 19.4749 15.546V19.0869Z" fill="#8BC4FF"/>
<path d="M8.26213 53.3155C8.26213 54.185 7.55788 54.8892 6.68839 54.8892C5.45005 54.8892 4.38581 54.8892 3.14747 54.8892C2.27798 54.8892 1.57373 54.185 1.57373 53.3155V49.7745C1.57373 48.9051 2.27798 48.2008 3.14747 48.2008H6.68839C7.55788 48.2008 8.26213 48.9051 8.26213 49.7745V53.3155Z" fill="#8BC4FF"/>
<path d="M97.5719 45.4418H97.0361C88.8878 17.1015 89.4461 19.0076 89.3665 18.83C89.5516 18.2314 89.5065 18.205 89.5065 14.3604C89.5065 12.6249 88.0945 11.2129 86.359 11.2129C82.5329 11.2129 82.4928 11.1665 81.8894 11.353C81.7092 11.2721 83.595 11.8214 55.2777 3.73075V3.14748C55.2777 1.41204 53.8656 0 52.1302 0H48.5893C46.8538 0 45.4418 1.41204 45.4418 3.14748V3.73075C17.1107 11.8255 19.0102 11.2723 18.83 11.353C18.2312 11.1679 18.205 11.2129 14.3604 11.2129C12.6249 11.2129 11.2129 12.6249 11.2129 14.3604C11.2129 18.1865 11.1663 18.2267 11.353 18.83C11.2725 19.0094 11.817 17.14 3.73075 45.4418H3.14748C1.41204 45.4418 0 46.8538 0 48.5893V52.1302C0 53.8656 1.41204 55.2777 3.14748 55.2777H3.73075C11.8318 83.6314 11.2694 81.701 11.3534 81.888C11.1671 82.4896 11.2129 82.5221 11.2129 86.359C11.2129 88.0945 12.6249 89.5065 14.3604 89.5065C18.1865 89.5065 18.2267 89.5529 18.83 89.3665C19.0102 89.4473 17.1245 88.8981 45.4418 96.9887V97.5719C45.4418 99.3074 46.8538 100.719 48.5893 100.719H52.1302C53.8656 100.719 55.2777 99.3074 55.2777 97.5719V96.9887C83.6087 88.8941 81.7092 89.4473 81.8894 89.3665C82.4882 89.5516 82.5144 89.5065 86.359 89.5065C88.0945 89.5065 89.5065 88.0945 89.5065 86.359C89.5065 82.5329 89.553 82.491 89.3661 81.8878C89.4499 81.7006 88.8859 83.6255 97.0361 55.2777H97.5719C99.3074 55.2777 100.719 53.8656 100.719 52.1302V48.5893C100.719 46.8538 99.3074 45.4418 97.5719 45.4418ZM82.0063 79.7806L75.3063 73.0806L83.0148 65.372V79.6706C82.7082 79.6706 82.4471 79.6626 82.0063 79.7806ZM47.7774 90.9935L42.9462 86.1623H48.786V90.8835C48.4793 90.8835 48.2182 90.8755 47.7774 90.9935ZM18.7132 20.9388L25.4132 27.6388L17.7046 35.3474V21.0488C18.0113 21.0488 18.2723 21.0569 18.7132 20.9388ZM52.942 9.72592L57.7732 14.5571H51.9335V9.83588C52.2401 9.83588 52.5012 9.84395 52.942 9.72592ZM79.6706 83.0148H65.372L73.0806 75.3063L79.7806 82.0063C79.6632 82.4451 79.6706 82.7298 79.6706 83.0148ZM60.9207 83.0148H51.9335V65.372L59.1136 61.3508L70.8549 73.0806L60.9207 83.0148ZM20.9388 82.0063L27.6388 75.3063L35.3474 83.0148H21.0488C21.0488 82.7011 21.0541 82.4373 20.9388 82.0063ZM29.8645 73.0806L41.4523 61.4928L48.786 65.7269V83.0148H39.7987L29.8645 73.0806ZM21.0488 17.7046H35.3474L27.6388 25.4132L20.9388 18.7132C21.0563 18.2743 21.0488 17.9896 21.0488 17.7046ZM39.7987 17.7046H48.786V34.9925L41.4521 39.2265L29.8645 27.6388L39.7987 17.7046ZM48.786 44.0388C48.0975 43.7281 48.8427 44.0715 48.8427 44.0715L43.5663 41.6403H41.4523H41.6058H43.5663L48.786 44.0388ZM51.9335 34.9925V17.7046H60.9207L70.8549 27.6388L59.2673 39.2265L51.9335 34.9925ZM65.372 17.7046H79.6706C79.6706 18.0113 79.6626 18.2723 79.7806 18.7132L73.0806 25.4132L65.372 17.7046ZM82.0063 20.9388C82.4451 21.0563 82.7296 21.0488 83.0148 21.0488V35.3474L75.3063 27.6388L82.0063 20.9388ZM79.6706 14.3604C79.6706 14.645 81.6077 14.5571 62.2245 14.5571L55.1677 7.50025C55.2112 7.33776 55.245 7.17154 55.2619 6.9998L79.6958 13.9809C79.6807 14.1056 79.6706 14.2317 79.6706 14.3604ZM48.786 14.5571H42.9462L47.7774 9.72592C48.2163 9.84336 48.5009 9.83588 48.786 9.83588V14.5571ZM45.5517 7.50025L38.4949 14.5571H21.0488C21.0488 14.3287 21.0529 14.2229 21.0236 13.9809L45.4575 6.9998C45.4744 7.17154 45.5083 7.33776 45.5517 7.50025ZM27.6388 29.8645L38.63 40.8559C38.1632 41.3047 37.4472 41.9932 36.2643 43.1305V45.9583V48.786H17.7046V39.7987L27.6388 29.8645ZM14.5571 48.786H9.83588C9.83588 48.4722 9.84119 48.2084 9.72592 47.7774L14.5571 42.9462V48.786ZM9.83588 51.9335H14.5571V57.7732L9.72592 52.942C9.84336 52.5032 9.83588 52.2185 9.83588 51.9335ZM17.7046 51.9335H36.2643V57.5891L38.9501 59.8635L27.6388 70.8549L17.7046 60.9207V51.9335ZM25.4132 73.0806L18.7132 79.7806C18.2743 79.6632 17.9896 79.6706 17.7046 79.6706V65.372L25.4132 73.0806ZM21.0488 86.359C21.0488 86.0744 19.1117 86.1623 38.4949 86.1623L45.5517 93.2192C45.5083 93.3817 45.4744 93.5479 45.4575 93.7196L21.0236 86.7385C21.0388 86.6138 21.0488 86.4877 21.0488 86.359ZM51.9335 86.1623H57.7732L52.942 90.9935C52.5032 90.8761 52.2185 90.8835 51.9335 90.8835V86.1623ZM55.1677 93.2192L62.2245 86.1623H79.6706C79.6706 86.3935 79.6669 86.4987 79.6958 86.7385L55.2619 93.7196C55.245 93.5479 55.2112 93.3817 55.1677 93.2192ZM73.0806 70.8549L61.7693 59.8635L51.9335 65.372L48.786 65.7269L41.4523 61.4928L38.9501 59.8635L36.2643 57.5891V45.9583C36.2643 45.0892 36.2643 44.8516 36.2643 43.1305L38.63 40.8559L44.1423 37.6734L48.786 34.9925H51.9335L59.2673 39.2265L62.0894 40.8557C62.5763 41.137 62.0894 40.2935 62.0894 40.8557L73.0806 29.8643L83.0148 39.7985V48.786L69.2446 48.5893C68.3755 48.5893 62.6546 48.4087 62.6546 49.2778C62.6546 50.1469 60.0481 52.942 69.7364 51.9335H83.0148V60.9207L73.0806 70.8549ZM90.8835 48.786H86.1623V42.9462L90.9935 47.7774C90.8761 48.2163 90.8835 48.5009 90.8835 48.786ZM86.1623 51.9335H90.8835C90.8835 52.2472 90.8782 52.511 90.9935 52.942L86.1623 57.7732V51.9335ZM93.7649 45.4551C93.5776 45.4711 93.3958 45.5043 93.2192 45.5517L86.1623 38.4949C86.1623 19.1011 86.0748 21.0488 86.359 21.0488C86.4883 21.0488 86.6152 21.0386 86.7405 21.0234L93.7649 45.4551ZM82.8181 14.3604H86.359V17.9013H82.8181V14.3604ZM48.5893 3.14748H52.1302V6.6884H48.5893C48.5873 3.09752 48.5692 3.14748 48.5893 3.14748ZM14.3604 14.3604H17.9013V17.9013H14.3604C14.3584 14.348 14.3401 14.3604 14.3604 14.3604ZM13.9809 21.0236C14.2229 21.0529 14.3307 21.0488 14.5571 21.0488V38.4949L7.50025 45.5517C7.33776 45.5083 7.17154 45.4744 6.9998 45.4575L13.9809 21.0236ZM3.14551 48.5893H6.6884V52.1302C5.52285 52.1302 4.46706 52.1302 3.14748 52.1302L3.14551 48.5893ZM13.9809 79.6958L6.9998 55.2619C7.17134 55.245 7.33776 55.2112 7.50025 55.1677L14.5571 62.2245V79.6706C14.3287 79.6706 14.2229 79.6665 13.9809 79.6958ZM14.3604 86.359V82.8181H17.9013C17.9013 82.896 17.9033 86.3388 17.9033 86.359C15.8145 86.359 16.4448 86.359 14.3604 86.359ZM52.1302 97.5719H48.5893V94.031H52.1302C52.1321 97.6219 52.1502 97.5719 52.1302 97.5719ZM86.359 86.359H82.8181V82.8181H86.359V86.359ZM86.7405 79.696C86.4997 79.6667 86.3931 79.6706 86.1623 79.6706V62.2245L93.2192 55.1677C93.3958 55.2149 93.5776 55.2483 93.7649 55.2643L86.7405 79.696ZM97.5719 52.1302H94.031V48.5893H97.5719C97.5739 52.1426 97.5922 52.1302 97.5719 52.1302Z" fill="#4B67C3"/>
<g filter="url(#filter0_d)">
<path d="M49.8348 77.1611C64.8474 77.1611 77.0175 64.991 77.0175 49.9784C77.0175 34.9659 64.8474 22.7958 49.8348 22.7958C34.8223 22.7958 22.6522 34.9659 22.6522 49.9784C22.6522 64.991 34.8223 77.1611 49.8348 77.1611Z" fill="#002296"/>
</g>
<path d="M67.1984 52.8331C66.744 53.7117 66.1486 54.5353 65.4129 55.271L52.3457 68.3381C51.8647 68.8191 51.3343 69.2497 50.769 69.6189C50.54 69.7691 50.2816 69.8415 50.0269 69.8434H50.0187C49.7072 69.8434 49.4012 69.7353 49.1539 69.5356C48.6353 69.1847 48.147 68.7825 47.7026 68.3382L34.6355 55.271C33.9337 54.5692 33.3501 53.7786 32.8966 52.9247C32.1472 51.5129 31.7496 49.9271 31.7496 48.2771C31.7496 45.6294 32.7739 43.1457 34.6355 41.284C36.4971 39.4224 38.9808 38.3972 41.6294 38.3972C44.278 38.3972 46.7617 39.4224 48.6225 41.284L50.0242 42.6858L50.0269 42.6831L51.4259 41.284C55.282 37.4279 61.5568 37.4279 65.4129 41.284C68.5333 44.4044 69.1288 49.108 67.1984 52.8331Z" fill="#FF576F"/>
<path d="M67.1984 52.8331C66.744 53.7117 66.1485 54.5353 65.4128 55.271L52.3457 68.3381C51.8647 68.8191 51.3343 69.2497 50.769 69.6189C50.5399 69.7691 50.2815 69.8415 50.0269 69.8434V42.683L51.4259 41.284C55.282 37.4279 61.5568 37.4279 65.4128 41.284C68.5332 44.4044 69.1288 49.108 67.1984 52.8331Z" fill="#F23652"/>
<path d="M60.7234 52.148C60.7234 53.0125 60.7234 52.4706 60.7234 54.7363H55.6735C55.3728 54.7363 55.1011 54.5856 54.908 54.3438L54.9073 54.3429C54.8161 54.2476 54.7361 54.1309 54.6739 53.9964L53.7386 51.958L52.1206 56.3003C52.1199 56.3037 52.1185 56.3063 52.1171 56.3097C52.1114 56.3242 52.1058 56.3386 52.0994 56.3531C52.0909 56.3727 52.0824 56.3922 52.0732 56.4118C52.0669 56.4246 52.0612 56.4374 52.0542 56.4501C52.0407 56.4765 52.0273 56.5021 52.0124 56.5267C52.0089 56.5318 52.0061 56.537 52.0032 56.5421C51.9834 56.5736 51.9629 56.6042 51.941 56.6332L51.9297 56.6468C51.9092 56.6732 51.8879 56.6987 51.866 56.7225C51.8638 56.7251 51.8617 56.7277 51.8596 56.7302C51.8589 56.7319 51.8575 56.7327 51.8561 56.7344C51.8321 56.76 51.8073 56.7838 51.7819 56.8068C51.7585 56.8273 51.7344 56.8468 51.7097 56.8647C51.7005 56.8716 51.6906 56.8783 51.6814 56.8843C51.6659 56.8954 51.6503 56.9056 51.634 56.9158C51.6227 56.9227 51.6113 56.9294 51.6 56.9363C51.5838 56.9448 51.5675 56.9533 51.5512 56.961C51.5371 56.9678 51.5229 56.9746 51.5088 56.9805C51.4876 56.9899 51.4656 56.9984 51.4437 57.0061C51.4324 57.0095 51.4217 57.0129 51.4104 57.0163C51.3927 57.0214 51.3744 57.0265 51.3567 57.0308C51.3461 57.0333 51.3362 57.0359 51.3262 57.0376C51.305 57.0418 51.2831 57.0452 51.2618 57.0478C51.2548 57.0487 51.2484 57.0495 51.2413 57.0503C51.2116 57.0537 51.1819 57.0554 51.1522 57.0554C51.063 57.0554 50.9739 57.0401 50.8854 57.012C50.8657 57.0061 50.8458 57.001 50.8267 56.9933C50.821 56.9916 50.8147 56.9882 50.809 56.9857C50.7786 56.973 50.7489 56.9602 50.7199 56.944H50.7184C50.7114 56.9397 50.705 56.9355 50.6987 56.9312C50.6732 56.9168 50.6477 56.9014 50.623 56.8844C50.6032 56.8716 50.5855 56.8563 50.5671 56.841C50.5543 56.8316 50.5423 56.8231 50.5303 56.8129C50.5006 56.7874 50.4723 56.7593 50.4454 56.7303C50.4411 56.7261 50.4376 56.721 50.4334 56.7158C50.41 56.6903 50.3874 56.663 50.3661 56.635C50.3647 56.6332 50.3633 56.6316 50.3612 56.629L49.0984 54.9287L49.0764 54.8989L47.5115 56.8249C47.5115 56.8249 47.5108 56.8257 47.5101 56.8266C47.4606 56.8879 47.4047 56.9432 47.3445 56.9926C47.3375 56.9986 47.3297 57.0028 47.3219 57.0088C47.2999 57.0258 47.278 57.042 47.2554 57.0573C47.1889 57.0999 47.1195 57.1331 47.0481 57.1578C47.0212 57.1671 46.995 57.1748 46.9688 57.1816C46.9596 57.1842 46.9504 57.1858 46.9413 57.1876C46.9172 57.1935 46.8931 57.1978 46.8691 57.2003C46.862 57.2012 46.8549 57.2028 46.8486 57.2028C46.8161 57.2071 46.7842 57.2088 46.7524 57.2088C46.7206 57.2088 46.688 57.2071 46.6562 57.2037C46.6505 57.2028 46.6456 57.202 46.6406 57.2012C46.6152 57.1978 46.5897 57.1935 46.5649 57.1884C46.5544 57.1858 46.5444 57.1833 46.5345 57.1808C46.5147 57.1757 46.4949 57.1697 46.4751 57.1637C46.4631 57.1595 46.4503 57.1552 46.4383 57.151C46.4213 57.1442 46.4043 57.1374 46.3874 57.1297C46.3746 57.1237 46.3612 57.1186 46.3484 57.1118C46.33 57.1033 46.3124 57.0922 46.294 57.082C46.2763 57.0718 46.2579 57.0607 46.2402 57.0488C46.2225 57.0369 46.2048 57.025 46.1872 57.0113C46.1766 57.0037 46.1659 56.9951 46.156 56.9858C46.1383 56.9722 46.1221 56.9577 46.1058 56.9424C46.0966 56.9347 46.0881 56.9262 46.0796 56.9177C46.0598 56.8981 46.0407 56.8777 46.0216 56.8564C46.0181 56.8521 46.0145 56.8488 46.011 56.8444C46.0103 56.8436 46.0089 56.8419 46.0082 56.8402C45.9834 56.8113 45.9601 56.7815 45.9382 56.7491C45.9367 56.7482 45.9361 56.7465 45.9354 56.7457C45.9156 56.7168 45.8972 56.687 45.8795 56.6563C45.8738 56.6461 45.8689 56.6359 45.8632 56.6257C45.8512 56.6044 45.8399 56.5823 45.8292 56.5593C45.8229 56.5456 45.8172 56.532 45.8108 56.5184C45.8023 56.4988 45.7946 56.4784 45.7868 56.4579C45.7811 56.4417 45.7748 56.4264 45.7698 56.4102C45.7635 56.3906 45.7571 56.3711 45.7514 56.3506C45.7471 56.3344 45.7415 56.3183 45.7372 56.3013C45.7372 56.3004 45.7372 56.2995 45.7365 56.2987L44.7758 52.4433L44.064 54.1241C44.0584 54.1385 44.052 54.1514 44.0456 54.165C44.0279 54.2041 44.0081 54.2425 43.9869 54.279L43.9862 54.2799C43.9855 54.2807 43.9848 54.2825 43.9841 54.2833C43.9841 54.2841 43.9841 54.2841 43.9834 54.285C43.9799 54.2901 43.9763 54.2961 43.9728 54.3012C43.9622 54.3191 43.9509 54.3378 43.9395 54.3548C43.9388 54.3557 43.9388 54.3557 43.9381 54.3565C43.9339 54.3625 43.9296 54.3685 43.9247 54.3744C43.9134 54.3914 43.9013 54.4075 43.8886 54.4237C43.8865 54.4263 43.8851 54.428 43.8829 54.4306C43.8631 54.4553 43.8426 54.4783 43.8221 54.5004C43.8129 54.5106 43.8036 54.5208 43.7938 54.5302C43.7923 54.5319 43.791 54.5328 43.7895 54.5344C43.7683 54.5548 43.7464 54.5744 43.7244 54.5931L43.7237 54.594C43.706 54.6093 43.6876 54.6229 43.6692 54.6366C43.6678 54.6375 43.6671 54.6383 43.6657 54.6391C43.6657 54.6391 43.665 54.6391 43.665 54.64C43.6636 54.6408 43.6622 54.6417 43.6607 54.6426C43.6438 54.6545 43.6268 54.6664 43.6091 54.6766C43.585 54.6919 43.561 54.7055 43.5362 54.7183C43.5299 54.7217 43.5235 54.7243 43.5164 54.7277C43.4987 54.7362 43.481 54.7448 43.4634 54.7524C43.4619 54.7524 43.4606 54.7532 43.4591 54.7541C43.4429 54.7609 43.4266 54.7668 43.4103 54.7728C43.4054 54.7745 43.4011 54.7753 43.3969 54.7771C43.3756 54.7839 43.3537 54.7907 43.3325 54.7958C43.3226 54.7983 43.312 54.8 43.3013 54.8017C43.278 54.8069 43.2546 54.8111 43.2306 54.8137C43.2292 54.8146 43.2285 54.8146 43.2271 54.8146H43.2256C43.1896 54.8188 43.1542 54.8222 43.1174 54.8222C43.1146 54.8222 43.1117 54.8213 43.1082 54.8213L37.9352 54.7728L37.3676 54.3012C36.9892 53.9924 36.0432 53.0464 35.6648 52.1787L42.4688 52.267L44.086 48.4458C44.0875 48.4416 44.0903 48.4373 44.0917 48.4331C44.1009 48.4126 44.1108 48.3931 44.1207 48.3726C44.1292 48.3564 44.137 48.3386 44.1455 48.3224C44.1547 48.3062 44.1653 48.29 44.1752 48.2739C44.1858 48.2561 44.1964 48.2381 44.2077 48.2211C44.2162 48.2075 44.2261 48.1947 44.236 48.1819C44.2495 48.1641 44.2622 48.1453 44.2763 48.1283C44.2862 48.1164 44.2968 48.1054 44.3067 48.0934C44.3216 48.0772 44.3365 48.0602 44.352 48.0441C44.364 48.0321 44.3768 48.0219 44.3888 48.01C44.4036 47.9964 44.4185 47.9827 44.434 47.97C44.4475 47.9589 44.4616 47.9496 44.4758 47.9393C44.4906 47.9274 44.5062 47.9155 44.5218 47.9053C44.5352 47.896 44.5493 47.8891 44.5635 47.8806C44.5812 47.8704 44.5989 47.8593 44.6165 47.85C44.6293 47.844 44.6427 47.838 44.6555 47.8321C44.676 47.8236 44.6958 47.8143 44.7163 47.8066C44.7198 47.8048 44.7234 47.8032 44.7262 47.8023C44.7368 47.7989 44.7468 47.7964 44.7567 47.793C44.7772 47.787 44.7977 47.7802 44.8182 47.7751C44.8338 47.7717 44.8486 47.7683 44.8642 47.7658C44.8826 47.7624 44.9017 47.7581 44.9201 47.7564C44.9371 47.7539 44.9533 47.753 44.9703 47.7513C44.988 47.7504 45.0057 47.7496 45.0234 47.7488C45.0403 47.7488 45.0573 47.7496 45.0743 47.7505C45.092 47.7514 45.1097 47.7522 45.1273 47.7539C45.1436 47.7556 45.1606 47.759 45.1768 47.7615C45.1945 47.764 45.2122 47.7675 45.2299 47.7717C45.2462 47.7751 45.2631 47.7802 45.2794 47.7845C45.2964 47.7896 45.3134 47.7947 45.3303 47.8007C45.3473 47.8066 45.3643 47.8143 45.3813 47.8211C45.3968 47.8279 45.4124 47.8338 45.428 47.8415C45.4464 47.8509 45.464 47.8603 45.4825 47.8705C45.4924 47.8764 45.503 47.8816 45.5129 47.8875C45.5164 47.8892 45.5199 47.8926 45.5228 47.8944C45.5412 47.9054 45.5582 47.9182 45.5752 47.931C45.5886 47.9403 45.6021 47.9488 45.6148 47.9591C45.6297 47.971 45.6438 47.9837 45.6587 47.9965C45.6722 48.0093 45.6863 48.0204 45.6997 48.0332C45.7118 48.0451 45.7231 48.0587 45.7351 48.0715C45.7493 48.0859 45.7634 48.1004 45.7769 48.1166C45.7882 48.1302 45.7988 48.1446 45.8094 48.1583C45.8214 48.1745 45.8349 48.1907 45.8462 48.2068C45.8575 48.2239 45.8681 48.2409 45.8787 48.2579C45.8886 48.2741 45.8985 48.2894 45.9077 48.3056C45.9183 48.3235 45.9275 48.3431 45.9367 48.3618C45.9452 48.3789 45.9544 48.395 45.9622 48.412C45.9699 48.4299 45.977 48.4487 45.9841 48.4665C45.9926 48.4861 46.0004 48.5057 46.0074 48.5252C46.0138 48.5423 46.018 48.5593 46.0237 48.5772C46.0308 48.5994 46.0379 48.6223 46.0442 48.6453C46.0449 48.6496 46.047 48.6538 46.0477 48.6581L47.2526 53.4909L48.3527 52.1371C48.3605 52.1268 48.3697 52.1175 48.3782 52.1081C48.3874 52.0979 48.3951 52.0877 48.4036 52.0775C48.4086 52.0732 48.4136 52.069 48.4178 52.0639C48.4326 52.0485 48.4475 52.0341 48.4631 52.0205C48.4758 52.0085 48.4892 51.9958 48.502 51.9847C48.5182 51.9711 48.5338 51.9592 48.5501 51.9472C48.5643 51.937 48.5777 51.9259 48.5919 51.9166C48.6081 51.9055 48.6244 51.8961 48.6406 51.8859C48.6555 51.8774 48.6711 51.8681 48.6859 51.8604C48.7022 51.8519 48.7177 51.8442 48.734 51.8374C48.7503 51.8298 48.7666 51.8221 48.7835 51.8161C48.7991 51.8093 48.8147 51.8042 48.831 51.7991C48.8479 51.7939 48.8649 51.788 48.8826 51.7829C48.8982 51.7795 48.9144 51.776 48.93 51.7726C48.9477 51.7693 48.9654 51.765 48.9831 51.7624C48.9993 51.7607 49.0156 51.759 49.0319 51.7573C49.0496 51.7556 49.0665 51.7548 49.0842 51.7539H49.0984C49.1104 51.7531 49.1225 51.7539 49.1345 51.7539C49.1515 51.7548 49.1684 51.7548 49.1854 51.7565C49.2031 51.7582 49.2201 51.7607 49.2371 51.7633C49.2533 51.765 49.2703 51.7675 49.2866 51.7709C49.3036 51.7743 49.3205 51.7786 49.3382 51.7837C49.3538 51.7879 49.3701 51.7913 49.3864 51.7964C49.4034 51.8024 49.4196 51.8091 49.4366 51.8151C49.4521 51.8211 49.4684 51.8279 49.484 51.8347C49.5003 51.8415 49.5158 51.85 49.5314 51.8585C49.5477 51.8661 49.564 51.8747 49.5796 51.8841C49.5944 51.8925 49.6086 51.9028 49.6234 51.9121C49.6397 51.9232 49.656 51.9334 49.6716 51.9453C49.685 51.9555 49.6985 51.9666 49.7112 51.9777C49.7275 51.9913 49.743 52.0041 49.7586 52.0186C49.7714 52.0305 49.7834 52.0432 49.7961 52.0552C49.811 52.0705 49.8258 52.0858 49.84 52.1029C49.8443 52.1071 49.8492 52.1114 49.8535 52.1165C49.862 52.1267 49.869 52.1378 49.8775 52.148C49.8853 52.1582 49.8945 52.1676 49.9023 52.1787L50.8538 53.4592L52.6713 48.5797C52.6748 48.5712 52.6783 48.5626 52.6818 48.5541C52.6911 48.5319 52.7003 48.5107 52.7094 48.4894C52.7172 48.4732 52.7242 48.457 52.7321 48.4409C52.742 48.4213 52.7526 48.4018 52.7639 48.383C52.7724 48.3668 52.7823 48.3506 52.7915 48.3353C52.802 48.3182 52.8134 48.3012 52.8254 48.285C52.836 48.2689 52.8474 48.2527 52.8594 48.2373C52.8707 48.2229 52.882 48.2084 52.8941 48.1947C52.9075 48.1785 52.921 48.1632 52.9344 48.1488C52.9457 48.136 52.9577 48.1241 52.9704 48.1121C52.9852 48.0968 53.0008 48.0823 53.0171 48.0687C53.0291 48.0585 53.0412 48.0483 53.0532 48.0389C53.0709 48.0245 53.0886 48.0117 53.1069 47.9989C53.1133 47.9938 53.1197 47.9887 53.126 47.9845C53.1323 47.9802 53.1387 47.9776 53.1451 47.9734C53.1628 47.9623 53.1805 47.9521 53.1981 47.9419C53.2129 47.9334 53.2278 47.9257 53.2427 47.918C53.2589 47.9104 53.2752 47.9036 53.2915 47.8967C53.3084 47.8899 53.3261 47.8823 53.3431 47.8763C53.3579 47.8712 53.3728 47.867 53.3884 47.8627C53.4068 47.8567 53.4252 47.8516 53.4436 47.8474C53.4591 47.844 53.474 47.8414 53.4895 47.8389C53.508 47.8355 53.5263 47.8329 53.5447 47.8304C53.561 47.8287 53.578 47.8279 53.595 47.827C53.6119 47.8261 53.6289 47.8253 53.6452 47.8253C53.6643 47.8253 53.6827 47.827 53.7011 47.8287C53.7166 47.8295 53.7315 47.8304 53.7471 47.8321C53.7662 47.8346 53.7853 47.838 53.8044 47.8414C53.8192 47.8448 53.8341 47.8474 53.8489 47.8508C53.8673 47.855 53.885 47.861 53.9027 47.8661C53.9189 47.8712 53.9359 47.8763 53.9522 47.8823C53.9677 47.8883 53.9833 47.895 53.9989 47.9019C54.0173 47.9095 54.0356 47.918 54.0533 47.9274C54.0597 47.9308 54.0668 47.9334 54.0731 47.9368C54.0802 47.941 54.0873 47.9453 54.0944 47.9495C54.1128 47.9606 54.1311 47.9717 54.1488 47.9835C54.1623 47.992 54.175 48.0006 54.1878 48.0099C54.2047 48.0219 54.221 48.0346 54.2373 48.0482C54.2507 48.0593 54.2635 48.0695 54.2762 48.0814C54.2904 48.0941 54.3052 48.1087 54.3194 48.1223C54.3321 48.1359 54.3448 48.1487 54.3569 48.1623C54.3696 48.1759 54.3823 48.1912 54.3943 48.2057C54.4071 48.221 54.4191 48.2363 54.4311 48.2525C54.4417 48.267 54.4523 48.2823 54.4623 48.2977C54.4743 48.3155 54.4863 48.3334 54.4969 48.3521C54.5061 48.3666 54.5154 48.3828 54.5238 48.3981C54.5344 48.4186 54.5451 48.4381 54.555 48.4594C54.5592 48.4679 54.5642 48.4756 54.5685 48.4841L56.2663 52.1819L60.7234 52.148Z" fill="#E6E9ED"/>
<ellipse cx="61.0179" cy="53.4251" rx="2.4596" ry="2.4596" fill="#F0F0F0"/>
<path d="M116.825 26.1273H126.623C128.563 26.1273 130.006 26.2109 130.954 26.3781C131.913 26.5342 132.765 26.8686 133.512 27.3814C134.27 27.8941 134.9 28.5797 135.402 29.438C135.903 30.2852 136.154 31.2383 136.154 32.2973C136.154 33.4455 135.842 34.4989 135.218 35.4576C134.605 36.4163 133.769 37.1353 132.71 37.6146C134.203 38.0493 135.352 38.7906 136.154 39.8385C136.957 40.8863 137.358 42.1181 137.358 43.5338C137.358 44.6486 137.096 45.7354 136.572 46.7944C136.059 47.8423 135.352 48.6839 134.449 49.3193C133.557 49.9436 132.453 50.3281 131.138 50.473C130.313 50.5622 128.323 50.618 125.168 50.6403H116.825V26.1273ZM121.774 30.2072V35.8756H125.018C126.946 35.8756 128.145 35.8477 128.613 35.792C129.46 35.6917 130.123 35.4019 130.603 34.9225C131.093 34.432 131.339 33.7911 131.339 32.9996C131.339 32.2416 131.127 31.6285 130.703 31.1603C130.291 30.681 129.672 30.3911 128.847 30.2908C128.357 30.2351 126.946 30.2072 124.617 30.2072H121.774ZM121.774 39.9555V46.5102H126.356C128.139 46.5102 129.271 46.46 129.75 46.3597C130.486 46.2259 131.082 45.9026 131.539 45.3899C132.007 44.8659 132.241 44.1692 132.241 43.2997C132.241 42.564 132.063 41.9398 131.706 41.427C131.35 40.9142 130.831 40.5408 130.151 40.3067C129.483 40.0726 128.022 39.9555 125.77 39.9555H121.774ZM141.689 50.6403V26.3279H146.638V46.5102H158.945V50.6403H141.689ZM161.486 38.5343C161.486 36.0373 161.86 33.9416 162.607 32.2472C163.164 30.9987 163.922 29.8784 164.881 28.8862C165.851 27.8941 166.91 27.1584 168.058 26.6791C169.585 26.0325 171.346 25.7093 173.342 25.7093C176.953 25.7093 179.841 26.8296 182.003 29.0702C184.177 31.3108 185.264 34.4265 185.264 38.4172C185.264 42.3745 184.188 45.4735 182.037 47.7141C179.885 49.9436 177.009 51.0583 173.409 51.0583C169.763 51.0583 166.865 49.9491 164.714 47.7308C162.562 45.5013 161.486 42.4358 161.486 38.5343ZM166.586 38.367C166.586 41.1427 167.227 43.2496 168.509 44.6876C169.791 46.1144 171.419 46.8279 173.392 46.8279C175.365 46.8279 176.981 46.12 178.241 44.7043C179.512 43.2774 180.147 41.1427 180.147 38.3002C180.147 35.491 179.528 33.3953 178.291 32.0131C177.065 30.6308 175.432 29.9397 173.392 29.9397C171.352 29.9397 169.708 30.6419 168.459 32.0465C167.211 33.4399 166.586 35.5468 166.586 38.367ZM204.827 41.6276L209.626 43.1493C208.891 45.8246 207.664 47.8144 205.948 49.1186C204.242 50.4117 202.074 51.0583 199.443 51.0583C196.188 51.0583 193.513 49.9491 191.417 47.7308C189.321 45.5013 188.274 42.4581 188.274 38.6011C188.274 34.5212 189.327 31.3554 191.434 29.1036C193.541 26.8407 196.311 25.7093 199.744 25.7093C202.743 25.7093 205.178 26.5955 207.051 28.3679C208.166 29.4157 209.002 30.9206 209.559 32.8826L204.66 34.053C204.37 32.7822 203.763 31.779 202.838 31.0433C201.923 30.3075 200.809 29.9397 199.493 29.9397C197.676 29.9397 196.199 30.5918 195.062 31.896C193.936 33.2003 193.373 35.3127 193.373 38.2333C193.373 41.3322 193.931 43.5394 195.046 44.8548C196.16 46.1702 197.609 46.8279 199.393 46.8279C200.708 46.8279 201.84 46.4098 202.787 45.5738C203.735 44.7377 204.415 43.4224 204.827 41.6276ZM213.957 50.6403V26.1273H218.906V37.0126L228.906 26.1273H235.561L226.331 35.675L236.062 50.6403H229.658L222.919 39.1362L218.906 43.2329V50.6403H213.957ZM254.321 41.6276L259.12 43.1493C258.385 45.8246 257.158 47.8144 255.442 49.1186C253.736 50.4117 251.568 51.0583 248.937 51.0583C245.682 51.0583 243.007 49.9491 240.911 47.7308C238.816 45.5013 237.768 42.4581 237.768 38.6011C237.768 34.5212 238.821 31.3554 240.928 29.1036C243.035 26.8407 245.805 25.7093 249.238 25.7093C252.237 25.7093 254.673 26.5955 256.545 28.3679C257.66 29.4157 258.496 30.9206 259.054 32.8826L254.154 34.053C253.864 32.7822 253.257 31.779 252.332 31.0433C251.418 30.3075 250.303 29.9397 248.987 29.9397C247.17 29.9397 245.693 30.5918 244.556 31.896C243.431 33.2003 242.868 35.3127 242.868 38.2333C242.868 41.3322 243.425 43.5394 244.54 44.8548C245.654 46.1702 247.104 46.8279 248.887 46.8279C250.203 46.8279 251.334 46.4098 252.282 45.5738C253.229 44.7377 253.909 43.4224 254.321 41.6276ZM263.401 50.6403V26.1273H268.35V35.7753H278.049V26.1273H282.998V50.6403H278.049V39.9221H268.35V50.6403H263.401ZM310.236 50.6403H304.852L302.712 45.0722H292.914L290.89 50.6403H285.64L295.188 26.1273H300.421L310.236 50.6403ZM301.124 40.9421L297.746 31.8459L294.435 40.9421H301.124ZM312.728 50.6403V26.1273H317.677V50.6403H312.728ZM322.46 50.6403V26.1273H327.275L337.308 42.4971V26.1273H341.906V50.6403H336.94L327.058 34.655V50.6403H322.46Z" fill="#4B67C3"/>
<path d="M120.157 76.9209V63.2225H122.923V76.9209H120.157ZM131.145 76.9209V63.2225H133.836L139.443 72.3703V63.2225H142.012V76.9209H139.237L133.715 67.988V76.9209H131.145ZM161.381 76.9209V63.2225H164.147V68.614H169.566V63.2225H172.332V76.9209H169.566V70.9313H164.147V76.9209H161.381ZM180.751 76.9209V63.2225H190.908V65.5398H183.516V68.5766H190.394V70.8846H183.516V74.6129H191.169V76.9209H180.751ZM211.417 76.9209H208.408L207.212 73.8093H201.737L200.606 76.9209H197.672L203.007 63.2225H205.932L211.417 76.9209ZM206.325 71.5013L204.437 66.4181L202.587 71.5013H206.325ZM218.518 76.9209V63.3346H221.284V74.6129H228.161V76.9209H218.518ZM237.355 76.9209V65.5398H233.29V63.2225H244.176V65.5398H240.121V76.9209H237.355ZM251.529 76.9209V63.2225H254.295V68.614H259.714V63.2225H262.48V76.9209H259.714V70.9313H254.295V76.9209H251.529ZM279.663 71.8844L282.345 72.7347C281.934 74.2298 281.249 75.3417 280.289 76.0706C279.336 76.7932 278.125 77.1545 276.654 77.1545C274.836 77.1545 273.34 76.5347 272.169 75.295C270.998 74.0491 270.413 72.3485 270.413 70.1932C270.413 67.9132 271.001 66.1441 272.179 64.8857C273.356 63.6211 274.904 62.9889 276.823 62.9889C278.498 62.9889 279.86 63.4841 280.906 64.4746C281.529 65.0601 281.996 65.9011 282.308 66.9975L279.57 67.6516C279.408 66.9414 279.068 66.3808 278.551 65.9696C278.041 65.5585 277.418 65.3529 276.683 65.3529C275.667 65.3529 274.842 65.7173 274.206 66.4462C273.577 67.175 273.263 68.3555 273.263 69.9876C273.263 71.7194 273.574 72.9528 274.197 73.6878C274.82 74.4229 275.63 74.7904 276.626 74.7904C277.362 74.7904 277.994 74.5568 278.523 74.0896C279.053 73.6224 279.433 72.8874 279.663 71.8844ZM302.63 76.9209H299.622L298.425 73.8093H292.95L291.819 76.9209H288.885L294.221 63.2225H297.145L302.63 76.9209ZM297.538 71.5013L295.65 66.4181L293.8 71.5013H297.538ZM309.666 76.9209V63.2225H315.487C316.951 63.2225 318.013 63.3471 318.673 63.5962C319.34 63.8392 319.873 64.2752 320.271 64.9044C320.67 65.5336 320.869 66.2531 320.869 67.0629C320.869 68.0907 320.567 68.941 319.963 69.6138C319.359 70.2804 318.455 70.7009 317.253 70.8753C317.851 71.2241 318.343 71.6072 318.729 72.0246C319.122 72.442 319.648 73.1833 320.309 74.2485L321.981 76.9209H318.673L316.674 73.9401C315.964 72.8749 315.478 72.2052 315.216 71.9312C314.954 71.6508 314.677 71.4608 314.384 71.3612C314.092 71.2553 313.628 71.2023 312.992 71.2023H312.432V76.9209H309.666ZM312.432 69.0158H314.478C315.805 69.0158 316.633 68.9597 316.963 68.8476C317.294 68.7355 317.552 68.5424 317.739 68.2683C317.926 67.9942 318.019 67.6516 318.019 67.2404C318.019 66.7794 317.895 66.4088 317.646 66.1285C317.403 65.8419 317.057 65.6613 316.608 65.5865C316.384 65.5554 315.711 65.5398 314.59 65.5398H312.432V69.0158ZM329.035 76.9209V63.2225H339.192V65.5398H331.801V68.5766H338.678V70.8846H331.801V74.6129H339.454V76.9209H329.035Z" fill="#FF576F"/>
<defs>
<filter id="filter0_d" x="19.3865" y="22.7958" width="60.8966" height="60.8966" filterUnits="userSpaceOnUse" color-interpolation-filters="sRGB">
<feFlood flood-opacity="0" result="BackgroundImageFix"/>
<feColorMatrix in="SourceAlpha" type="matrix" values="0 0 0 0 0 0 0 0 0 0 0 0 0 0 0 0 0 0 127 0"/>
<feOffset dy="3.26563"/>
<feGaussianBlur stdDeviation="1.63281"/>
<feColorMatrix type="matrix" values="0 0 0 0 0 0 0 0 0 0 0 0 0 0 0 0 0 0 0.25 0"/>
<feBlend mode="normal" in2="BackgroundImageFix" result="effect1_dropShadow"/>
<feBlend mode="normal" in="SourceGraphic" in2="effect1_dropShadow" result="shape"/>
</filter>
</defs>
</svg>
