<svg width="80" height="76" viewBox="0 0 80 76" fill="none" xmlns="http://www.w3.org/2000/svg">
<rect width="80" height="75.9236" rx="10.1911" fill="#95FFB9"/>
<path d="M38.9907 15.3189L40.9814 15.1737L42.2243 28.9589L40.2336 29.1041L38.9907 15.3189Z" fill="#DBDBDB"/>
<path d="M19.7335 22.6183L20.9603 21.2005L34.8002 30.8918L33.5734 32.3095L19.7335 22.6183Z" fill="#DBDBDB"/>
<path d="M19.5154 18.5949L37.4049 12.8999L38.0709 14.5927L20.1813 20.2877L19.5154 18.5949Z" fill="#DBDBDB"/>
<path d="M41.2249 15.0859L42.0757 13.4595L64.711 23.0416L63.8602 24.668L41.2249 15.0859Z" fill="#DBDBDB"/>
<path d="M20.8395 21.751L21.0201 19.9617L62.4239 23.3448L62.2433 25.134L20.8395 21.751Z" fill="#DBDBDB"/>
<path d="M65.0392 26.4871L67.0272 26.3145L68.192 37.1686L66.204 37.3412L65.0392 26.4871Z" fill="#DBDBDB"/>
<path d="M49.8298 37.7408L49.9909 35.9491L65.9476 37.1098L65.7866 38.9015L49.8298 37.7408Z" fill="#DBDBDB"/>
<path d="M61.9941 54.1578L66.4021 39.9336L68.326 40.416L63.918 54.6402L61.9941 54.1578Z" fill="#DBDBDB"/>
<path d="M43.2615 59.0822L61.0324 54.8069L61.5485 56.5426L43.7775 60.8179L43.2615 59.0822Z" fill="#DBDBDB"/>
<path d="M24.5823 56.3505L64.6697 38.3987L65.5602 40.0079L25.4728 57.9597L24.5823 56.3505Z" fill="#DBDBDB"/>
<path d="M15.1005 45.3912L16.9391 44.6895L22.7643 57.0411L20.9257 57.7428L15.1005 45.3912Z" fill="#DBDBDB"/>
<path d="M14.1921 41.9295L17.026 22.4667L19.0062 22.7L16.1724 42.1627L14.1921 41.9295Z" fill="#DBDBDB"/>
<path d="M16.9723 41.1155L33.0897 36.1778L33.7333 37.8776L17.6159 42.8153L16.9723 41.1155Z" fill="#DBDBDB"/>
<path d="M23.7644 60.2348L23.9111 58.443L39.7223 59.4905L39.5756 61.2823L23.7644 60.2348Z" fill="#DBDBDB"/>
<path d="M41.3057 58.6415L63.1525 27.0742L64.8471 28.0232L43.0003 59.5906L41.3057 58.6415Z" fill="#DBDBDB"/>
<path d="M16.4268 44.8616L17.6187 43.4199L40.6699 58.8413L39.4781 60.2829L16.4268 44.8616Z" fill="#DBDBDB"/>
<path d="M14.6451 41.6495L37.6927 14.4733L39.2806 15.563L16.2329 42.7393L14.6451 41.6495Z" fill="#DBDBDB"/>
<path d="M46.5502 43.1081L47.9162 41.7973L61.6396 53.3703L60.2736 54.681L46.5502 43.1081Z" fill="#DBDBDB"/>
<path d="M22.1198 56.4817L34.9387 40.7638L36.5499 41.8271L23.7309 57.5451L22.1198 56.4817Z" fill="#DBDBDB"/>
<path d="M48.0719 31.7833L61.9564 25.2077L62.8868 26.7975L49.0024 33.3731L48.0719 31.7833Z" fill="#DBDBDB"/>
<path d="M39.9861 16.2946C41.6406 16.2946 42.9819 15.088 42.9819 13.5997C42.9819 12.1113 41.6406 10.9047 39.9861 10.9047C38.3315 10.9047 36.9902 12.1113 36.9902 13.5997C36.9902 15.088 38.3315 16.2946 39.9861 16.2946Z" fill="white"/>
<path d="M15.0207 45.939C16.6753 45.939 18.0166 44.7325 18.0166 43.2441C18.0166 41.7557 16.6753 40.5491 15.0207 40.5491C13.3662 40.5491 12.0249 41.7557 12.0249 43.2441C12.0249 44.7325 13.3662 45.939 15.0207 45.939Z" fill="white"/>
<path d="M40.9847 63.007C42.6393 63.007 43.9806 61.8004 43.9806 60.312C43.9806 58.8237 42.6393 57.6171 40.9847 57.6171C39.3302 57.6171 37.9889 58.8237 37.9889 60.312C37.9889 61.8004 39.3302 63.007 40.9847 63.007Z" fill="white"/>
<path d="M64.9515 27.9727C66.6061 27.9727 67.9474 26.7662 67.9474 25.2778C67.9474 23.7894 66.6061 22.5828 64.9515 22.5828C63.297 22.5828 61.9557 23.7894 61.9557 25.2778C61.9557 26.7662 63.297 27.9727 64.9515 27.9727Z" fill="white"/>
<path d="M19.0153 23.4811C20.6698 23.4811 22.0111 22.2746 22.0111 20.7862C22.0111 19.2978 20.6698 18.0912 19.0153 18.0912C17.3607 18.0912 16.0194 19.2978 16.0194 20.7862C16.0194 22.2746 17.3607 23.4811 19.0153 23.4811Z" fill="white"/>
<path d="M62.9543 58.5154C64.6088 58.5154 65.9501 57.3088 65.9501 55.8205C65.9501 54.3321 64.6088 53.1255 62.9543 53.1255C61.2997 53.1255 59.9584 54.3321 59.9584 55.8205C59.9584 57.3088 61.2997 58.5154 62.9543 58.5154Z" fill="white"/>
<path d="M66.9487 41.4474C68.6033 41.4474 69.9446 40.2409 69.9446 38.7525C69.9446 37.2641 68.6033 36.0576 66.9487 36.0576C65.2942 36.0576 63.9529 37.2641 63.9529 38.7525C63.9529 40.2409 65.2942 41.4474 66.9487 41.4474Z" fill="white"/>
<path d="M23.0097 61.2103C24.6643 61.2103 26.0055 60.0038 26.0055 58.5154C26.0055 57.027 24.6643 55.8204 23.0097 55.8204C21.3551 55.8204 20.0139 57.027 20.0139 58.5154C20.0139 60.0038 21.3551 61.2103 23.0097 61.2103Z" fill="white"/>
<path d="M67.8715 35.2652L67.1645 28.2656C68.9988 27.1631 69.4923 24.9317 68.2668 23.2816C67.5268 22.2853 66.2836 21.6863 64.9515 21.6845C64.2606 21.6883 63.5829 21.8553 62.9862 22.1687L43.9017 14.3013C44.3415 12.3617 42.9499 10.4686 40.7938 10.073C38.6376 9.67741 36.5332 10.9292 36.0934 12.8688C36.0635 13.0009 36.0417 13.1347 36.0285 13.2691L21.3931 17.9161C20.7088 17.4492 19.8742 17.1953 19.0154 17.1929C16.8093 17.1981 15.0256 18.8111 15.0314 20.7956C15.0349 21.9999 15.7088 23.1226 16.8264 23.7857L14.4137 39.7065C12.2359 39.9904 10.7262 41.8086 11.0417 43.7677C11.3571 45.7268 13.3784 47.0848 15.5563 46.8011C15.6238 46.7923 15.691 46.782 15.7579 46.7701L20.1578 56.0074C18.6115 57.4173 18.6288 59.6879 20.1961 61.0788C21.7634 62.4697 24.2875 62.4542 25.8337 61.0443C26.0467 60.85 26.2343 60.6345 26.393 60.402L37.0912 61.0892C37.563 63.0211 39.6866 64.2433 41.8342 63.8188C43.5737 63.4751 44.8478 62.1341 44.9543 60.5349L59.2514 57.151C60.0653 58.9956 62.3873 59.8973 64.4377 59.1652C66.4883 58.4331 67.4906 56.3443 66.6769 54.4998C66.2762 53.5916 65.4815 52.8694 64.4762 52.4995L67.7247 42.2731C69.8844 41.8885 71.2886 40.0017 70.8611 38.0589C70.558 36.6819 69.3897 35.5905 67.8715 35.2662V35.2652ZM65.8742 35.3093C64.8931 35.5591 64.0556 36.1377 63.5345 36.9262L58.9339 36.5947L64.3094 28.8162C64.5215 28.8498 64.7362 28.8681 64.9515 28.871C65.0424 28.871 65.1273 28.8522 65.2172 28.8468L65.8742 35.3093ZM60.9081 52.7509L52.6126 45.7593L63.6613 40.7899C64.1556 41.4285 64.867 41.9054 65.6885 42.149L62.473 52.2748C61.92 52.3324 61.3867 52.4947 60.9081 52.7509ZM59.0108 55.356L44.5798 58.7687C44.4458 58.521 44.2807 58.288 44.0875 58.0743L51.5311 47.3036L59.5121 54.0346C59.2502 54.4398 59.0805 54.8878 59.0128 55.3525L59.0108 55.356ZM38.649 57.4123L33.8297 54.2035L49.1734 47.3009L42.4827 56.9883C41.2107 56.5159 39.7567 56.676 38.649 57.4105V57.4123ZM25.677 55.8645C25.5403 55.7475 25.3945 55.6394 25.2406 55.5411L27.823 52.4428L30.02 53.9062L25.677 55.8645ZM29.0184 51.0091L34.8403 44.0274C38.5486 46.6535 43.7989 46.5709 47.4029 43.8298L49.1524 45.3057L32.0262 53.0087L29.0184 51.0091ZM39.2042 17.1256L39.5727 21.4375L34.6795 21.0278L38.2595 16.8273C38.5606 16.9621 38.8798 17.0611 39.2092 17.122L39.2042 17.1256ZM32.3278 20.8338L22.9168 20.0469C22.8655 19.8288 22.7916 19.6156 22.6961 19.41L36.3512 15.072C36.4562 15.2818 36.5835 15.4819 36.7317 15.6694L32.3278 20.8338ZM22.81 21.839L30.8928 22.5154L27.8829 26.0521L22.5903 22.352C22.678 22.1862 22.7514 22.0148 22.81 21.839ZM33.2415 22.7122L39.7325 23.2512L40.1389 28.0077C37.892 28.1789 35.7766 29.0323 34.1403 30.4278L29.4577 27.1508L33.2415 22.7122ZM62.9912 39.0786L54.6029 42.8515L57.7415 38.3096L62.9603 38.6851C62.9603 38.7085 62.9523 38.73 62.9523 38.7534C62.9544 38.8639 62.9804 38.9699 62.9912 39.0786ZM51.1916 44.3858L51.0598 44.446L48.7959 42.5371C49.9985 41.183 50.7372 39.5435 50.922 37.8182L55.5026 38.147L51.1916 44.3858ZM32.9958 36.9559C32.9958 32.9869 36.5726 29.7693 40.9848 29.7693C45.3969 29.7693 48.9737 32.9869 48.9737 36.9559C48.9737 40.9248 45.3969 44.1424 40.9848 44.1424C36.5748 44.1379 33.0008 40.9229 32.9958 36.9559ZM50.915 36.0144C50.7882 34.9442 50.4464 33.9035 49.9064 32.9431L61.706 27.3565C61.9217 27.6245 62.1779 27.8642 62.467 28.0688L56.69 36.4303L50.915 36.0144ZM61.001 25.6605L48.8339 31.4213C47.1947 29.5358 44.7859 28.3178 42.1432 28.0383L41.7437 23.4236L60.978 25.0334C60.971 25.1152 60.9501 25.1942 60.9501 25.2778C60.9591 25.406 60.9758 25.5338 61 25.6605H61.001ZM32.8301 31.7888C31.6488 33.2849 31.0092 35.0723 30.9986 36.9074L17.9507 40.8186C17.9247 40.7935 17.9048 40.7647 17.8788 40.7405L28.2444 28.5782L32.8301 31.7888ZM18.9024 42.4284L31.1983 38.7453C31.536 40.2348 32.2901 41.6224 33.3893 42.7769L27.4146 49.9428L18.8405 44.2376C18.9511 43.9156 19.01 43.581 19.0152 43.2441C19.0125 42.9692 18.9747 42.6954 18.9024 42.4284ZM66.9488 25.2778C66.9488 26.2701 66.0546 27.0744 64.9515 27.0744C63.8484 27.0744 62.9543 26.2701 62.9543 25.2778C62.9543 24.2855 63.8484 23.4811 64.9515 23.4811C66.0546 23.4811 66.9488 24.2855 66.9488 25.2778ZM60.7045 23.2045L41.596 21.6055L41.1966 17.0043C41.9034 16.8005 42.5324 16.4223 43.0121 15.9128L60.7045 23.2045ZM39.9863 11.803C41.0894 11.803 41.9835 12.6074 41.9835 13.5997C41.9835 14.592 41.0894 15.3963 39.9863 15.3963C38.8832 15.3963 37.989 14.592 37.989 13.5997C37.989 12.6074 38.8832 11.803 39.9863 11.803ZM19.0154 18.9896C20.1185 18.9896 21.0126 19.7939 21.0126 20.7862C21.0126 21.7785 20.1185 22.5828 19.0154 22.5828C17.9123 22.5828 17.0181 21.7785 17.0181 20.7862C17.0181 19.7939 17.9123 18.9896 19.0154 18.9896ZM19.0154 24.3795C19.835 24.3789 20.6342 24.1498 21.3032 23.7237L26.6677 27.4768L16.4679 39.4451L18.7557 24.3534C18.8436 24.3606 18.9264 24.3795 19.0154 24.3795ZM13.0237 43.2441C13.0237 42.2518 13.9178 41.4474 15.0209 41.4474C16.124 41.4474 17.0181 42.2518 17.0181 43.2441C17.0181 44.2364 16.124 45.0407 15.0209 45.0407C13.9178 45.0407 13.0237 44.2363 13.0237 43.2441ZM17.8269 45.7962L26.2152 51.3747L23.2404 54.9428C23.1615 54.9428 23.0876 54.9222 23.0077 54.9222C22.6278 54.927 22.2507 54.9814 21.8882 55.0839L17.5603 45.9947C17.6491 45.9282 17.745 45.8698 17.8269 45.7962ZM23.0098 60.312C21.9067 60.312 21.0126 59.5077 21.0126 58.5154C21.0126 57.5231 21.9067 56.7188 23.0098 56.7188C24.1129 56.7188 25.007 57.5231 25.007 58.5154C25.007 59.5077 24.1128 60.312 23.0098 60.312ZM26.7786 57.3755L31.8266 55.1018L37.3769 58.7921C37.2966 58.9542 37.2298 59.1214 37.1772 59.2925L26.9913 58.6385C26.9913 58.5954 27.0053 58.5558 27.0053 58.5127C26.9995 58.125 26.923 57.7407 26.7786 57.3755ZM40.9848 62.1087C39.8817 62.1087 38.9875 61.3043 38.9875 60.312C38.9875 59.3197 39.8817 58.5154 40.9848 58.5154C42.0879 58.5154 42.982 59.3197 42.982 60.312C42.982 61.3043 42.0879 62.1087 40.9848 62.1087ZM62.9543 57.6171C61.8512 57.6171 60.9571 56.8128 60.9571 55.8205C60.9571 54.8282 61.8512 54.0238 62.9543 54.0238C64.0574 54.0238 64.9515 54.8282 64.9515 55.8205C64.9515 56.8128 64.0574 57.6171 62.9543 57.6171ZM66.9488 40.5491C65.8457 40.5491 64.9515 39.7448 64.9515 38.7525C64.9515 37.7602 65.8457 36.9559 66.9488 36.9559C68.0518 36.9559 68.946 37.7602 68.946 38.7525C68.946 39.7447 68.0518 40.5491 66.9488 40.5491Z" fill="black"/>
<g filter="url(#filter0_d)">
<path d="M41.2705 52.2035C50.4739 52.2035 57.9348 45.492 57.9348 37.2129C57.9348 28.9338 50.4739 22.2223 41.2705 22.2223C32.067 22.2223 24.6061 28.9338 24.6061 37.2129C24.6061 45.492 32.067 52.2035 41.2705 52.2035Z" fill="#002296"/>
</g>
<path d="M47.7008 40.0293C47.407 40.0293 47.139 39.8802 47.0073 39.6438L46.1502 38.1019L43.7426 42.4335C43.6108 42.6698 43.3428 42.819 43.049 42.819C42.7553 42.819 42.4873 42.6698 42.3555 42.4335L41.4985 40.8916L40.6414 42.4335C40.3779 42.9062 39.5179 42.9062 39.2544 42.4335L36.8467 38.1019L35.9897 39.6438C35.8579 39.8802 35.5899 40.0293 35.2961 40.0293H29.7159C31.3116 42.2877 34.1854 44.433 37.7802 47.1622C38.7894 47.9284 39.8631 48.7437 40.9904 49.623C41.1365 49.7367 41.3175 49.7932 41.4984 49.7932C41.6794 49.7932 41.8603 49.7367 42.0064 49.623C43.1338 48.7437 44.2074 47.9285 45.2166 47.1622C48.8114 44.433 51.6852 42.2877 53.2809 40.0293H47.7008Z" fill="white"/>
<path fill-rule="evenodd" clip-rule="evenodd" d="M32.2485 40.0385C33.8508 41.9655 36.3529 43.8643 39.401 46.1774L39.7538 46.4452C40.76 47.2091 41.8302 48.0218 42.9539 48.8981C42.6426 49.1378 42.3267 49.3824 42.0064 49.6322C41.8603 49.7459 41.6794 49.8025 41.4984 49.8025C41.3175 49.8025 41.1365 49.7459 40.9904 49.6322C39.8631 48.7529 38.7894 47.9376 37.7802 47.1715L37.4274 46.9037C33.9976 44.3008 31.2591 42.2226 29.7159 40.0385H32.2485Z" fill="#01FE87"/>
<path d="M47.625 28.4194C44.4897 28.4194 42.4773 30.3727 41.4226 32.132C40.368 30.3727 38.3555 28.4194 35.2203 28.4194C31.2424 28.4194 28.191 31.3228 28.191 35.1736C28.191 36.1784 28.4146 37.106 28.8264 37.9973H34.7411L36.0773 35.5931C36.3408 35.1205 37.2009 35.1205 37.4644 35.5931L39.872 39.9248L40.7291 38.3829C40.9926 37.9102 41.8527 37.9102 42.1161 38.3829L42.9732 39.9248L45.3808 35.5932C45.6443 35.1205 46.5044 35.1205 46.7679 35.5932L48.1042 37.9973H54.0188C54.4306 37.106 54.6543 36.1784 54.6543 35.1736C54.6543 31.3228 51.6029 28.4194 47.625 28.4194Z" fill="white"/>
<path fill-rule="evenodd" clip-rule="evenodd" d="M35.1306 28.4183C35.9989 28.4183 36.781 28.5681 37.4806 28.8221C33.5379 28.857 30.5233 31.7485 30.5233 35.576C30.5233 36.4301 30.6849 37.2285 30.9863 37.9962H28.7367C28.3249 37.1049 28.1013 36.1773 28.1013 35.1725C28.1013 31.3217 31.1527 28.4183 35.1306 28.4183Z" fill="#01FE87"/>
<defs>
<filter id="filter0_d" x="23.9341" y="22.2223" width="34.6726" height="31.3251" filterUnits="userSpaceOnUse" color-interpolation-filters="sRGB">
<feFlood flood-opacity="0" result="BackgroundImageFix"/>
<feColorMatrix in="SourceAlpha" type="matrix" values="0 0 0 0 0 0 0 0 0 0 0 0 0 0 0 0 0 0 127 0"/>
<feOffset dy="0.67193"/>
<feGaussianBlur stdDeviation="0.335965"/>
<feColorMatrix type="matrix" values="0 0 0 0 0 0 0 0 0 0 0 0 0 0 0 0 0 0 0.25 0"/>
<feBlend mode="normal" in2="BackgroundImageFix" result="effect1_dropShadow"/>
<feBlend mode="normal" in="SourceGraphic" in2="effect1_dropShadow" result="shape"/>
</filter>
</defs>
</svg>
