<svg width="300" height="111" viewBox="0 0 300 111" fill="none" xmlns="http://www.w3.org/2000/svg">
<path d="M108.658 55.2024V59.0696C108.658 60.0192 107.886 60.7883 106.933 60.7883H103.052C102.099 60.7883 101.328 60.0192 101.328 59.0696C101.328 57.7171 101.328 56.5548 101.328 55.2024C101.328 54.2528 102.099 53.4836 103.052 53.4836H106.933C107.886 53.4836 108.658 54.2528 108.658 55.2024Z" fill="#8BC4FF"/>
<path d="M96.369 92.5852V96.4524C96.369 97.402 95.5972 98.1711 94.6443 98.1711H90.7637C89.8108 98.1711 89.0389 97.402 89.0389 96.4524C89.0389 95.1 89.0389 93.9376 89.0389 92.5852C89.0389 91.6356 89.8108 90.8665 90.7637 90.8665H94.6443C95.5972 90.8665 96.369 91.6356 96.369 92.5852Z" fill="#8BC4FF"/>
<path d="M96.369 17.8198V21.687C96.369 22.6366 95.5972 23.4058 94.6443 23.4058C93.2872 23.4058 92.1208 23.4058 90.7637 23.4058C89.8108 23.4058 89.0389 22.6366 89.0389 21.687C89.0389 20.3346 89.0389 19.1723 89.0389 17.8198C89.0389 16.8702 89.8108 16.1011 90.7637 16.1011H94.6443C95.5972 16.1011 96.369 16.8702 96.369 17.8198Z" fill="#8BC4FF"/>
<path d="M58.8562 108.698C58.8562 109.648 58.0844 110.417 57.1315 110.417H53.2508C52.2979 110.417 51.5261 109.648 51.5261 108.698C51.5261 107.346 51.5261 106.184 51.5261 104.831C51.5261 103.882 52.2979 103.113 53.2508 103.113H57.1315C58.0844 103.113 58.8562 103.882 58.8562 104.831V108.698Z" fill="#8BC4FF"/>
<path d="M58.8562 9.44067C58.8562 10.3903 58.0844 11.1594 57.1315 11.1594C55.7743 11.1594 54.608 11.1594 53.2508 11.1594C52.2979 11.1594 51.5261 10.3903 51.5261 9.44067C51.5261 8.08823 51.5261 6.92593 51.5261 5.57349C51.5261 4.62388 52.2979 3.85474 53.2508 3.85474H57.1315C58.0844 3.85474 58.8562 4.62388 58.8562 5.57349V9.44067Z" fill="#8BC4FF"/>
<path d="M21.3434 96.4524C21.3434 97.402 20.5716 98.1711 19.6187 98.1711H15.738C14.7851 98.1711 14.0133 97.402 14.0133 96.4524V92.5852C14.0133 91.6356 14.7851 90.8665 15.738 90.8665H19.6187C20.5716 90.8665 21.3434 91.6356 21.3434 92.5852V96.4524Z" fill="#8BC4FF"/>
<path d="M21.3434 21.687C21.3434 22.6366 20.5716 23.4058 19.6187 23.4058C18.2615 23.4058 17.0952 23.4058 15.738 23.4058C14.7851 23.4058 14.0133 22.6366 14.0133 21.687V17.8198C14.0133 16.8702 14.7851 16.1011 15.738 16.1011H19.6187C20.5716 16.1011 21.3434 16.8702 21.3434 17.8198V21.687Z" fill="#8BC4FF"/>
<path d="M9.05482 59.0696C9.05482 60.0192 8.283 60.7883 7.33009 60.7883C5.97295 60.7883 4.8066 60.7883 3.44946 60.7883C2.49655 60.7883 1.72473 60.0192 1.72473 59.0696V55.2024C1.72473 54.2528 2.49655 53.4836 3.44946 53.4836H7.33009C8.283 53.4836 9.05482 54.2528 9.05482 55.2024V59.0696Z" fill="#8BC4FF"/>
<path d="M106.933 50.4705H106.346C97.4158 19.5188 98.0276 21.6006 97.9403 21.4066C98.1432 20.7528 98.0938 20.7241 98.0938 16.5251C98.0938 14.6298 96.5463 13.0876 94.6444 13.0876C90.4511 13.0876 90.4072 13.0369 89.7459 13.2406C89.5485 13.1523 91.6151 13.7522 60.581 4.91606V4.27905C60.581 2.3837 59.0335 0.841553 57.1316 0.841553H53.2509C51.349 0.841553 49.8015 2.3837 49.8015 4.27905V4.91606C18.7523 13.7567 20.8341 13.1525 20.6366 13.2406C19.9803 13.0384 19.9516 13.0876 15.7381 13.0876C13.8362 13.0876 12.2887 14.6298 12.2887 16.5251C12.2887 20.7039 12.2376 20.7477 12.4422 21.4066C12.354 21.6025 12.9508 19.5609 4.08868 50.4705H3.44945C1.54751 50.4705 0 52.0126 0 53.908V57.7751C0 59.6705 1.54751 61.2126 3.44945 61.2126H4.08868C12.9669 92.1789 12.3506 90.0707 12.4426 90.275C12.2384 90.932 12.2887 90.9674 12.2887 95.158C12.2887 97.0533 13.8362 98.5955 15.7381 98.5955C19.9314 98.5955 19.9754 98.6462 20.6366 98.4425C20.8341 98.5308 18.7674 97.9309 49.8015 106.767V107.404C49.8015 109.299 51.349 110.842 53.2509 110.842H57.1316C59.0335 110.842 60.581 109.299 60.581 107.404V106.767C91.6302 97.9267 89.5485 98.5308 89.7459 98.4425C90.4022 98.6447 90.4309 98.5955 94.6444 98.5955C96.5463 98.5955 98.0938 97.0533 98.0938 95.158C98.0938 90.9792 98.1447 90.9335 97.9399 90.2748C98.0317 90.0702 97.4136 92.1725 106.346 61.2126H106.933C108.835 61.2126 110.383 59.6705 110.383 57.7751V53.908C110.383 52.0126 108.835 50.4705 106.933 50.4705ZM89.874 87.9734L82.5312 80.656L90.9793 72.2371V87.8533C90.6432 87.8533 90.3571 87.8445 89.874 87.9734ZM52.3612 100.219L47.0665 94.9431H53.4665V100.099C53.1304 100.099 52.8443 100.091 52.3612 100.219ZM20.5085 23.7097L27.8513 31.0271L19.4032 39.446V23.8298C19.7393 23.8298 20.0254 23.8386 20.5085 23.7097ZM58.0213 11.4636L63.316 16.74H56.916V11.5837C57.2521 11.5837 57.5382 11.5925 58.0213 11.4636ZM87.3143 91.5056H71.6439L80.092 83.0867L87.4348 90.4041C87.3061 90.8834 87.3143 91.1943 87.3143 91.5056ZM66.7655 91.5056H56.916V72.2371L64.785 67.8454L77.6528 80.656L66.7655 91.5056ZM22.9477 90.4041L30.2905 83.0867L38.7387 91.5056H23.0682C23.0682 91.1629 23.074 90.8748 22.9477 90.4041ZM32.7297 80.656L45.4293 68.0004L53.4665 72.6247V91.5056H43.617L32.7297 80.656ZM23.0682 20.1775H38.7387L30.2905 28.5964L22.9477 21.279C23.0764 20.7997 23.0682 20.4888 23.0682 20.1775ZM43.617 20.1775H53.4665V39.0584L45.4291 43.6825L32.7297 31.0271L43.617 20.1775ZM53.4665 48.9382C52.712 48.5989 53.5287 48.974 53.5287 48.974L47.746 46.3187H45.4293H45.5975H47.746L53.4665 48.9382ZM56.916 39.0584V20.1775H66.7655L77.6528 31.0271L64.9534 43.6825L56.916 39.0584ZM71.6439 20.1775H87.3143C87.3143 20.5124 87.3054 20.7975 87.4348 21.279L80.092 28.5964L71.6439 20.1775ZM89.874 23.7097C90.355 23.838 90.6667 23.8298 90.9793 23.8298V39.446L82.5312 31.0271L89.874 23.7097ZM87.3143 16.5251C87.3143 16.836 89.4372 16.74 68.1944 16.74L60.4605 9.0329C60.5082 8.85544 60.5452 8.6739 60.5638 8.48634L87.3419 16.1107C87.3253 16.2469 87.3143 16.3846 87.3143 16.5251ZM53.4665 16.74H47.0665L52.3612 11.4636C52.8422 11.5919 53.1541 11.5837 53.4665 11.5837V16.74ZM49.922 9.0329L42.1881 16.74H23.0682C23.0682 16.4906 23.0727 16.375 23.0406 16.1107L49.8187 8.48634C49.8373 8.6739 49.8744 8.85544 49.922 9.0329ZM30.2905 33.4578L42.3362 45.462C41.8246 45.9522 41.0399 46.7041 39.7435 47.9463V51.0345V54.1228H19.4032V44.3075L30.2905 33.4578ZM15.9537 54.1228H10.7795C10.7795 53.7801 10.7854 53.492 10.659 53.0213L15.9537 47.745V54.1228ZM10.7795 57.5603H15.9537V63.9382L10.659 58.6618C10.7877 58.1825 10.7795 57.8716 10.7795 57.5603ZM19.4032 57.5603H39.7435V63.7371L42.687 66.2211L30.2905 78.2253L19.4032 67.3757V57.5603ZM27.8513 80.656L20.5085 87.9734C20.0275 87.8451 19.7156 87.8533 19.4032 87.8533V72.2371L27.8513 80.656ZM23.0682 95.158C23.0682 94.8471 20.9453 94.9431 42.1881 94.9431L49.922 102.65C49.8744 102.828 49.8373 103.009 49.8187 103.197L23.0406 95.5724C23.0572 95.4362 23.0682 95.2985 23.0682 95.158ZM56.916 94.9431H63.316L58.0213 100.219C57.5403 100.091 57.2284 100.099 56.916 100.099V94.9431ZM60.4605 102.65L68.1944 94.9431H87.3143C87.3143 95.1956 87.3102 95.3105 87.3419 95.5724L60.5638 103.197C60.5452 103.009 60.5082 102.828 60.4605 102.65ZM80.092 78.2253L67.6955 66.2211L56.916 72.2371L53.4665 72.6247L45.4293 68.0004L42.687 66.2211L39.7435 63.7371V51.0345C39.7435 50.0854 39.7435 49.8259 39.7435 47.9463L42.3362 45.462L48.3773 41.9863L53.4665 39.0584H56.916L64.9534 43.6825L68.0463 45.4618C68.5799 45.769 68.0463 44.8478 68.0463 45.4618L80.092 33.4576L90.9793 44.3072V54.1228L75.888 53.908C74.9355 53.908 68.6657 53.7107 68.6657 54.6599C68.6657 55.6091 65.8091 58.6618 76.427 57.5603H90.9793V67.3757L80.092 78.2253ZM99.603 54.1228H94.4288V47.745L99.7235 53.0213C99.5948 53.5006 99.603 53.8115 99.603 54.1228ZM94.4288 57.5603H99.603C99.603 57.903 99.5971 58.1911 99.7235 58.6618L94.4288 63.9382V57.5603ZM102.761 50.4851C102.555 50.5025 102.356 50.5388 102.163 50.5906L94.4288 42.8835C94.4288 21.7027 94.3328 23.8298 94.6444 23.8298C94.786 23.8298 94.9251 23.8187 95.0624 23.8021L102.761 50.4851ZM90.7637 16.5251H94.6444V20.3923H90.7637V16.5251ZM53.2509 4.27905H57.1316V8.14624H53.2509C53.2488 4.22448 53.2289 4.27905 53.2509 4.27905ZM15.7381 16.5251H19.6188V20.3923H15.7381C15.736 16.5116 15.7159 16.5251 15.7381 16.5251ZM15.3223 23.8023C15.5874 23.8343 15.7056 23.8298 15.9537 23.8298V42.8835L8.21983 50.5906C8.04175 50.5431 7.85958 50.5061 7.67137 50.4876L15.3223 23.8023ZM3.4473 53.908H7.33009V57.7751C6.05271 57.7751 4.89564 57.7751 3.44945 57.7751L3.4473 53.908ZM15.3223 87.8808L7.67137 61.1955C7.85936 61.177 8.04175 61.14 8.21983 61.0926L15.9537 68.7996V87.8533C15.7034 87.8533 15.5874 87.8488 15.3223 87.8808ZM15.7381 95.158V91.2908H19.6188C19.6188 91.3758 19.6209 95.1358 19.6209 95.158C17.3318 95.158 18.0225 95.158 15.7381 95.158ZM57.1316 107.404H53.2509V103.537H57.1316C57.1337 107.459 57.1536 107.404 57.1316 107.404ZM94.6444 95.158H90.7637V91.2908H94.6444V95.158ZM95.0624 87.881C94.7985 87.849 94.6817 87.8533 94.4288 87.8533V68.7996L102.163 61.0926C102.356 61.1441 102.555 61.1806 102.761 61.198L95.0624 87.881ZM106.933 57.7751H103.052V53.908H106.933C106.935 57.7887 106.955 57.7751 106.933 57.7751Z" fill="#4B67C3"/>
<g filter="url(#filter0_d)">
<path d="M54.616 85.1125C71.0689 85.1125 84.4066 71.821 84.4066 55.4251C84.4066 39.0293 71.0689 25.7378 54.616 25.7378C38.1631 25.7378 24.8254 39.0293 24.8254 55.4251C24.8254 71.821 38.1631 85.1125 54.616 85.1125Z" fill="#002296"/>
</g>
<g filter="url(#filter1_d)">
<path d="M139.455 42.1473C140.67 42.4062 141.645 43.0136 142.382 43.9694C143.119 44.9054 143.487 45.9807 143.487 47.1955C143.487 48.9479 142.87 50.3419 141.635 51.3775C140.421 52.3931 138.718 52.9009 136.527 52.9009H126.76V31.9314H136.199C138.33 31.9314 139.992 32.4193 141.187 33.3951C142.402 34.3709 143.009 35.6951 143.009 37.3679C143.009 38.6026 142.681 39.6282 142.024 40.4446C141.386 41.2611 140.53 41.8287 139.455 42.1473ZM131.868 40.4148H135.213C136.05 40.4148 136.687 40.2355 137.125 39.8771C137.583 39.4987 137.812 38.9511 137.812 38.2342C137.812 37.5173 137.583 36.9696 137.125 36.5913C136.687 36.2129 136.05 36.0237 135.213 36.0237H131.868V40.4148ZM135.631 48.7787C136.488 48.7787 137.145 48.5895 137.603 48.2111C138.081 47.8128 138.32 47.2453 138.32 46.5085C138.32 45.7716 138.071 45.1941 137.573 44.7759C137.095 44.3578 136.428 44.1487 135.572 44.1487H131.868V48.7787H135.631ZM151.558 30.7963V52.9009H146.45V30.7963H151.558ZM162.847 53.1398C161.214 53.1398 159.74 52.7914 158.426 52.0944C157.132 51.3974 156.106 50.4017 155.349 49.1073C154.612 47.8128 154.244 46.2994 154.244 44.5668C154.244 42.8542 154.622 41.3507 155.379 40.0563C156.136 38.742 157.171 37.7363 158.486 37.0393C159.8 36.3423 161.274 35.9939 162.907 35.9939C164.54 35.9939 166.013 36.3423 167.328 37.0393C168.642 37.7363 169.677 38.742 170.434 40.0563C171.191 41.3507 171.569 42.8542 171.569 44.5668C171.569 46.2795 171.181 47.7929 170.404 49.1073C169.648 50.4017 168.602 51.3974 167.268 52.0944C165.953 52.7914 164.48 53.1398 162.847 53.1398ZM162.847 48.7189C163.823 48.7189 164.649 48.3605 165.326 47.6436C166.023 46.9267 166.372 45.9011 166.372 44.5668C166.372 43.2326 166.033 42.207 165.356 41.4901C164.699 40.7732 163.882 40.4148 162.907 40.4148C161.911 40.4148 161.085 40.7732 160.427 41.4901C159.77 42.1871 159.442 43.2127 159.442 44.5668C159.442 45.9011 159.76 46.9267 160.397 47.6436C161.055 48.3605 161.871 48.7189 162.847 48.7189ZM173.263 44.5668C173.263 42.8343 173.612 41.3209 174.309 40.0264C175.026 38.732 176.012 37.7363 177.266 37.0393C178.541 36.3423 179.994 35.9939 181.627 35.9939C183.718 35.9939 185.461 36.5415 186.855 37.6368C188.269 38.732 189.195 40.2754 189.633 42.2668H184.196C183.738 40.9923 182.852 40.355 181.538 40.355C180.602 40.355 179.855 40.7234 179.297 41.4603C178.74 42.1772 178.461 43.2127 178.461 44.5668C178.461 45.921 178.74 46.9665 179.297 47.7033C179.855 48.4202 180.602 48.7787 181.538 48.7787C182.852 48.7787 183.738 48.1414 184.196 46.8669H189.633C189.195 48.8185 188.269 50.3519 186.855 51.4671C185.441 52.5823 183.698 53.1398 181.627 53.1398C179.994 53.1398 178.541 52.7914 177.266 52.0944C176.012 51.3974 175.026 50.4017 174.309 49.1073C173.612 47.8128 173.263 46.2994 173.263 44.5668ZM202.551 52.9009L197.473 45.911V52.9009H192.365V30.7963H197.473V43.0136L202.521 36.2328H208.824L201.894 44.5967L208.884 52.9009H202.551ZM209.815 44.5668C209.815 42.8343 210.163 41.3209 210.86 40.0264C211.577 38.732 212.563 37.7363 213.817 37.0393C215.092 36.3423 216.546 35.9939 218.179 35.9939C220.27 35.9939 222.012 36.5415 223.406 37.6368C224.82 38.732 225.746 40.2754 226.184 42.2668H220.748C220.29 40.9923 219.403 40.355 218.089 40.355C217.153 40.355 216.406 40.7234 215.849 41.4603C215.291 42.1772 215.012 43.2127 215.012 44.5668C215.012 45.921 215.291 46.9665 215.849 47.7033C216.406 48.4202 217.153 48.7787 218.089 48.7787C219.403 48.7787 220.29 48.1414 220.748 46.8669H226.184C225.746 48.8185 224.82 50.3519 223.406 51.4671C221.992 52.5823 220.25 53.1398 218.179 53.1398C216.546 53.1398 215.092 52.7914 213.817 52.0944C212.563 51.3974 211.577 50.4017 210.86 49.1073C210.163 47.8128 209.815 46.2994 209.815 44.5668ZM239.162 36.0536C241.074 36.0536 242.607 36.6908 243.762 37.9653C244.917 39.2199 245.495 40.9524 245.495 43.1629V52.9009H240.417V43.8499C240.417 42.7348 240.128 41.8685 239.55 41.2512C238.973 40.6338 238.196 40.3252 237.221 40.3252C236.245 40.3252 235.468 40.6338 234.891 41.2512C234.313 41.8685 234.024 42.7348 234.024 43.8499V52.9009H228.916V30.7963H234.024V38.4732C234.542 37.7363 235.249 37.1489 236.145 36.7108C237.041 36.2726 238.047 36.0536 239.162 36.0536ZM248.029 44.537C248.029 42.8244 248.347 41.3209 248.985 40.0264C249.642 38.732 250.528 37.7363 251.643 37.0393C252.758 36.3423 254.003 35.9939 255.377 35.9939C256.552 35.9939 257.577 36.2328 258.454 36.7108C259.35 37.1887 260.037 37.816 260.515 38.5926V36.2328H265.623V52.9009H260.515V50.5411C260.017 51.3177 259.32 51.945 258.424 52.4229C257.548 52.9009 256.522 53.1398 255.347 53.1398C253.993 53.1398 252.758 52.7914 251.643 52.0944C250.528 51.3775 249.642 50.3718 248.985 49.0774C248.347 47.7631 248.029 46.2496 248.029 44.537ZM260.515 44.5668C260.515 43.2923 260.156 42.2867 259.439 41.5499C258.742 40.8131 257.886 40.4446 256.871 40.4446C255.855 40.4446 254.989 40.8131 254.272 41.5499C253.575 42.2668 253.226 43.2625 253.226 44.537C253.226 45.8115 253.575 46.8271 254.272 47.5838C254.989 48.3206 255.855 48.6891 256.871 48.6891C257.886 48.6891 258.742 48.3206 259.439 47.5838C260.156 46.847 260.515 45.8413 260.515 44.5668ZM271.887 34.5003C270.991 34.5003 270.254 34.2414 269.677 33.7236C269.119 33.186 268.84 32.5288 268.84 31.7522C268.84 30.9556 269.119 30.2984 269.677 29.7807C270.254 29.243 270.991 28.9741 271.887 28.9741C272.763 28.9741 273.48 29.243 274.038 29.7807C274.615 30.2984 274.904 30.9556 274.904 31.7522C274.904 32.5288 274.615 33.186 274.038 33.7236C273.48 34.2414 272.763 34.5003 271.887 34.5003ZM274.426 36.2328V52.9009H269.318V36.2328H274.426ZM288.284 36.0536C290.236 36.0536 291.789 36.6908 292.944 37.9653C294.119 39.2199 294.706 40.9524 294.706 43.1629V52.9009H289.628V43.8499C289.628 42.7348 289.339 41.8685 288.762 41.2512C288.184 40.6338 287.408 40.3252 286.432 40.3252C285.456 40.3252 284.679 40.6338 284.102 41.2512C283.524 41.8685 283.236 42.7348 283.236 43.8499V52.9009H278.128V36.2328H283.236V38.4433C283.753 37.7065 284.45 37.129 285.327 36.7108C286.203 36.2726 287.189 36.0536 288.284 36.0536Z" fill="black"/>
</g>
<path d="M164.332 68.5029C164.087 68.5029 163.881 68.4197 163.714 68.2533C163.548 68.0869 163.464 67.8808 163.464 67.6351C163.464 67.3895 163.548 67.1834 163.714 67.017C163.881 66.8506 164.087 66.7674 164.332 66.7674C164.57 66.7674 164.772 66.8506 164.939 67.017C165.105 67.1834 165.188 67.3895 165.188 67.6351C165.188 67.8808 165.105 68.0869 164.939 68.2533C164.772 68.4197 164.57 68.5029 164.332 68.5029ZM164.998 69.3707V75.9207H163.643V69.3707H164.998ZM170.082 69.2637C170.597 69.2637 171.057 69.3707 171.461 69.5847C171.873 69.7987 172.194 70.1156 172.424 70.5357C172.653 70.9557 172.768 71.4629 172.768 72.0573V75.9207H171.425V72.2593C171.425 71.6729 171.279 71.2251 170.985 70.9161C170.692 70.5991 170.292 70.4406 169.785 70.4406C169.277 70.4406 168.873 70.5991 168.572 70.9161C168.279 71.2251 168.132 71.6729 168.132 72.2593V75.9207H166.777V69.3707H168.132V70.1196C168.354 69.8502 168.636 69.6402 168.976 69.4896C169.325 69.339 169.694 69.2637 170.082 69.2637ZM180.973 69.2637C181.472 69.2637 181.916 69.3707 182.304 69.5847C182.7 69.7987 183.01 70.1156 183.231 70.5357C183.461 70.9557 183.576 71.4629 183.576 72.0573V75.9207H182.233V72.2593C182.233 71.6729 182.086 71.2251 181.793 70.9161C181.5 70.5991 181.1 70.4406 180.592 70.4406C180.085 70.4406 179.681 70.5991 179.38 70.9161C179.087 71.2251 178.94 71.6729 178.94 72.2593V75.9207H177.585V67.124H178.94V70.1315C179.17 69.8541 179.459 69.6402 179.808 69.4896C180.164 69.339 180.553 69.2637 180.973 69.2637ZM191.308 72.4852C191.308 72.7309 191.292 72.9528 191.26 73.1509H186.256C186.295 73.6739 186.49 74.094 186.838 74.411C187.187 74.728 187.615 74.8865 188.122 74.8865C188.851 74.8865 189.366 74.5813 189.667 73.9711H191.13C190.931 74.5734 190.571 75.0687 190.048 75.457C189.533 75.8374 188.891 76.0276 188.122 76.0276C187.496 76.0276 186.933 75.889 186.434 75.6116C185.943 75.3263 185.554 74.93 185.269 74.4228C184.992 73.9077 184.853 73.3134 184.853 72.6397C184.853 71.9661 184.988 71.3757 185.257 70.8685C185.535 70.3534 185.919 69.9572 186.41 69.6798C186.91 69.4024 187.48 69.2637 188.122 69.2637C188.74 69.2637 189.291 69.3984 189.774 69.6679C190.258 69.9373 190.634 70.3177 190.904 70.8091C191.173 71.2925 191.308 71.8512 191.308 72.4852ZM189.893 72.0573C189.885 71.558 189.707 71.1578 189.358 70.8566C189.01 70.5555 188.578 70.4049 188.063 70.4049C187.595 70.4049 187.195 70.5555 186.862 70.8566C186.529 71.1499 186.331 71.5501 186.268 72.0573H189.893ZM192.19 72.616C192.19 71.9582 192.325 71.3757 192.594 70.8685C192.871 70.3613 193.244 69.969 193.711 69.6917C194.187 69.4064 194.71 69.2637 195.281 69.2637C195.796 69.2637 196.243 69.3667 196.624 69.5728C197.012 69.7709 197.321 70.0206 197.551 70.3217V69.3707H198.918V75.9207H197.551V74.9459C197.321 75.255 197.008 75.5125 196.612 75.7186C196.216 75.9246 195.764 76.0276 195.257 76.0276C194.694 76.0276 194.179 75.885 193.711 75.5997C193.244 75.3065 192.871 74.9023 192.594 74.3872C192.325 73.8641 192.19 73.2737 192.19 72.616ZM197.551 72.6397C197.551 72.188 197.456 71.7957 197.266 71.4629C197.083 71.13 196.842 70.8764 196.541 70.7021C196.239 70.5277 195.914 70.4406 195.566 70.4406C195.217 70.4406 194.892 70.5277 194.591 70.7021C194.29 70.8685 194.044 71.1182 193.854 71.451C193.672 71.7759 193.581 72.1642 193.581 72.616C193.581 73.0677 193.672 73.4639 193.854 73.8047C194.044 74.1455 194.29 74.407 194.591 74.5893C194.9 74.7636 195.225 74.8508 195.566 74.8508C195.914 74.8508 196.239 74.7636 196.541 74.5893C196.842 74.4149 197.083 74.1613 197.266 73.8285C197.456 73.4877 197.551 73.0915 197.551 72.6397ZM202.053 67.124V75.9207H200.698V67.124H202.053ZM205.413 70.4762V74.1019C205.413 74.3476 205.469 74.5259 205.58 74.6368C205.699 74.7398 205.897 74.7914 206.174 74.7914H207.006V75.9207H205.936C205.326 75.9207 204.859 75.778 204.534 75.4927C204.209 75.2074 204.046 74.7438 204.046 74.1019V70.4762H203.274V69.3707H204.046V67.7421H205.413V69.3707H207.006V70.4762H205.413ZM211.643 69.2637C212.142 69.2637 212.586 69.3707 212.975 69.5847C213.371 69.7987 213.68 70.1156 213.902 70.5357C214.132 70.9557 214.247 71.4629 214.247 72.0573V75.9207H212.903V72.2593C212.903 71.6729 212.757 71.2251 212.463 70.9161C212.17 70.5991 211.77 70.4406 211.263 70.4406C210.756 70.4406 210.351 70.5991 210.05 70.9161C209.757 71.2251 209.61 71.6729 209.61 72.2593V75.9207H208.255V67.124H209.61V70.1315C209.84 69.8541 210.13 69.6402 210.478 69.4896C210.835 69.339 211.223 69.2637 211.643 69.2637ZM215.523 72.6397C215.523 71.9661 215.658 71.3757 215.928 70.8685C216.205 70.3534 216.585 69.9572 217.069 69.6798C217.552 69.4024 218.107 69.2637 218.733 69.2637C219.525 69.2637 220.179 69.4539 220.694 69.8343C221.217 70.2068 221.57 70.7417 221.752 71.4391H220.29C220.171 71.1142 219.981 70.8606 219.72 70.6783C219.458 70.496 219.129 70.4049 218.733 70.4049C218.178 70.4049 217.734 70.603 217.402 70.9993C217.077 71.3876 216.914 71.9344 216.914 72.6397C216.914 73.3451 217.077 73.8958 217.402 74.2921C217.734 74.6883 218.178 74.8865 218.733 74.8865C219.518 74.8865 220.037 74.5417 220.29 73.8522H221.752C221.562 74.5179 221.206 75.0489 220.683 75.4452C220.159 75.8335 219.51 76.0276 218.733 76.0276C218.107 76.0276 217.552 75.889 217.069 75.6116C216.585 75.3263 216.205 74.93 215.928 74.4228C215.658 73.9077 215.523 73.3134 215.523 72.6397ZM222.651 72.616C222.651 71.9582 222.786 71.3757 223.055 70.8685C223.333 70.3613 223.705 69.969 224.173 69.6917C224.648 69.4064 225.171 69.2637 225.742 69.2637C226.257 69.2637 226.705 69.3667 227.085 69.5728C227.474 69.7709 227.783 70.0206 228.012 70.3217V69.3707H229.379V75.9207H228.012V74.9459C227.783 75.255 227.47 75.5125 227.073 75.7186C226.677 75.9246 226.225 76.0276 225.718 76.0276C225.155 76.0276 224.64 75.885 224.173 75.5997C223.705 75.3065 223.333 74.9023 223.055 74.3872C222.786 73.8641 222.651 73.2737 222.651 72.616ZM228.012 72.6397C228.012 72.188 227.917 71.7957 227.727 71.4629C227.545 71.13 227.303 70.8764 227.002 70.7021C226.701 70.5277 226.376 70.4406 226.027 70.4406C225.679 70.4406 225.354 70.5277 225.052 70.7021C224.751 70.8685 224.506 71.1182 224.315 71.451C224.133 71.7759 224.042 72.1642 224.042 72.616C224.042 73.0677 224.133 73.4639 224.315 73.8047C224.506 74.1455 224.751 74.407 225.052 74.5893C225.362 74.7636 225.686 74.8508 226.027 74.8508C226.376 74.8508 226.701 74.7636 227.002 74.5893C227.303 74.4149 227.545 74.1613 227.727 73.8285C227.917 73.4877 228.012 73.0915 228.012 72.6397ZM232.515 70.3217C232.713 69.9889 232.974 69.7313 233.299 69.549C233.632 69.3588 234.024 69.2637 234.476 69.2637V70.6664H234.131C233.6 70.6664 233.196 70.8012 232.919 71.0706C232.649 71.3401 232.515 71.8076 232.515 72.4733V75.9207H231.159V69.3707H232.515V70.3217ZM241.725 72.4852C241.725 72.7309 241.709 72.9528 241.677 73.1509H236.673C236.712 73.6739 236.906 74.094 237.255 74.411C237.604 74.728 238.032 74.8865 238.539 74.8865C239.268 74.8865 239.783 74.5813 240.084 73.9711H241.546C241.348 74.5734 240.988 75.0687 240.465 75.457C239.95 75.8374 239.308 76.0276 238.539 76.0276C237.913 76.0276 237.35 75.889 236.851 75.6116C236.36 75.3263 235.971 74.93 235.686 74.4228C235.409 73.9077 235.27 73.3134 235.27 72.6397C235.27 71.9661 235.405 71.3757 235.674 70.8685C235.951 70.3534 236.336 69.9572 236.827 69.6798C237.326 69.4024 237.897 69.2637 238.539 69.2637C239.157 69.2637 239.708 69.3984 240.191 69.6679C240.675 69.9373 241.051 70.3177 241.321 70.8091C241.59 71.2925 241.725 71.8512 241.725 72.4852ZM240.31 72.0573C240.302 71.558 240.124 71.1578 239.775 70.8566C239.427 70.5555 238.995 70.4049 238.48 70.4049C238.012 70.4049 237.612 70.5555 237.279 70.8566C236.946 71.1499 236.748 71.5501 236.685 72.0573H240.31Z" fill="#818181"/>
<path d="M73.6454 58.5427C73.1474 59.5023 72.4948 60.4018 71.6886 61.2053L57.3678 75.4765C56.8406 76.0018 56.2593 76.4721 55.6398 76.8753C55.3887 77.0394 55.1056 77.1184 54.8265 77.1204H54.8175C54.4761 77.1204 54.1407 77.0024 53.8697 76.7843C53.3013 76.401 52.7662 75.9618 52.2792 75.4766L37.9584 61.2053C37.1893 60.4389 36.5497 59.5754 36.0527 58.6429C35.2314 57.101 34.7957 55.369 34.7957 53.5669C34.7957 50.6753 35.9182 47.9628 37.9584 45.9295C39.9986 43.8963 42.7206 42.7767 45.6233 42.7767C48.526 42.7767 51.248 43.8964 53.2873 45.9295L54.8235 47.4604L54.8265 47.4575L56.3597 45.9295C60.5857 41.7181 67.4625 41.7181 71.6886 45.9295C75.1083 49.3375 75.761 54.4744 73.6454 58.5427Z" fill="#FF576F"/>
<path d="M73.6455 58.5427C73.1475 59.5023 72.4949 60.4018 71.6887 61.2053L57.3678 75.4765C56.8407 76.0018 56.2594 76.4721 55.6398 76.8753C55.3888 77.0394 55.1056 77.1184 54.8265 77.1204V47.4574L56.3598 45.9295C60.5858 41.7181 67.4626 41.7181 71.6887 45.9295C75.1084 49.3375 75.7611 54.4744 73.6455 58.5427Z" fill="#F23652"/>
<path d="M67.1011 57.7946C67.1011 58.7387 67.1011 58.1468 67.1011 60.6213H61.5668C61.2372 60.6213 60.9395 60.4567 60.7279 60.1927L60.7271 60.1917C60.6271 60.0876 60.5395 59.9602 60.4712 59.8132L59.4462 57.5871L57.6731 62.3295C57.6723 62.3332 57.6707 62.336 57.6692 62.3397C57.663 62.3555 57.6568 62.3713 57.6498 62.3871C57.6405 62.4085 57.6312 62.4299 57.6211 62.4513C57.6142 62.4652 57.6079 62.4792 57.6002 62.4931C57.5855 62.5219 57.5707 62.5498 57.5545 62.5768C57.5506 62.5824 57.5475 62.5879 57.5444 62.5935C57.5227 62.6279 57.5002 62.6614 57.4761 62.693L57.4638 62.7079C57.4413 62.7367 57.418 62.7646 57.394 62.7906C57.3916 62.7934 57.3893 62.7962 57.387 62.799C57.3862 62.8008 57.3847 62.8017 57.3832 62.8036C57.3568 62.8315 57.3297 62.8575 57.3018 62.8827C57.2762 62.905 57.2498 62.9264 57.2227 62.9459C57.2126 62.9534 57.2018 62.9608 57.1917 62.9673C57.1746 62.9794 57.1575 62.9906 57.1397 63.0017C57.1273 63.0092 57.1149 63.0166 57.1025 63.024C57.0847 63.0333 57.0668 63.0427 57.049 63.051C57.0335 63.0585 57.018 63.0659 57.0025 63.0724C56.9792 63.0826 56.9552 63.0919 56.9311 63.1003C56.9187 63.104 56.9071 63.1077 56.8947 63.1114C56.8753 63.117 56.8552 63.1226 56.8358 63.1272C56.8242 63.13 56.8133 63.1328 56.8024 63.1347C56.7792 63.1393 56.7551 63.143 56.7319 63.1459C56.7241 63.1468 56.7171 63.1477 56.7094 63.1486C56.6768 63.1523 56.6442 63.1542 56.6117 63.1542C56.514 63.1542 56.4163 63.1375 56.3194 63.1068C56.2977 63.1003 56.2759 63.0947 56.255 63.0864C56.2488 63.0845 56.2418 63.0808 56.2356 63.078C56.2023 63.0641 56.1697 63.0501 56.1379 63.0325H56.1363C56.1286 63.0278 56.1216 63.0232 56.1146 63.0185C56.0867 63.0027 56.0588 62.986 56.0317 62.9674C56.01 62.9535 55.9906 62.9367 55.9704 62.92C55.9565 62.9098 55.9433 62.9005 55.9301 62.8893C55.8975 62.8614 55.8665 62.8308 55.8371 62.7991C55.8324 62.7945 55.8285 62.7889 55.8239 62.7833C55.7983 62.7554 55.7735 62.7256 55.7502 62.695C55.7487 62.6931 55.7472 62.6913 55.7448 62.6884L54.3608 60.8315L54.3368 60.7989L52.6217 62.9024C52.6217 62.9024 52.6209 62.9033 52.6202 62.9043C52.5659 62.9712 52.5046 63.0317 52.4387 63.0856C52.431 63.0921 52.4225 63.0967 52.4139 63.1033C52.3898 63.1219 52.3658 63.1395 52.341 63.1562C52.2681 63.2027 52.1921 63.239 52.1138 63.2659C52.0843 63.2762 52.0557 63.2846 52.027 63.292C52.0169 63.2948 52.0068 63.2966 51.9968 63.2985C51.9704 63.305 51.944 63.3096 51.9177 63.3124C51.91 63.3133 51.9022 63.3151 51.8952 63.3151C51.8596 63.3198 51.8246 63.3217 51.7898 63.3217C51.7549 63.3217 51.7192 63.3198 51.6843 63.3161C51.6781 63.3151 51.6727 63.3142 51.6673 63.3133C51.6394 63.3096 51.6115 63.3049 51.5843 63.2994C51.5727 63.2966 51.5619 63.2938 51.551 63.2911C51.5293 63.2855 51.5075 63.279 51.4858 63.2725C51.4727 63.2678 51.4587 63.2632 51.4455 63.2585C51.4269 63.2511 51.4083 63.2437 51.3897 63.2353C51.3758 63.2288 51.361 63.2232 51.3471 63.2157C51.3269 63.2064 51.3075 63.1943 51.2874 63.1832C51.268 63.172 51.2478 63.1599 51.2284 63.1469C51.209 63.1339 51.1897 63.1209 51.1703 63.106C51.1587 63.0977 51.1471 63.0883 51.1362 63.0781C51.1168 63.0633 51.099 63.0475 51.0811 63.0307C51.071 63.0224 51.0617 63.013 51.0524 63.0038C51.0307 62.9824 51.0098 62.9601 50.9889 62.9368C50.985 62.9322 50.9811 62.9285 50.9773 62.9237C50.9765 62.9228 50.975 62.921 50.9742 62.9191C50.9471 62.8875 50.9214 62.855 50.8975 62.8196C50.8959 62.8187 50.8952 62.8168 50.8944 62.8159C50.8727 62.7843 50.8525 62.7518 50.8331 62.7183C50.8269 62.7071 50.8215 62.696 50.8153 62.6848C50.8021 62.6616 50.7897 62.6374 50.7781 62.6123C50.7711 62.5974 50.7649 62.5825 50.7579 62.5676C50.7486 62.5463 50.74 62.5239 50.7315 62.5016C50.7253 62.4839 50.7184 62.4672 50.7129 62.4495C50.706 62.4281 50.699 62.4068 50.6927 62.3844C50.6881 62.3668 50.6819 62.3491 50.6772 62.3305C50.6772 62.3296 50.6772 62.3286 50.6764 62.3277L49.6235 58.1171L48.8435 59.9527C48.8373 59.9685 48.8303 59.9825 48.8233 59.9974C48.8039 60.0401 48.7822 60.082 48.759 60.1219L48.7582 60.1229C48.7574 60.1238 48.7566 60.1257 48.7559 60.1266C48.7559 60.1275 48.7559 60.1275 48.7551 60.1285C48.7512 60.134 48.7474 60.1406 48.7435 60.1461C48.7319 60.1657 48.7195 60.1861 48.7071 60.2047C48.7063 60.2056 48.7063 60.2056 48.7055 60.2066C48.7008 60.2131 48.6962 60.2196 48.6908 60.2261C48.6784 60.2447 48.6652 60.2623 48.6512 60.28C48.6489 60.2828 48.6474 60.2846 48.645 60.2875C48.6233 60.3144 48.6008 60.3396 48.5783 60.3637C48.5682 60.3749 48.5581 60.386 48.5473 60.3962C48.5457 60.3981 48.5442 60.3991 48.5427 60.4009C48.5194 60.4232 48.4953 60.4446 48.4713 60.465L48.4705 60.4659C48.4511 60.4827 48.431 60.4975 48.4108 60.5125C48.4092 60.5134 48.4085 60.5144 48.4069 60.5152C48.4069 60.5152 48.4062 60.5152 48.4062 60.5162C48.4046 60.5171 48.4031 60.5181 48.4015 60.519C48.3829 60.532 48.3643 60.545 48.3449 60.5562C48.3186 60.5729 48.2921 60.5878 48.265 60.6017C48.2581 60.6054 48.2511 60.6083 48.2433 60.612C48.2239 60.6212 48.2045 60.6306 48.1852 60.6389C48.1836 60.6389 48.1821 60.6399 48.1805 60.6408C48.1627 60.6483 48.1449 60.6547 48.1271 60.6612C48.1216 60.6631 48.117 60.664 48.1123 60.6659C48.0891 60.6733 48.065 60.6807 48.0418 60.6863C48.0309 60.6891 48.0193 60.691 48.0076 60.6928C47.9821 60.6984 47.9564 60.7031 47.9301 60.7059C47.9285 60.7068 47.9278 60.7068 47.9262 60.7068H47.9247C47.8851 60.7115 47.8463 60.7152 47.806 60.7152C47.803 60.7152 47.7998 60.7142 47.796 60.7142L42.1267 60.6612L41.5046 60.1461C41.0899 59.8089 40.0531 58.7757 39.6384 57.8281L47.0952 57.9246L48.8676 53.7513C48.8692 53.7466 48.8723 53.742 48.8738 53.7373C48.8839 53.715 48.8947 53.6936 48.9056 53.6713C48.9149 53.6536 48.9234 53.6342 48.9327 53.6165C48.9428 53.5988 48.9544 53.5811 48.9653 53.5635C48.9769 53.544 48.9886 53.5244 49.001 53.5058C49.0103 53.491 49.0211 53.477 49.032 53.4631C49.0467 53.4436 49.0607 53.4231 49.0761 53.4045C49.087 53.3915 49.0986 53.3794 49.1095 53.3664C49.1257 53.3487 49.1421 53.3302 49.1591 53.3125C49.1723 53.2994 49.1862 53.2883 49.1994 53.2753C49.2156 53.2604 49.232 53.2455 49.249 53.2316C49.2637 53.2195 49.2792 53.2093 49.2947 53.1981C49.311 53.1851 49.3281 53.1721 49.3451 53.1609C49.3599 53.1507 49.3753 53.1433 49.3909 53.134C49.4103 53.1228 49.4297 53.1107 49.449 53.1005C49.463 53.094 49.4777 53.0875 49.4917 53.081C49.5141 53.0717 49.5358 53.0615 49.5584 53.0531C49.5622 53.0512 49.5661 53.0494 49.5692 53.0485C49.5808 53.0448 49.5917 53.0419 49.6026 53.0383C49.6251 53.0317 49.6475 53.0243 49.67 53.0188C49.6871 53.0151 49.7034 53.0113 49.7204 53.0085C49.7406 53.0048 49.7615 53.0002 49.7817 52.9983C49.8003 52.9956 49.8181 52.9946 49.8367 52.9927C49.8561 52.9918 49.8755 52.9909 49.8949 52.99C49.9135 52.99 49.9321 52.9909 49.9507 52.9919C49.9701 52.9928 49.9895 52.9938 50.0088 52.9956C50.0266 52.9975 50.0452 53.0012 50.0631 53.0039C50.0825 53.0067 50.1019 53.0104 50.1212 53.0151C50.139 53.0188 50.1576 53.0243 50.1755 53.029C50.1941 53.0346 50.2127 53.0401 50.2313 53.0467C50.2499 53.0532 50.2685 53.0615 50.2871 53.069C50.3042 53.0764 50.3213 53.0829 50.3383 53.0913C50.3585 53.1015 50.3778 53.1117 50.398 53.1229C50.4089 53.1294 50.4205 53.135 50.4313 53.1415C50.4352 53.1434 50.4391 53.1471 50.4422 53.149C50.4624 53.1611 50.481 53.175 50.4996 53.189C50.5144 53.1992 50.5291 53.2085 50.5431 53.2196C50.5593 53.2327 50.5749 53.2466 50.5912 53.2606C50.6059 53.2745 50.6214 53.2866 50.6361 53.3006C50.6493 53.3136 50.6617 53.3285 50.6749 53.3424C50.6904 53.3582 50.7059 53.374 50.7207 53.3917C50.733 53.4065 50.7447 53.4223 50.7563 53.4373C50.7695 53.4549 50.7842 53.4726 50.7966 53.4902C50.809 53.5089 50.8207 53.5274 50.8323 53.546C50.8431 53.5637 50.8539 53.5805 50.864 53.5981C50.8756 53.6176 50.8857 53.6391 50.8958 53.6595C50.9051 53.6781 50.9152 53.6957 50.9237 53.7144C50.9323 53.7339 50.94 53.7544 50.9478 53.7739C50.9571 53.7952 50.9656 53.8166 50.9733 53.838C50.9803 53.8566 50.9849 53.8752 50.9912 53.8947C50.9989 53.9189 51.0067 53.944 51.0136 53.9692C51.0144 53.9738 51.0167 53.9784 51.0175 53.9831L52.3379 59.2612L53.5436 57.7826C53.5521 57.7715 53.5622 57.7612 53.5715 57.751C53.5816 57.7399 53.5901 57.7287 53.5994 57.7175C53.6049 57.7129 53.6103 57.7083 53.615 57.7027C53.6312 57.686 53.6475 57.6702 53.6646 57.6553C53.6785 57.6423 53.6933 57.6283 53.7072 57.6162C53.725 57.6014 53.7421 57.5883 53.76 57.5753C53.7755 57.5641 53.7902 57.552 53.8057 57.5418C53.8235 57.5297 53.8414 57.5195 53.8592 57.5083C53.8754 57.4991 53.8925 57.4888 53.9088 57.4804C53.9266 57.4712 53.9437 57.4628 53.9615 57.4554C53.9794 57.447 53.9972 57.4386 54.0158 57.4321C54.0328 57.4246 54.0499 57.4191 54.0678 57.4135C54.0864 57.4079 54.105 57.4014 54.1244 57.3958C54.1414 57.3921 54.1592 57.3883 54.1763 57.3846C54.1957 57.3809 54.2151 57.3763 54.2345 57.3735C54.2523 57.3716 54.2701 57.3698 54.2879 57.3679C54.3073 57.366 54.326 57.3651 54.3453 57.3642H54.3609C54.374 57.3633 54.3872 57.3642 54.4004 57.3642C54.419 57.3651 54.4376 57.3651 54.4562 57.3669C54.4756 57.3688 54.4942 57.3716 54.5128 57.3744C54.5307 57.3763 54.5493 57.3791 54.5671 57.3827C54.5857 57.3864 54.6043 57.3911 54.6237 57.3967C54.6408 57.4013 54.6586 57.405 54.6765 57.4106C54.6951 57.4171 54.7129 57.4245 54.7315 57.431C54.7485 57.4375 54.7664 57.4449 54.7835 57.4524C54.8013 57.4599 54.8183 57.4691 54.8354 57.4784C54.8533 57.4867 54.8711 57.4961 54.8882 57.5063C54.9044 57.5156 54.92 57.5267 54.9363 57.537C54.9541 57.5491 54.9719 57.5602 54.989 57.5732C55.0038 57.5844 55.0185 57.5965 55.0325 57.6086C55.0503 57.6234 55.0673 57.6374 55.0844 57.6532C55.0984 57.6662 55.1116 57.6802 55.1255 57.6932C55.1418 57.7099 55.1581 57.7267 55.1736 57.7453C55.1783 57.7499 55.1837 57.7546 55.1884 57.7602C55.1977 57.7713 55.2054 57.7834 55.2147 57.7946C55.2232 57.8057 55.2333 57.816 55.2418 57.8281L56.2847 59.2266L58.2765 53.8974C58.2804 53.8882 58.2842 53.8788 58.2881 53.8695C58.2982 53.8453 58.3083 53.8221 58.3183 53.7989C58.3268 53.7812 58.3346 53.7635 58.3432 53.7459C58.354 53.7245 58.3656 53.7031 58.378 53.6826C58.3873 53.665 58.3982 53.6473 58.4082 53.6305C58.4198 53.6119 58.4323 53.5934 58.4454 53.5757C58.457 53.558 58.4695 53.5403 58.4827 53.5236C58.4951 53.5078 58.5075 53.492 58.5207 53.477C58.5354 53.4594 58.5502 53.4426 58.5648 53.4268C58.5772 53.4129 58.5904 53.3999 58.6044 53.3868C58.6206 53.3701 58.6377 53.3543 58.6555 53.3394C58.6687 53.3283 58.6819 53.3171 58.6951 53.3069C58.7145 53.2911 58.7338 53.2771 58.754 53.2632C58.7609 53.2576 58.7679 53.252 58.7749 53.2474C58.7818 53.2428 58.7888 53.2399 58.7958 53.2353C58.8152 53.2232 58.8346 53.212 58.8539 53.2009C58.8702 53.1916 58.8865 53.1832 58.9027 53.1749C58.9206 53.1665 58.9384 53.1591 58.9562 53.1516C58.9748 53.1441 58.9942 53.1358 59.0128 53.1293C59.0291 53.1237 59.0454 53.1191 59.0624 53.1144C59.0826 53.1079 59.1027 53.1023 59.1229 53.0977C59.1399 53.094 59.1563 53.0912 59.1733 53.0884C59.1935 53.0847 59.2136 53.0819 59.2338 53.0791C59.2516 53.0772 59.2702 53.0764 59.2888 53.0754C59.3074 53.0745 59.326 53.0735 59.3439 53.0735C59.3648 53.0735 59.385 53.0754 59.4051 53.0772C59.4222 53.0782 59.4385 53.0791 59.4555 53.0809C59.4764 53.0837 59.4974 53.0875 59.5183 53.0912C59.5346 53.0949 59.5509 53.0977 59.5671 53.1014C59.5873 53.106 59.6067 53.1125 59.626 53.1181C59.6439 53.1237 59.6625 53.1293 59.6803 53.1358C59.6973 53.1423 59.7144 53.1497 59.7315 53.1572C59.7517 53.1655 59.7718 53.1749 59.7912 53.1851C59.7981 53.1888 59.8059 53.1916 59.8129 53.1953C59.8206 53.1999 59.8284 53.2046 59.8361 53.2092C59.8563 53.2213 59.8764 53.2334 59.8958 53.2464C59.9106 53.2557 59.9245 53.265 59.9385 53.2752C59.9571 53.2883 59.9749 53.3022 59.9928 53.317C60.0075 53.3291 60.0215 53.3403 60.0354 53.3533C60.0509 53.3672 60.0672 53.3831 60.0827 53.3979C60.0967 53.4128 60.1106 53.4268 60.1238 53.4416C60.1378 53.4565 60.1517 53.4732 60.1649 53.489C60.1789 53.5057 60.192 53.5225 60.2052 53.5402C60.2168 53.556 60.2285 53.5727 60.2393 53.5894C60.2525 53.6089 60.2657 53.6285 60.2773 53.6489C60.2874 53.6647 60.2975 53.6824 60.3068 53.6992C60.3184 53.7215 60.3301 53.7429 60.341 53.7661C60.3456 53.7754 60.3511 53.7838 60.3557 53.7931L62.2165 57.8316L67.1011 57.7946Z" fill="#E6E9ED"/>
<ellipse cx="67.4239" cy="59.1894" rx="2.69558" ry="2.68624" fill="#F0F0F0"/>
<defs>
<filter id="filter0_d" x="23.686" y="25.7378" width="61.8601" height="61.6536" filterUnits="userSpaceOnUse" color-interpolation-filters="sRGB">
<feFlood flood-opacity="0" result="BackgroundImageFix"/>
<feColorMatrix in="SourceAlpha" type="matrix" values="0 0 0 0 0 0 0 0 0 0 0 0 0 0 0 0 0 0 127 0"/>
<feOffset dy="1.13947"/>
<feGaussianBlur stdDeviation="0.569734"/>
<feColorMatrix type="matrix" values="0 0 0 0 0 0 0 0 0 0 0 0 0 0 0 0 0 0 0.25 0"/>
<feBlend mode="normal" in2="BackgroundImageFix" result="effect1_dropShadow"/>
<feBlend mode="normal" in="SourceGraphic" in2="effect1_dropShadow" result="shape"/>
</filter>
<filter id="filter1_d" x="125.897" y="28.9741" width="169.671" height="25.8904" filterUnits="userSpaceOnUse" color-interpolation-filters="sRGB">
<feFlood flood-opacity="0" result="BackgroundImageFix"/>
<feColorMatrix in="SourceAlpha" type="matrix" values="0 0 0 0 0 0 0 0 0 0 0 0 0 0 0 0 0 0 127 0"/>
<feOffset dy="0.862363"/>
<feGaussianBlur stdDeviation="0.431182"/>
<feColorMatrix type="matrix" values="0 0 0 0 0 0 0 0 0 0 0 0 0 0 0 0 0 0 0.25 0"/>
<feBlend mode="normal" in2="BackgroundImageFix" result="effect1_dropShadow"/>
<feBlend mode="normal" in="SourceGraphic" in2="effect1_dropShadow" result="shape"/>
</filter>
</defs>
</svg>
