<svg width="520" height="367" viewBox="0 0 520 367" fill="none" xmlns="http://www.w3.org/2000/svg">
<g clip-path="url(#clip0)">
<path d="M265.434 365.486C281.066 365.486 293.737 352.814 293.737 337.182C293.737 321.55 281.066 308.878 265.434 308.878C249.802 308.878 237.13 321.55 237.13 337.182C237.13 352.814 249.802 365.486 265.434 365.486Z" fill="#6F6EAE"/>
<path d="M434.521 363.895C450.355 359.14 467.189 354.181 479.747 342.876C490.969 332.774 498.545 317.348 493.896 302.198C489.256 287.079 475.36 276.998 461.013 271.984C452.876 269.14 444.363 267.562 435.853 266.323C426.602 264.976 417.31 263.872 408.023 262.809C370.417 258.508 332.67 255.881 294.782 254.927C276.086 254.456 257.394 254.467 238.696 254.739C221.997 254.981 204.411 254.975 188.919 247.878C176.873 242.359 165.939 232.318 162.583 219.123C158.708 203.892 165.855 188.381 176.107 177.349C181.511 171.535 187.827 166.641 194.342 162.141C201.41 157.259 208.725 152.723 216.198 148.489C230.916 140.153 246.304 133.059 262.201 127.28C270.044 124.429 278.002 121.969 286.03 119.699C292.809 117.783 299.609 115.863 306.16 113.252C318.825 108.205 330.871 99.6544 334.091 85.637C337.143 72.3519 331.997 57.9298 322.976 48.0606C312.539 36.6425 296.802 31.6372 281.714 30.8274C264.776 29.9182 248.228 34.1574 232.308 39.5374C215.328 45.2757 198.714 51.8736 181.375 56.5215C164.181 61.126 146.654 64.384 128.954 66.2657C120.29 67.1883 111.363 68.2302 102.647 67.5238C95.3416 66.9318 88.0738 64.7834 82.6901 59.599C78.0738 55.1537 75.3239 49.0443 76.2693 42.597C76.441 41.4259 78.2199 41.9238 78.0493 43.0877C76.8984 50.9358 82.2332 58.1677 88.8072 61.8722C96.4049 66.1536 105.65 66.1595 114.109 65.6698C132.45 64.562 150.668 61.9286 168.572 57.7967C186.165 53.7785 203.129 48.0343 220.074 41.8981C236.168 36.0703 252.621 30.3823 269.815 29.1201C284.733 28.0248 300.427 30.1982 313.423 37.9945C324.846 44.8465 333.245 56.2733 335.921 69.3857C338.537 82.199 334.915 95.0959 325.215 104.037C315.173 113.295 301.403 117.253 288.57 120.899C272.295 125.522 256.368 130.927 240.951 137.944C225.325 145.037 210.338 153.463 196.158 163.127C182.47 172.481 168.961 184.251 164.632 200.938C162.616 208.711 162.988 216.955 166.362 224.297C169.362 230.825 174.303 236.317 180.06 240.552C193.793 250.658 211.103 252.733 227.692 252.94C246.324 253.171 264.957 252.543 283.595 252.849C321.579 253.472 359.485 255.784 397.313 259.785C406.792 260.788 416.258 261.897 425.713 263.112C434.218 264.204 442.751 265.29 451.112 267.231C465.979 270.681 480.445 277.316 489.686 289.922C493.787 295.385 496.328 301.86 497.037 308.655C497.684 315.745 495.948 322.849 492.742 329.157C485.646 343.118 472.355 351.999 458.24 357.833C450.68 360.957 442.838 363.325 435.012 365.675C433.872 366.018 433.384 364.237 434.521 363.895L434.521 363.895Z" fill="#F2F2F2"/>
<path d="M77.4612 57.53C85.6169 57.53 92.2283 50.9186 92.2283 42.7629C92.2283 34.6073 85.6169 27.9958 77.4612 27.9958C69.3056 27.9958 62.6942 34.6073 62.6942 42.7629C62.6942 50.9186 69.3056 57.53 77.4612 57.53Z" fill="#F2F2F2"/>
<path d="M179.908 85.5261C188.064 85.5261 194.675 78.9147 194.675 70.759C194.675 62.6034 188.064 55.9919 179.908 55.9919C171.752 55.9919 165.141 62.6034 165.141 70.759C165.141 78.9147 171.752 85.5261 179.908 85.5261Z" fill="#F2F2F2"/>
<path d="M266.665 29.5342C274.82 29.5342 281.432 22.9227 281.432 14.7671C281.432 6.61145 274.82 0 266.665 0C258.509 0 251.897 6.61145 251.897 14.7671C251.897 22.9227 258.509 29.5342 266.665 29.5342Z" fill="#F2F2F2"/>
<path d="M320.81 92.2944C328.966 92.2944 335.578 85.683 335.578 77.5273C335.578 69.3717 328.966 62.7603 320.81 62.7603C312.655 62.7603 306.043 69.3717 306.043 77.5273C306.043 85.683 312.655 92.2944 320.81 92.2944Z" fill="#F2F2F2"/>
<path d="M247.59 164.899C255.746 164.899 262.357 158.288 262.357 150.132C262.357 141.976 255.746 135.365 247.59 135.365C239.435 135.365 232.823 141.976 232.823 150.132C232.823 158.288 239.435 164.899 247.59 164.899Z" fill="#F2F2F2"/>
<path d="M154.681 199.971C162.836 199.971 169.448 193.359 169.448 185.204C169.448 177.048 162.836 170.437 154.681 170.437C146.525 170.437 139.914 177.048 139.914 185.204C139.914 193.359 146.525 199.971 154.681 199.971Z" fill="#F2F2F2"/>
<path d="M253.128 254.732C261.284 254.732 267.895 248.121 267.895 239.965C267.895 231.81 261.284 225.198 253.128 225.198C244.972 225.198 238.361 231.81 238.361 239.965C238.361 248.121 244.972 254.732 253.128 254.732Z" fill="#F2F2F2"/>
<path d="M358.959 285.497C367.114 285.497 373.726 278.886 373.726 270.73C373.726 262.574 367.114 255.963 358.959 255.963C350.803 255.963 344.192 262.574 344.192 270.73C344.192 278.886 350.803 285.497 358.959 285.497Z" fill="#F2F2F2"/>
<path d="M482.633 278.729C490.789 278.729 497.4 272.117 497.4 263.961C497.4 255.806 490.789 249.194 482.633 249.194C474.477 249.194 467.866 255.806 467.866 263.961C467.866 272.117 474.477 278.729 482.633 278.729Z" fill="#F2F2F2"/>
<path d="M262.402 41.842C218.167 42.1544 181.948 78.1012 181.32 122.333C181.314 122.741 181.312 125.612 181.312 129.368C181.312 134.875 183.5 140.156 187.393 144.049C191.287 147.943 196.568 150.131 202.074 150.132H202.074C204.804 150.131 207.507 149.593 210.028 148.547C212.55 147.502 214.841 145.969 216.77 144.038C218.699 142.107 220.229 139.815 221.271 137.292C222.314 134.769 222.85 132.066 222.847 129.336C222.845 126.781 222.844 125.013 222.844 124.905C222.843 118.069 224.621 111.35 228.003 105.41C231.386 99.4697 236.257 94.5123 242.137 91.0255C248.016 87.5386 254.703 85.6424 261.537 85.5234C268.372 85.4043 275.12 87.0666 281.118 90.3466C287.116 93.6266 292.156 98.4114 295.744 104.23C299.331 110.049 301.342 116.702 301.579 123.533C301.815 130.365 300.269 137.141 297.093 143.194C293.917 149.247 289.219 154.369 283.463 158.056L283.47 158.065C283.47 158.065 253.919 177.09 244.909 203.188L244.917 203.19C243.333 208.536 242.53 214.084 242.534 219.66C242.534 221.952 242.668 242.008 242.929 258.287C243.02 263.904 245.316 269.259 249.32 273.199C253.325 277.138 258.718 279.345 264.335 279.344H264.335C267.158 279.344 269.952 278.785 272.559 277.701C275.165 276.617 277.531 275.028 279.52 273.026C281.51 271.024 283.084 268.648 284.152 266.035C285.22 263.423 285.761 260.624 285.744 257.802C285.653 242.894 285.604 225.535 285.604 224.275C285.604 208.25 301.064 192.283 313.762 181.87C328.385 169.88 338.908 153.54 343.135 135.108C344.07 131.314 344.586 127.428 344.673 123.52C344.673 112.744 342.54 102.075 338.398 92.1263C334.257 82.178 328.187 73.1475 320.54 65.5553C312.893 57.963 303.819 51.959 293.841 47.8892C283.863 43.8193 273.178 41.7641 262.402 41.842Z" fill="#6F6EAE"/>
<path d="M518.992 366.262H0.73264C0.538704 366.261 0.352907 366.184 0.215972 366.046C0.0790373 365.909 0.00213623 365.723 0.00213623 365.529C0.00213623 365.335 0.0790373 365.149 0.215972 365.012C0.352907 364.874 0.538704 364.797 0.73264 364.796H518.992C519.186 364.796 519.373 364.874 519.51 365.011C519.647 365.148 519.725 365.335 519.725 365.529C519.725 365.723 519.647 365.91 519.51 366.047C519.373 366.184 519.186 366.262 518.992 366.262Z" fill="#3F3D56"/>
<path d="M386.682 167.973C396.876 167.973 405.14 159.709 405.14 149.514C405.14 139.319 396.876 131.055 386.682 131.055C376.487 131.055 368.223 139.319 368.223 149.514C368.223 159.709 376.487 167.973 386.682 167.973Z" fill="#2F2E41"/>
<path d="M352.572 358.181H345.029L341.44 329.085H352.573L352.572 358.181Z" fill="#A0616A"/>
<path d="M339.64 356.026H354.188V365.185H330.48C330.48 363.983 330.717 362.791 331.178 361.68C331.638 360.569 332.313 359.559 333.163 358.709C334.014 357.858 335.024 357.183 336.135 356.723C337.246 356.263 338.437 356.026 339.64 356.026Z" fill="#2F2E41"/>
<path d="M411.025 358.181H403.482L399.893 329.085H411.026L411.025 358.181Z" fill="#A0616A"/>
<path d="M398.093 356.026H412.641V365.185H388.933C388.933 363.983 389.17 362.791 389.631 361.68C390.091 360.569 390.766 359.559 391.616 358.709C392.467 357.858 393.477 357.183 394.588 356.723C395.699 356.263 396.89 356.026 398.093 356.026Z" fill="#2F2E41"/>
<path d="M383.876 168.081C392.223 168.081 398.989 161.315 398.989 152.969C398.989 144.622 392.223 137.856 383.876 137.856C375.53 137.856 368.764 144.622 368.764 152.969C368.764 161.315 375.53 168.081 383.876 168.081Z" fill="#A0616A"/>
<path d="M392.884 216.834L399.646 201.297C401.288 197.653 401.759 193.588 400.993 189.665C400.227 185.741 398.262 182.152 395.37 179.393C394.775 178.806 394.144 178.257 393.48 177.75C390.144 175.14 386.032 173.717 381.796 173.708C378.948 173.719 376.136 174.344 373.551 175.541C373.33 175.64 373.114 175.744 372.893 175.849C372.468 176.052 372.05 176.273 371.644 176.501C368.995 178.022 366.741 180.144 365.063 182.696C363.385 185.249 362.33 188.159 361.983 191.194L358.999 216.2C358.249 218.163 331.471 289.045 340.836 343.16C340.936 343.738 341.217 344.269 341.64 344.675C342.063 345.081 342.605 345.342 343.186 345.418L352.68 346.71C353.374 346.805 354.077 346.634 354.649 346.231C355.221 345.828 355.619 345.223 355.763 344.538L371.693 268.604C371.792 268.133 372.047 267.708 372.416 267.398C372.785 267.088 373.248 266.91 373.729 266.894C374.211 266.878 374.685 267.023 375.074 267.308C375.463 267.592 375.746 267.999 375.877 268.463L398.384 348.316C398.545 348.896 398.891 349.408 399.37 349.772C399.849 350.137 400.434 350.334 401.036 350.334C401.216 350.333 401.395 350.317 401.572 350.285L413.17 348.051C413.844 347.925 414.447 347.552 414.86 347.005C415.274 346.457 415.467 345.775 415.404 345.092C413.699 326.085 404.642 230.881 392.884 216.834Z" fill="#2F2E41"/>
<path d="M325.146 165.545C325.041 166.444 325.135 167.354 325.42 168.213C325.705 169.071 326.175 169.856 326.796 170.514C327.418 171.171 328.176 171.684 329.017 172.016C329.858 172.349 330.762 172.493 331.665 172.439L340.112 192.739L346.502 183.267L337.501 165.441C337.308 163.931 336.569 162.543 335.422 161.541C334.275 160.539 332.8 159.993 331.277 160.006C329.755 160.019 328.289 160.59 327.159 161.61C326.029 162.631 325.313 164.031 325.146 165.545L325.146 165.545Z" fill="#A0616A"/>
<path d="M383.038 237.274C383.937 237.167 384.8 236.864 385.569 236.387C386.337 235.909 386.991 235.269 387.486 234.512C387.98 233.754 388.302 232.898 388.43 232.002C388.557 231.107 388.487 230.194 388.223 229.329L405.996 216.384L395.296 212.377L380.059 225.284C378.635 225.823 377.457 226.865 376.75 228.214C376.043 229.563 375.856 231.125 376.223 232.602C376.59 234.08 377.487 235.372 378.743 236.233C379.999 237.094 381.528 237.465 383.038 237.274Z" fill="#A0616A"/>
<path d="M354.065 206.272C353.384 206.271 352.704 206.204 352.036 206.072C350.419 205.764 348.903 205.064 347.621 204.032C346.339 203 345.331 201.669 344.684 200.155L332.85 185.725C332.599 185.419 332.417 185.064 332.316 184.683C332.214 184.302 332.195 183.903 332.259 183.514C332.324 183.125 332.471 182.754 332.691 182.426C332.911 182.099 333.198 181.822 333.533 181.614L341.953 176.402C342.264 176.21 342.61 176.081 342.971 176.022C343.332 175.964 343.701 175.978 344.056 176.064C344.412 176.149 344.747 176.304 345.042 176.519C345.338 176.735 345.588 177.006 345.777 177.319L354.119 191.061L370.093 179.256C371.364 178.589 372.834 178.402 374.232 178.729C375.63 179.056 376.865 179.875 377.709 181.037C378.553 182.198 378.951 183.625 378.831 185.056C378.71 186.487 378.078 187.827 377.051 188.83L361.108 203.374C359.235 205.231 356.703 206.273 354.065 206.272Z" fill="#2F2E41"/>
<path d="M397.228 227.975C397.207 227.975 397.185 227.975 397.163 227.974C396.775 227.965 396.393 227.874 396.042 227.708C395.691 227.541 395.379 227.303 395.126 227.008L387.64 218.275C387.385 217.978 387.196 217.63 387.086 217.254C386.975 216.878 386.946 216.483 386.999 216.095C387.053 215.707 387.188 215.334 387.396 215.003C387.604 214.671 387.881 214.387 388.207 214.169L402.224 204.825L389.525 189.558C388.786 188.326 388.515 186.87 388.762 185.455C389.008 184.04 389.755 182.761 390.866 181.852C391.978 180.942 393.379 180.463 394.815 180.502C396.25 180.54 397.624 181.094 398.685 182.062L414.119 197.144C415.334 198.254 416.261 199.642 416.821 201.189C417.381 202.736 417.558 204.395 417.336 206.025C417.113 207.656 416.499 209.207 415.544 210.548C414.59 211.888 413.325 212.977 411.858 213.721L399.243 227.106C398.984 227.38 398.672 227.599 398.325 227.748C397.979 227.898 397.606 227.975 397.228 227.975Z" fill="#2F2E41"/>
<path d="M380.034 195.796C379.914 195.796 379.794 195.788 379.675 195.773C379.153 195.71 378.661 195.498 378.256 195.163C377.852 194.829 377.552 194.385 377.391 193.885L371.766 176.638C371.625 176.202 371.647 175.73 371.827 175.309C372.008 174.888 372.334 174.546 372.747 174.347L372.93 174.261C373.095 174.182 373.259 174.104 373.426 174.029C376.049 172.813 378.905 172.178 381.796 172.169C385.55 172.176 389.22 173.279 392.355 175.342C392.776 175.622 393.07 176.056 393.173 176.55C393.277 177.044 393.183 177.559 392.91 177.985L382.358 194.516C382.11 194.909 381.767 195.232 381.361 195.456C380.954 195.68 380.498 195.797 380.034 195.796Z" fill="#E6E6E6"/>
<path d="M401.235 141.273C404.571 141.273 407.275 138.569 407.275 135.233C407.275 131.897 404.571 129.193 401.235 129.193C397.899 129.193 395.194 131.897 395.194 135.233C395.194 138.569 397.899 141.273 401.235 141.273Z" fill="#2F2E41"/>
<path d="M380.529 128.594C376.286 128.594 372.217 130.28 369.217 133.28C366.216 136.28 364.531 140.349 364.531 144.592V151.36H372.855L376.837 144.592L378.031 151.36H403.294L396.526 144.592C396.526 140.349 394.841 136.28 391.841 133.28C388.84 130.28 384.771 128.594 380.529 128.594Z" fill="#2F2E41"/>
<path d="M404.339 131.096C405.007 129.007 406.39 127.221 408.245 126.051C410.099 124.881 412.307 124.403 414.48 124.7C418.329 125.343 421.372 128.437 423.186 131.893C424.999 135.349 425.836 139.217 427.056 142.924C428.275 146.631 430.004 150.359 433.081 152.759C436.159 155.159 440.881 155.81 443.904 153.341C443.559 155.914 442.413 158.313 440.63 160.199C438.846 162.086 436.515 163.363 433.965 163.852C431.415 164.34 428.777 164.015 426.422 162.922C424.068 161.828 422.116 160.023 420.845 157.76C419.25 154.922 418.838 151.596 418.365 148.376C417.892 145.155 417.278 141.823 415.373 139.183C413.469 136.543 409.905 134.819 406.88 136.021L404.339 131.096Z" fill="#2F2E41"/>
<path d="M207.937 140.311C202.43 140.31 197.149 138.122 193.256 134.229C189.362 130.335 187.175 125.054 187.174 119.547C187.174 115.792 187.177 112.92 187.182 112.512C187.357 99.648 190.597 87.0114 196.633 75.6501C186.716 89.2253 181.264 105.547 181.029 122.356C181.024 122.765 181.021 125.636 181.021 129.392C181.022 134.898 183.209 140.179 187.103 144.073C190.996 147.967 196.277 150.155 201.784 150.156C206.309 150.154 210.71 148.675 214.317 145.944C217.925 143.213 220.543 139.38 221.774 135.025C217.972 138.434 213.043 140.317 207.937 140.311Z" fill="#3F3D56"/>
<path d="M263.809 85.5934C270.175 85.8974 276.372 87.7419 281.869 90.9685C287.365 94.1951 291.996 98.7075 295.364 104.118C298.732 109.529 300.736 115.676 301.205 122.032C301.674 128.388 300.594 134.762 298.056 140.609C301.726 136.298 304.424 131.247 305.965 125.8C307.506 120.352 307.855 114.637 306.987 109.042C306.118 103.448 304.054 98.1069 300.935 93.3827C297.815 88.6585 293.714 84.6624 288.91 81.667C284.106 78.6716 278.713 76.7472 273.098 76.025C267.483 75.3029 261.778 75.8 256.373 77.4824C250.967 79.1648 245.988 81.993 241.775 85.7742C237.562 89.5553 234.213 94.2005 231.958 99.3931C235.856 94.8075 240.755 91.1785 246.277 88.7859C251.8 86.3933 257.798 85.301 263.809 85.5934Z" fill="#3F3D56"/>
<path d="M270.197 269.523C264.58 269.524 259.187 267.317 255.183 263.378C251.178 259.438 248.882 254.083 248.791 248.466C248.531 232.187 248.396 212.131 248.396 209.839C248.392 204.263 249.195 198.715 250.779 193.369L250.772 193.367C251.707 190.683 252.837 188.072 254.152 185.552C250.115 190.933 246.902 196.884 244.619 203.212L244.626 203.214C243.042 208.56 242.239 214.108 242.243 219.684C242.243 221.976 242.378 242.032 242.638 258.311C242.729 263.927 245.025 269.283 249.03 273.222C253.034 277.162 258.427 279.369 264.044 279.367C268.676 279.367 273.183 277.864 276.888 275.085C280.594 272.307 283.298 268.401 284.596 263.955C280.66 267.544 275.524 269.53 270.197 269.523Z" fill="#3F3D56"/>
<path d="M77.8601 358.462L85.403 358.461L88.992 329.365L77.8582 329.366L77.8601 358.462Z" fill="#FFB8B8"/>
<path d="M99.9514 365.465L76.2437 365.466L76.2432 356.307L90.7912 356.306C93.2205 356.306 95.5504 357.271 97.2683 358.988C98.9861 360.706 99.9513 363.036 99.9514 365.465L99.9514 365.465Z" fill="#2F2E41"/>
<path d="M50.7871 358.462L58.33 358.461L61.919 329.365L50.7852 329.366L50.7871 358.462Z" fill="#FFB8B8"/>
<path d="M72.8784 365.465L49.1707 365.466L49.1702 356.307L63.7182 356.306C66.1475 356.306 68.4774 357.271 70.1953 358.988C71.9131 360.706 72.8783 363.036 72.8784 365.465L72.8784 365.465Z" fill="#2F2E41"/>
<path d="M57.3789 349.513L50.0107 349.125C49.6308 349.105 49.2586 349.01 48.9157 348.845C48.5728 348.681 48.2661 348.449 48.0132 348.165C47.7603 347.881 47.5664 347.549 47.4426 347.189C47.3188 346.83 47.2676 346.449 47.2921 346.069L56.0986 248.566L96.6533 259.509L100.561 258.443L88.3418 344.76C88.2378 345.409 87.9153 346.004 87.4278 346.445C86.9402 346.886 86.3167 347.148 85.6603 347.187L77.7175 347.557C77.3203 347.579 76.9229 347.519 76.5504 347.379C76.1778 347.24 75.8382 347.025 75.5531 346.747C75.2679 346.47 75.0433 346.137 74.8936 345.768C74.7439 345.4 74.6722 345.004 74.6832 344.606L76.1224 292.801C76.1291 292.561 76.0459 292.328 75.8891 292.147C75.7323 291.965 75.5133 291.849 75.2752 291.822C75.0372 291.794 74.7974 291.856 74.603 291.996C74.4087 292.137 74.2739 292.345 74.2253 292.579L60.3461 347.225C60.2151 347.873 59.8633 348.456 59.3506 348.874C58.838 349.292 58.1962 349.52 57.5347 349.517C57.4831 349.517 57.4312 349.516 57.3789 349.513Z" fill="#2F2E41"/>
<path d="M79.2143 168.788C87.5606 168.788 94.3266 162.022 94.3266 153.675C94.3266 145.329 87.5606 138.563 79.2143 138.563C70.868 138.563 64.1021 145.329 64.1021 153.675C64.1021 162.022 70.868 168.788 79.2143 168.788Z" fill="#FFB8B8"/>
<path d="M54.0535 198.075L55.7151 233.926L56.3158 246.97C56.3397 247.537 56.5325 248.085 56.8695 248.543C57.2065 249 57.6723 249.347 58.2074 249.539L97.1777 263.656C97.4925 263.773 97.8261 263.831 98.1619 263.828C98.5458 263.83 98.9261 263.755 99.2801 263.606C99.6341 263.458 99.9546 263.24 100.222 262.965C100.49 262.69 100.7 262.364 100.839 262.006C100.978 261.648 101.043 261.266 101.031 260.882L99.4338 196.419C99.3289 191.131 97.382 186.044 93.9288 182.037C90.4757 178.029 85.7326 175.353 80.5174 174.467C80.1404 174.41 79.7569 174.352 79.3734 174.301C76.1395 173.9 72.8569 174.212 69.7566 175.215C66.6562 176.219 63.8135 177.89 61.4283 180.11C58.9585 182.382 57.0179 185.168 55.7435 188.272C54.4691 191.377 53.8922 194.723 54.0534 198.075L54.0535 198.075Z" fill="#CCCCCC"/>
<path d="M115.794 256.502C114.872 256.216 114.03 255.718 113.335 255.049C112.639 254.38 112.11 253.557 111.789 252.647C111.468 251.737 111.365 250.764 111.486 249.807C111.608 248.849 111.952 247.934 112.49 247.133L99.2751 229.56L110.679 228.854L121.48 245.65C122.637 246.544 123.441 247.817 123.753 249.245C124.065 250.672 123.864 252.165 123.186 253.459C122.507 254.754 121.395 255.768 120.043 256.325C118.691 256.881 117.187 256.944 115.794 256.502H115.794Z" fill="#FFB8B8"/>
<path d="M106.502 243.953C106.152 243.811 105.834 243.601 105.565 243.335C105.297 243.069 105.084 242.752 104.939 242.403L85.0287 194.967C84.6381 194.039 84.4343 193.042 84.4289 192.035C84.4236 191.027 84.6169 190.028 84.9978 189.095C85.3786 188.163 85.9396 187.314 86.6485 186.598C87.3575 185.882 88.2006 185.313 89.1297 184.923C90.0587 184.533 91.0555 184.33 92.063 184.326C93.0706 184.321 94.0692 184.515 95.0017 184.897C95.9342 185.278 96.7824 185.84 97.4978 186.549C98.2131 187.259 98.7817 188.102 99.1709 189.032L119.081 236.468C119.375 237.171 119.378 237.963 119.09 238.669C118.801 239.374 118.245 239.937 117.542 240.233L108.703 243.942C108.355 244.09 107.982 244.166 107.604 244.168C107.226 244.17 106.851 244.097 106.502 243.953L106.502 243.953Z" fill="#CCCCCC"/>
<path d="M74.3556 242.28L93.4785 205.664C93.8473 204.96 94.4803 204.431 95.2387 204.193C95.9972 203.955 96.819 204.027 97.524 204.395L125.281 218.891C125.985 219.26 126.514 219.893 126.752 220.651C126.99 221.41 126.918 222.232 126.551 222.937L107.428 259.552C107.059 260.256 106.426 260.785 105.667 261.023C104.909 261.261 104.087 261.189 103.382 260.822L75.6252 246.325C74.9211 245.956 74.3919 245.323 74.1539 244.565C73.9159 243.807 73.9884 242.985 74.3556 242.28Z" fill="#3F3D56"/>
<path d="M87.1801 225.551C86.8401 224.648 86.2938 223.836 85.5846 223.182C84.8754 222.527 84.023 222.048 83.0955 221.781C82.168 221.514 81.191 221.468 80.2425 221.646C79.294 221.824 78.4002 222.222 77.6326 222.806L59.31 210.652L59.2789 222.078L76.683 231.868C77.6437 232.97 78.9616 233.698 80.4055 233.925C81.8494 234.152 83.3271 233.863 84.5794 233.109C85.8318 232.356 86.7788 231.185 87.2543 229.803C87.7298 228.421 87.7036 226.915 87.1801 225.551Z" fill="#FFB8B8"/>
<path d="M64.0142 228.121L49.0399 216.259C47.42 215.715 45.9563 214.786 44.7744 213.552C43.5925 212.318 42.7277 210.815 42.2543 209.173C41.7809 207.531 41.7131 205.799 42.0565 204.125C42.4 202.451 43.1445 200.886 44.2262 199.563L57.8225 181.744C58.7673 180.59 60.0961 179.814 61.5659 179.558C63.0358 179.303 64.5485 179.585 65.8275 180.352C67.1066 181.12 68.0666 182.323 68.532 183.74C68.9974 185.158 68.9372 186.695 68.3623 188.072L57.6045 205.67L73.4139 213.168C73.7815 213.342 74.108 213.593 74.3717 213.903C74.6354 214.213 74.8303 214.575 74.9436 214.966C75.0569 215.356 75.086 215.767 75.0289 216.17C74.9719 216.573 74.83 216.959 74.6126 217.303L68.2309 227.402C68.0152 227.743 67.7303 228.035 67.3946 228.259C67.059 228.482 66.6801 228.633 66.2825 228.701C66.2667 228.704 66.2508 228.706 66.2349 228.709C65.8442 228.768 65.4456 228.746 65.0636 228.645C64.6816 228.544 64.3245 228.365 64.0142 228.121Z" fill="#CCCCCC"/>
<path d="M67.7951 163.795C67.7303 163.605 67.7097 163.403 67.735 163.204C67.7603 163.005 67.8307 162.815 67.941 162.647C68.0512 162.48 68.1983 162.34 68.371 162.238C68.5437 162.137 68.7374 162.076 68.9373 162.06C69.3466 162.082 69.7472 162.187 70.1148 162.369C70.4824 162.55 70.8094 162.804 71.0761 163.115C71.6231 163.746 72.2598 164.293 72.9658 164.738C73.6969 165.107 74.6883 165.054 75.1051 164.351C75.4965 163.692 75.2283 162.808 74.9914 162.042C74.3885 160.092 74.0512 158.07 73.9885 156.031C73.9203 153.754 74.2415 151.378 75.502 149.602C77.1287 147.31 80.0375 146.44 82.7904 146.503C85.5432 146.566 88.2514 147.416 90.9782 147.953C91.9196 148.139 93.0261 148.233 93.6557 147.504C94.3251 146.728 94.0793 145.472 93.7945 144.425C93.0556 141.707 92.2717 138.897 90.5548 136.702C88.6985 134.421 86.0468 132.928 83.1339 132.524C80.3372 132.177 77.4983 132.5 74.8506 133.464C70.5366 134.824 66.7407 137.468 63.9704 141.044C61.1146 144.846 59.8806 149.625 60.5382 154.334C61.1806 158.436 63.3543 162.142 66.6209 164.705L67.7951 163.795Z" fill="#2F2E41"/>
<path d="M259.198 358.582C255.177 356.831 251.619 354.169 248.803 350.807C245.987 347.445 243.991 343.475 242.972 339.209C241.954 334.943 241.941 330.499 242.934 326.228C243.927 321.956 245.899 317.974 248.695 314.595C245.453 316.962 242.752 319.991 240.771 323.481C238.79 326.972 237.573 330.844 237.203 334.84C236.832 338.836 237.316 342.866 238.622 346.661C239.928 350.456 242.026 353.93 244.777 356.852C247.528 359.775 250.869 362.078 254.578 363.611C258.288 365.143 262.281 365.869 266.292 365.74C270.304 365.611 274.242 364.631 277.845 362.864C281.449 361.096 284.635 358.583 287.193 355.49C283.204 358.406 278.52 360.226 273.608 360.768C268.696 361.311 263.728 360.557 259.198 358.582Z" fill="#3F3D56"/>
</g>
<defs>
<clipPath id="clip0">
<rect width="519.725" height="366.262" fill="white"/>
</clipPath>
</defs>
</svg>
