<svg width="175" height="175" viewBox="0 0 175 175" fill="none" xmlns="http://www.w3.org/2000/svg">
<path d="M8.20312 73.8281V84.7656C8.20313 87.6664 9.35546 90.4484 11.4066 92.4996C13.4578 94.5508 16.2398 95.7031 19.1406 95.7031H128.516V73.8281H8.20312Z" fill="#E0E0E2"/>
<path d="M117.578 8.20312H19.1406C16.2398 8.20313 13.4578 9.35546 11.4066 11.4066C9.35546 13.4578 8.20313 16.2398 8.20312 19.1406V73.8281H128.516V19.1406C128.516 16.2398 127.363 13.4578 125.312 11.4066C123.261 9.35546 120.479 8.20313 117.578 8.20312Z" fill="#46F8FF"/>
<path d="M155.859 133.984C157.296 133.983 158.719 134.264 160.047 134.813C161.375 135.362 162.581 136.168 163.597 137.184C164.613 138.2 165.419 139.406 165.968 140.734C166.517 142.062 166.799 143.485 166.797 144.922V155.859C166.797 158.76 165.645 161.542 163.593 163.593C161.542 165.645 158.76 166.797 155.859 166.797C152.959 166.797 150.177 165.645 148.125 163.593C146.074 161.542 144.922 158.76 144.922 155.859V144.922C144.922 142.021 146.074 139.239 148.125 137.188C150.177 135.137 152.959 133.984 155.859 133.984V133.984Z" fill="#FF7956"/>
<path d="M90.2344 51.9531H155.859V62.8906H90.2344V51.9531Z" fill="#46F8FF"/>
<path d="M112.109 133.984H24.6094C18.5688 133.984 13.6719 138.881 13.6719 144.922V155.859C13.6719 161.9 18.5688 166.797 24.6094 166.797H112.109C118.15 166.797 123.047 161.9 123.047 155.859V144.922C123.047 138.881 118.15 133.984 112.109 133.984Z" fill="#898890"/>
<path d="M87.5 117.578V123.047H49.2188V117.578C49.2231 116.129 49.8006 114.741 50.8253 113.716C51.8499 112.691 53.2384 112.114 54.6875 112.109H82.0312C83.4803 112.114 84.8688 112.691 85.8935 113.716C86.9181 114.741 87.4957 116.129 87.5 117.578Z" fill="#E0E0E2"/>
<path d="M60.1562 95.7031H76.5625V112.109H60.1562V95.7031Z" fill="#898890"/>
<path d="M166.797 144.922V155.859C166.8 157.78 166.296 159.668 165.337 161.332C164.377 162.996 162.996 164.378 161.331 165.337C159.667 166.297 157.78 166.801 155.859 166.798C153.938 166.795 152.052 166.285 150.391 165.32C152.055 164.365 153.438 162.987 154.399 161.326C155.359 159.664 155.863 157.778 155.859 155.859V144.922C155.854 142.021 154.704 139.241 152.66 137.183C151.978 136.518 151.215 135.939 150.391 135.461C152.052 134.497 153.938 133.988 155.858 133.985C157.779 133.983 159.666 134.487 161.33 135.446C162.994 136.406 164.375 137.787 165.335 139.45C166.295 141.114 166.799 143.001 166.797 144.922V144.922Z" fill="#FF5023"/>
<path d="M123.047 144.922V155.859C123.047 158.76 121.895 161.542 119.843 163.593C117.792 165.645 115.01 166.797 112.109 166.797H101.172C104.073 166.797 106.855 165.645 108.906 163.593C110.957 161.542 112.109 158.76 112.109 155.859V144.922C112.109 142.021 110.957 139.239 108.906 137.188C106.855 135.137 104.073 133.984 101.172 133.984H112.109C115.01 133.984 117.792 135.137 119.843 137.188C121.895 139.239 123.047 142.021 123.047 144.922Z" fill="#57565C"/>
<path d="M87.5 117.578V123.047H76.5625V117.578C76.5582 116.129 75.9806 114.741 74.956 113.716C73.9313 112.691 72.5428 112.114 71.0938 112.109H82.0312C83.4803 112.114 84.8688 112.691 85.8935 113.716C86.9181 114.741 87.4957 116.129 87.5 117.578Z" fill="#898890"/>
<path d="M68.3594 95.7031H76.5625V112.109H68.3594V95.7031Z" fill="#57565C"/>
<path d="M79.2969 62.8906H166.797V95.7031H79.2969V62.8906Z" fill="#FF7956"/>
<path d="M79.2969 19.1406H166.797V51.9531H79.2969V19.1406Z" fill="#FEE9AB"/>
<path d="M155.859 62.8906H166.797V95.7031H155.859V62.8906Z" fill="#FF5023"/>
<path d="M117.578 41.0156C120.598 41.0156 123.047 38.5672 123.047 35.5469C123.047 32.5266 120.598 30.0781 117.578 30.0781C114.558 30.0781 112.109 32.5266 112.109 35.5469C112.109 38.5672 114.558 41.0156 117.578 41.0156Z" fill="#FF7956"/>
<path d="M117.578 84.7656C120.598 84.7656 123.047 82.3172 123.047 79.2969C123.047 76.2766 120.598 73.8281 117.578 73.8281C114.558 73.8281 112.109 76.2766 112.109 79.2969C112.109 82.3172 114.558 84.7656 117.578 84.7656Z" fill="#FEE9AB"/>
<path d="M95.7031 41.0156C98.7234 41.0156 101.172 38.5672 101.172 35.5469C101.172 32.5266 98.7234 30.0781 95.7031 30.0781C92.6828 30.0781 90.2344 32.5266 90.2344 35.5469C90.2344 38.5672 92.6828 41.0156 95.7031 41.0156Z" fill="#FF7956"/>
<path d="M95.7031 84.7656C98.7234 84.7656 101.172 82.3172 101.172 79.2969C101.172 76.2766 98.7234 73.8281 95.7031 73.8281C92.6828 73.8281 90.2344 76.2766 90.2344 79.2969C90.2344 82.3172 92.6828 84.7656 95.7031 84.7656Z" fill="#FEE9AB"/>
<path d="M155.859 19.1406H166.797V51.9531H155.859V19.1406Z" fill="#FFDE55"/>
<path d="M95.7031 43.75C97.3255 43.75 98.9115 43.2689 100.261 42.3675C101.61 41.4662 102.661 40.185 103.282 38.6861C103.903 37.1872 104.065 35.5378 103.749 33.9465C103.432 32.3553 102.651 30.8936 101.504 29.7464C100.356 28.5992 98.8947 27.8179 97.3035 27.5014C95.7122 27.1849 94.0629 27.3473 92.5639 27.9682C91.065 28.5891 89.7839 29.6405 88.8825 30.9895C87.9811 32.3385 87.5 33.9245 87.5 35.5469C87.5 37.7225 88.3643 39.809 89.9026 41.3474C91.441 42.8857 93.5275 43.75 95.7031 43.75ZM95.7031 32.8125C96.2439 32.8125 96.7726 32.9729 97.2223 33.2733C97.6719 33.5738 98.0224 34.0008 98.2294 34.5005C98.4363 35.0001 98.4905 35.5499 98.385 36.0803C98.2795 36.6107 98.019 37.098 97.6366 37.4804C97.2542 37.8628 96.767 38.1232 96.2366 38.2287C95.7062 38.3342 95.1564 38.2801 94.6567 38.0731C94.1571 37.8662 93.73 37.5157 93.4296 37.066C93.1291 36.6164 92.9688 36.0877 92.9688 35.5469C92.9688 34.8217 93.2568 34.1262 93.7696 33.6134C94.2824 33.1006 94.9779 32.8125 95.7031 32.8125Z" fill="black"/>
<path d="M117.578 43.75C119.201 43.75 120.787 43.2689 122.136 42.3675C123.485 41.4662 124.536 40.185 125.157 38.6861C125.778 37.1872 125.94 35.5378 125.624 33.9465C125.307 32.3553 124.526 30.8936 123.379 29.7464C122.231 28.5992 120.77 27.8179 119.178 27.5014C117.587 27.1849 115.938 27.3473 114.439 27.9682C112.94 28.5891 111.659 29.6405 110.757 30.9895C109.856 32.3385 109.375 33.9245 109.375 35.5469C109.375 37.7225 110.239 39.809 111.778 41.3474C113.316 42.8857 115.403 43.75 117.578 43.75ZM117.578 32.8125C118.119 32.8125 118.648 32.9729 119.097 33.2733C119.547 33.5738 119.897 34.0008 120.104 34.5005C120.311 35.0001 120.365 35.5499 120.26 36.0803C120.154 36.6107 119.894 37.098 119.512 37.4804C119.129 37.8628 118.642 38.1232 118.112 38.2287C117.581 38.3342 117.031 38.2801 116.532 38.0731C116.032 37.8662 115.605 37.5157 115.305 37.066C115.004 36.6164 114.844 36.0877 114.844 35.5469C114.844 34.8217 115.132 34.1262 115.645 33.6134C116.157 33.1006 116.853 32.8125 117.578 32.8125Z" fill="black"/>
<path d="M166.797 54.6875C167.522 54.6875 168.218 54.3994 168.73 53.8866C169.243 53.3738 169.531 52.6783 169.531 51.9531V19.1406C169.531 18.4154 169.243 17.7199 168.73 17.2071C168.218 16.6943 167.522 16.4062 166.797 16.4062H130.977C130.338 13.3222 128.658 10.5516 126.218 8.55998C123.778 6.56832 120.728 5.47681 117.578 5.46875H19.1406C15.5146 5.46875 12.0371 6.90918 9.47315 9.47315C6.90918 12.0371 5.46875 15.5146 5.46875 19.1406V84.7656C5.46875 88.3916 6.90918 91.8691 9.47315 94.4331C12.0371 96.9971 15.5146 98.4375 19.1406 98.4375H57.4219V109.375H54.6875C52.5139 109.381 50.4312 110.248 48.8942 111.785C47.3572 113.322 46.4909 115.405 46.4844 117.578V123.047C46.4844 123.772 46.7725 124.468 47.2853 124.98C47.798 125.493 48.4935 125.781 49.2188 125.781H87.5C88.2252 125.781 88.9207 125.493 89.4335 124.98C89.9463 124.468 90.2344 123.772 90.2344 123.047V117.578C90.2279 115.405 89.3615 113.322 87.8246 111.785C86.2876 110.248 84.2049 109.381 82.0312 109.375H79.2969V98.4375H125.781V114.844C125.788 117.017 126.654 119.1 128.191 120.637C129.728 122.174 131.811 123.04 133.984 123.047H150.391C151.116 123.047 151.811 123.335 152.324 123.848C152.837 124.361 153.125 125.056 153.125 125.781V131.523C150.041 132.162 147.27 133.842 145.279 136.282C143.287 138.722 142.196 141.772 142.188 144.922V155.859C142.188 159.485 143.628 162.963 146.192 165.527C148.756 168.091 152.233 169.531 155.859 169.531C159.485 169.531 162.963 168.091 165.527 165.527C168.091 162.963 169.531 159.485 169.531 155.859V144.922C169.523 141.772 168.432 138.722 166.44 136.282C164.448 133.842 161.678 132.162 158.594 131.523V125.781C158.587 123.608 157.721 121.525 156.184 119.988C154.647 118.451 152.564 117.585 150.391 117.578H133.984C133.259 117.578 132.564 117.29 132.051 116.777C131.538 116.264 131.25 115.569 131.25 114.844V98.4375H166.797C167.522 98.4375 168.218 98.1494 168.73 97.6366C169.243 97.1238 169.531 96.4283 169.531 95.7031V62.8906C169.531 62.1654 169.243 61.4699 168.73 60.9571C168.218 60.4443 167.522 60.1562 166.797 60.1562H158.594V54.6875H166.797ZM158.594 144.922V137.211C160.187 137.778 161.567 138.823 162.546 140.203C163.524 141.583 164.054 143.23 164.062 144.922V155.859C164.062 158.035 163.198 160.121 161.66 161.66C160.121 163.198 158.035 164.062 155.859 164.062C153.684 164.062 151.597 163.198 150.059 161.66C148.521 160.121 147.656 158.035 147.656 155.859V144.922C147.665 143.23 148.195 141.583 149.173 140.203C150.152 138.823 151.532 137.778 153.125 137.211V144.922H158.594ZM19.1406 92.9688C16.967 92.9623 14.8843 92.0959 13.3473 90.5589C11.8103 89.022 10.944 86.9392 10.9375 84.7656V76.5625H76.5625V92.9688H19.1406ZM73.8281 98.4375V109.375H62.8906V98.4375H73.8281ZM82.0312 114.844C82.7565 114.844 83.452 115.132 83.9647 115.645C84.4775 116.157 84.7656 116.853 84.7656 117.578V120.312H51.9531V117.578C51.9531 116.853 52.2412 116.157 52.754 115.645C53.2668 115.132 53.9623 114.844 54.6875 114.844H82.0312ZM76.5625 62.8906V71.0938H10.9375V19.1406C10.944 16.967 11.8103 14.8843 13.3473 13.3473C14.8843 11.8103 16.967 10.944 19.1406 10.9375H117.578C119.27 10.9462 120.917 11.4759 122.297 12.4544C123.677 13.4329 124.722 14.8128 125.289 16.4062H79.2969C78.5717 16.4062 77.8762 16.6943 77.3634 17.2071C76.8506 17.7199 76.5625 18.4154 76.5625 19.1406V51.9531C76.5625 52.6783 76.8506 53.3738 77.3634 53.8866C77.8762 54.3994 78.5717 54.6875 79.2969 54.6875H87.5V60.1562H79.2969C78.5717 60.1562 77.8762 60.4443 77.3634 60.9571C76.8506 61.4699 76.5625 62.1654 76.5625 62.8906ZM164.062 65.625V92.9688H82.0312V65.625H164.062ZM92.9688 60.1562V54.6875H153.125V60.1562H92.9688ZM82.0312 49.2188V21.875H164.062V49.2188H82.0312Z" fill="black"/>
<path d="M133.984 27.3438H139.453V32.8125H133.984V27.3438Z" fill="black"/>
<path d="M133.984 38.2812H139.453V43.75H133.984V38.2812Z" fill="black"/>
<path d="M150.391 27.3438H155.859V32.8125H150.391V27.3438Z" fill="black"/>
<path d="M150.391 38.2812H155.859V43.75H150.391V38.2812Z" fill="black"/>
<path d="M95.7031 87.5C97.3255 87.5 98.9115 87.0189 100.261 86.1175C101.61 85.2162 102.661 83.935 103.282 82.4361C103.903 80.9372 104.065 79.2878 103.749 77.6965C103.432 76.1053 102.651 74.6436 101.504 73.4964C100.356 72.3492 98.8947 71.5679 97.3035 71.2514C95.7122 70.9349 94.0629 71.0973 92.5639 71.7182C91.065 72.3391 89.7839 73.3905 88.8825 74.7395C87.9811 76.0885 87.5 77.6745 87.5 79.2969C87.5 81.4725 88.3643 83.559 89.9026 85.0974C91.441 86.6357 93.5275 87.5 95.7031 87.5ZM95.7031 76.5625C96.2439 76.5625 96.7726 76.7229 97.2223 77.0233C97.6719 77.3238 98.0224 77.7508 98.2294 78.2505C98.4363 78.7501 98.4905 79.2999 98.385 79.8303C98.2795 80.3607 98.019 80.848 97.6366 81.2304C97.2542 81.6128 96.767 81.8732 96.2366 81.9787C95.7062 82.0842 95.1564 82.0301 94.6567 81.8231C94.1571 81.6162 93.73 81.2657 93.4296 80.816C93.1291 80.3664 92.9688 79.8377 92.9688 79.2969C92.9688 78.5717 93.2568 77.8762 93.7696 77.3634C94.2824 76.8506 94.9779 76.5625 95.7031 76.5625Z" fill="black"/>
<path d="M117.578 87.5C119.201 87.5 120.787 87.0189 122.136 86.1175C123.485 85.2162 124.536 83.935 125.157 82.4361C125.778 80.9372 125.94 79.2878 125.624 77.6965C125.307 76.1053 124.526 74.6436 123.379 73.4964C122.231 72.3492 120.77 71.5679 119.178 71.2514C117.587 70.9349 115.938 71.0973 114.439 71.7182C112.94 72.3391 111.659 73.3905 110.757 74.7395C109.856 76.0885 109.375 77.6745 109.375 79.2969C109.375 81.4725 110.239 83.559 111.778 85.0974C113.316 86.6357 115.403 87.5 117.578 87.5ZM117.578 76.5625C118.119 76.5625 118.648 76.7229 119.097 77.0233C119.547 77.3238 119.897 77.7508 120.104 78.2505C120.311 78.7501 120.365 79.2999 120.26 79.8303C120.154 80.3607 119.894 80.848 119.512 81.2304C119.129 81.6128 118.642 81.8732 118.112 81.9787C117.581 82.0842 117.031 82.0301 116.532 81.8231C116.032 81.6162 115.605 81.2657 115.305 80.816C115.004 80.3664 114.844 79.8377 114.844 79.2969C114.844 78.5717 115.132 77.8762 115.645 77.3634C116.157 76.8506 116.853 76.5625 117.578 76.5625Z" fill="black"/>
<path d="M133.984 71.0938H139.453V76.5625H133.984V71.0938Z" fill="black"/>
<path d="M133.984 82.0312H139.453V87.5H133.984V82.0312Z" fill="black"/>
<path d="M150.391 71.0938H155.859V76.5625H150.391V71.0938Z" fill="black"/>
<path d="M150.391 82.0312H155.859V87.5H150.391V82.0312Z" fill="black"/>
<path d="M112.109 131.25H24.6094C20.9847 131.254 17.5097 132.696 14.9467 135.259C12.3837 137.822 10.9418 141.297 10.9375 144.922V155.859C10.9418 159.484 12.3837 162.959 14.9467 165.522C17.5097 168.085 20.9847 169.527 24.6094 169.531H112.109C115.734 169.527 119.209 168.085 121.772 165.522C124.335 162.959 125.777 159.484 125.781 155.859V144.922C125.777 141.297 124.335 137.822 121.772 135.259C119.209 132.696 115.734 131.254 112.109 131.25V131.25ZM120.312 155.859C120.312 158.035 119.448 160.121 117.91 161.66C116.371 163.198 114.285 164.062 112.109 164.062H24.6094C22.4338 164.062 20.3473 163.198 18.8089 161.66C17.2705 160.121 16.4062 158.035 16.4062 155.859V144.922C16.4062 142.746 17.2705 140.66 18.8089 139.121C20.3473 137.583 22.4338 136.719 24.6094 136.719H112.109C114.285 136.719 116.371 137.583 117.91 139.121C119.448 140.66 120.312 142.746 120.312 144.922V155.859Z" fill="black"/>
<path d="M54.6875 153.125H82.0312V158.594H54.6875V153.125Z" fill="black"/>
<path d="M32.8125 142.188H38.2812V147.656H32.8125V142.188Z" fill="black"/>
<path d="M21.875 142.188H27.3438V147.656H21.875V142.188Z" fill="black"/>
<path d="M43.75 142.188H49.2188V147.656H43.75V142.188Z" fill="black"/>
<path d="M32.8125 153.125H38.2812V158.594H32.8125V153.125Z" fill="black"/>
<path d="M21.875 153.125H27.3438V158.594H21.875V153.125Z" fill="black"/>
<path d="M43.75 153.125H49.2188V158.594H43.75V153.125Z" fill="black"/>
<path d="M98.4375 153.125H103.906V158.594H98.4375V153.125Z" fill="black"/>
<path d="M87.5 153.125H92.9688V158.594H87.5V153.125Z" fill="black"/>
<path d="M109.375 153.125H114.844V158.594H109.375V153.125Z" fill="black"/>
<path d="M54.6875 142.188H60.1562V147.656H54.6875V142.188Z" fill="black"/>
<path d="M65.625 142.188H71.0938V147.656H65.625V142.188Z" fill="black"/>
<path d="M76.5625 142.188H82.0312V147.656H76.5625V142.188Z" fill="black"/>
<path d="M87.5 142.188H92.9688V147.656H87.5V142.188Z" fill="black"/>
<path d="M98.4375 142.188H103.906V147.656H98.4375V142.188Z" fill="black"/>
<path d="M109.375 142.188H114.844V147.656H109.375V142.188Z" fill="black"/>
</svg>
